G04 EAGLE Gerber X2 export*
%TF.Part,Single*%
%TF.FileFunction,Copper,L2,Bot,Mixed*%
%TF.FilePolarity,Positive*%
%TF.GenerationSoftware,Autodesk,EAGLE,9.2.2*%
%TF.CreationDate,2019-01-17T14:04:39Z*%
G75*
%MOMM*%
%FSLAX34Y34*%
%LPD*%
%INBottom Copper*%
%AMOC8*
5,1,8,0,0,1.08239X$1,22.5*%
G01*
%ADD10C,0.152400*%
%ADD11P,2.089446X8X112.500000*%
%ADD12P,2.089446X8X292.500000*%
%ADD13C,5.588000*%
%ADD14C,1.930400*%
%ADD15R,1.930400X1.930400*%
%ADD16R,1.250009X1.250009*%
%ADD17R,1.016000X1.016000*%
%ADD18C,3.175000*%
%ADD19R,2.667000X4.191000*%
%ADD20C,1.500000*%
%ADD21P,2.089446X8X22.500000*%
%ADD22C,0.812800*%
%ADD23C,0.609600*%
%ADD24C,0.812800*%
%ADD25C,0.504000*%
%ADD26C,0.406400*%
%ADD27C,0.457200*%
%ADD28C,0.609600*%
%ADD29C,0.203200*%
%ADD30C,0.304800*%
%ADD31C,0.127000*%
%ADD32C,0.508000*%
%ADD33C,0.453200*%

G36*
X190518Y531371D02*
X190518Y531371D01*
X190536Y531369D01*
X190718Y531390D01*
X190901Y531409D01*
X190918Y531414D01*
X190935Y531416D01*
X191110Y531473D01*
X191286Y531527D01*
X191301Y531535D01*
X191318Y531541D01*
X191478Y531631D01*
X191640Y531719D01*
X191653Y531730D01*
X191669Y531739D01*
X191808Y531859D01*
X191949Y531976D01*
X191960Y531990D01*
X191974Y532002D01*
X192087Y532148D01*
X192201Y532290D01*
X192209Y532306D01*
X192220Y532320D01*
X192302Y532485D01*
X192387Y532647D01*
X192392Y532664D01*
X192400Y532681D01*
X192447Y532859D01*
X192498Y533034D01*
X192500Y533052D01*
X192504Y533069D01*
X192531Y533400D01*
X192531Y656368D01*
X192529Y656386D01*
X192531Y656404D01*
X192510Y656586D01*
X192491Y656769D01*
X192486Y656786D01*
X192484Y656803D01*
X192427Y656978D01*
X192373Y657154D01*
X192365Y657169D01*
X192359Y657186D01*
X192269Y657346D01*
X192181Y657508D01*
X192170Y657521D01*
X192161Y657537D01*
X192041Y657676D01*
X191924Y657817D01*
X191910Y657828D01*
X191898Y657842D01*
X191753Y657954D01*
X191610Y658069D01*
X191594Y658077D01*
X191580Y658088D01*
X191415Y658170D01*
X191253Y658255D01*
X191236Y658260D01*
X191219Y658268D01*
X191041Y658315D01*
X190866Y658366D01*
X190848Y658368D01*
X190831Y658372D01*
X190500Y658399D01*
X179313Y658399D01*
X179295Y658397D01*
X179277Y658399D01*
X179095Y658378D01*
X178912Y658359D01*
X178895Y658354D01*
X178878Y658352D01*
X178703Y658295D01*
X178527Y658241D01*
X178512Y658233D01*
X178495Y658227D01*
X178335Y658137D01*
X178173Y658049D01*
X178160Y658038D01*
X178144Y658029D01*
X178005Y657909D01*
X177864Y657792D01*
X177853Y657778D01*
X177839Y657766D01*
X177727Y657621D01*
X177612Y657478D01*
X177604Y657462D01*
X177593Y657448D01*
X177511Y657283D01*
X177426Y657121D01*
X177421Y657104D01*
X177413Y657088D01*
X177366Y656909D01*
X177315Y656734D01*
X177313Y656716D01*
X177309Y656699D01*
X177282Y656368D01*
X177282Y643309D01*
X163978Y643309D01*
X163960Y643307D01*
X163943Y643309D01*
X163760Y643287D01*
X163577Y643269D01*
X163560Y643264D01*
X163543Y643262D01*
X163368Y643205D01*
X163193Y643151D01*
X163177Y643143D01*
X163160Y643137D01*
X163000Y643047D01*
X162839Y642959D01*
X162825Y642948D01*
X162809Y642939D01*
X162670Y642819D01*
X162529Y642702D01*
X162518Y642688D01*
X162505Y642676D01*
X162392Y642531D01*
X162277Y642388D01*
X162269Y642372D01*
X162258Y642358D01*
X162176Y642193D01*
X162091Y642031D01*
X162087Y642014D01*
X162079Y641997D01*
X162031Y641819D01*
X161980Y641644D01*
X161979Y641626D01*
X161974Y641609D01*
X161947Y641278D01*
X161947Y639245D01*
X161945Y639245D01*
X161945Y641278D01*
X161943Y641296D01*
X161945Y641313D01*
X161923Y641496D01*
X161905Y641679D01*
X161900Y641696D01*
X161898Y641713D01*
X161841Y641888D01*
X161787Y642063D01*
X161779Y642079D01*
X161773Y642096D01*
X161683Y642256D01*
X161595Y642417D01*
X161584Y642431D01*
X161575Y642447D01*
X161455Y642586D01*
X161338Y642727D01*
X161324Y642738D01*
X161312Y642751D01*
X161167Y642864D01*
X161024Y642979D01*
X161008Y642987D01*
X160994Y642998D01*
X160829Y643080D01*
X160667Y643165D01*
X160649Y643169D01*
X160633Y643177D01*
X160455Y643225D01*
X160280Y643276D01*
X160262Y643277D01*
X160245Y643282D01*
X159914Y643309D01*
X146610Y643309D01*
X146610Y656368D01*
X146608Y656386D01*
X146610Y656404D01*
X146589Y656586D01*
X146570Y656769D01*
X146565Y656786D01*
X146563Y656803D01*
X146506Y656978D01*
X146452Y657154D01*
X146444Y657169D01*
X146438Y657186D01*
X146348Y657346D01*
X146260Y657508D01*
X146249Y657521D01*
X146240Y657537D01*
X146120Y657676D01*
X146003Y657817D01*
X145989Y657828D01*
X145977Y657842D01*
X145832Y657954D01*
X145689Y658069D01*
X145673Y658077D01*
X145659Y658088D01*
X145494Y658170D01*
X145332Y658255D01*
X145315Y658260D01*
X145299Y658268D01*
X145120Y658315D01*
X144945Y658366D01*
X144927Y658368D01*
X144910Y658372D01*
X144579Y658399D01*
X109421Y658399D01*
X109403Y658397D01*
X109385Y658399D01*
X109203Y658378D01*
X109020Y658359D01*
X109003Y658354D01*
X108986Y658352D01*
X108811Y658295D01*
X108635Y658241D01*
X108620Y658233D01*
X108603Y658227D01*
X108443Y658137D01*
X108281Y658049D01*
X108268Y658038D01*
X108252Y658029D01*
X108113Y657909D01*
X107972Y657792D01*
X107961Y657778D01*
X107947Y657766D01*
X107835Y657621D01*
X107720Y657478D01*
X107712Y657462D01*
X107701Y657448D01*
X107619Y657283D01*
X107534Y657121D01*
X107529Y657104D01*
X107521Y657088D01*
X107474Y656909D01*
X107423Y656734D01*
X107421Y656716D01*
X107417Y656699D01*
X107390Y656368D01*
X107390Y643309D01*
X94086Y643309D01*
X94068Y643307D01*
X94051Y643309D01*
X93868Y643287D01*
X93685Y643269D01*
X93668Y643264D01*
X93651Y643262D01*
X93476Y643205D01*
X93301Y643151D01*
X93285Y643143D01*
X93268Y643137D01*
X93108Y643047D01*
X92947Y642959D01*
X92933Y642948D01*
X92917Y642939D01*
X92778Y642819D01*
X92637Y642702D01*
X92626Y642688D01*
X92613Y642676D01*
X92500Y642531D01*
X92385Y642388D01*
X92377Y642372D01*
X92366Y642358D01*
X92284Y642193D01*
X92199Y642031D01*
X92195Y642014D01*
X92187Y641997D01*
X92139Y641819D01*
X92088Y641644D01*
X92087Y641626D01*
X92082Y641609D01*
X92055Y641278D01*
X92055Y639245D01*
X92053Y639245D01*
X92053Y641278D01*
X92051Y641296D01*
X92053Y641313D01*
X92031Y641496D01*
X92013Y641679D01*
X92008Y641696D01*
X92006Y641713D01*
X91949Y641888D01*
X91895Y642063D01*
X91887Y642079D01*
X91881Y642096D01*
X91791Y642256D01*
X91703Y642417D01*
X91692Y642431D01*
X91683Y642447D01*
X91563Y642586D01*
X91446Y642727D01*
X91432Y642738D01*
X91420Y642751D01*
X91275Y642864D01*
X91132Y642979D01*
X91116Y642987D01*
X91102Y642998D01*
X90937Y643080D01*
X90775Y643165D01*
X90757Y643169D01*
X90741Y643177D01*
X90563Y643225D01*
X90388Y643276D01*
X90370Y643277D01*
X90353Y643282D01*
X90022Y643309D01*
X76718Y643309D01*
X76718Y656368D01*
X76716Y656386D01*
X76718Y656404D01*
X76697Y656586D01*
X76678Y656769D01*
X76673Y656786D01*
X76671Y656803D01*
X76614Y656978D01*
X76560Y657154D01*
X76552Y657169D01*
X76546Y657186D01*
X76456Y657346D01*
X76368Y657508D01*
X76357Y657521D01*
X76348Y657537D01*
X76228Y657676D01*
X76111Y657817D01*
X76097Y657828D01*
X76085Y657842D01*
X75940Y657954D01*
X75797Y658069D01*
X75781Y658077D01*
X75767Y658088D01*
X75602Y658170D01*
X75440Y658255D01*
X75423Y658260D01*
X75407Y658268D01*
X75228Y658315D01*
X75053Y658366D01*
X75035Y658368D01*
X75018Y658372D01*
X74687Y658399D01*
X63500Y658399D01*
X63482Y658397D01*
X63464Y658399D01*
X63282Y658378D01*
X63099Y658359D01*
X63082Y658354D01*
X63065Y658352D01*
X62890Y658295D01*
X62714Y658241D01*
X62699Y658233D01*
X62682Y658227D01*
X62522Y658137D01*
X62360Y658049D01*
X62347Y658038D01*
X62331Y658029D01*
X62192Y657909D01*
X62051Y657792D01*
X62040Y657778D01*
X62027Y657766D01*
X61914Y657621D01*
X61799Y657478D01*
X61791Y657462D01*
X61780Y657448D01*
X61698Y657283D01*
X61613Y657121D01*
X61608Y657104D01*
X61600Y657088D01*
X61553Y656909D01*
X61502Y656734D01*
X61500Y656716D01*
X61496Y656699D01*
X61469Y656368D01*
X61469Y533400D01*
X61471Y533382D01*
X61469Y533364D01*
X61490Y533182D01*
X61509Y532999D01*
X61514Y532982D01*
X61516Y532965D01*
X61573Y532790D01*
X61627Y532614D01*
X61635Y532599D01*
X61641Y532582D01*
X61731Y532422D01*
X61819Y532260D01*
X61830Y532247D01*
X61839Y532231D01*
X61959Y532092D01*
X62076Y531951D01*
X62090Y531940D01*
X62102Y531927D01*
X62247Y531814D01*
X62390Y531699D01*
X62406Y531691D01*
X62420Y531680D01*
X62585Y531598D01*
X62747Y531513D01*
X62764Y531508D01*
X62781Y531500D01*
X62959Y531453D01*
X63134Y531402D01*
X63152Y531400D01*
X63169Y531396D01*
X63500Y531369D01*
X190500Y531369D01*
X190518Y531371D01*
G37*
G36*
X504208Y569471D02*
X504208Y569471D01*
X504226Y569469D01*
X504408Y569490D01*
X504591Y569509D01*
X504608Y569514D01*
X504625Y569516D01*
X504800Y569573D01*
X504976Y569627D01*
X504991Y569635D01*
X505008Y569641D01*
X505168Y569731D01*
X505330Y569819D01*
X505343Y569830D01*
X505359Y569839D01*
X505498Y569959D01*
X505639Y570076D01*
X505650Y570090D01*
X505664Y570102D01*
X505777Y570248D01*
X505891Y570390D01*
X505899Y570406D01*
X505910Y570420D01*
X505993Y570586D01*
X506077Y570747D01*
X506082Y570764D01*
X506090Y570781D01*
X506137Y570959D01*
X506188Y571134D01*
X506190Y571152D01*
X506194Y571169D01*
X506221Y571500D01*
X506221Y656368D01*
X506219Y656386D01*
X506221Y656404D01*
X506200Y656586D01*
X506181Y656769D01*
X506176Y656786D01*
X506174Y656803D01*
X506117Y656978D01*
X506063Y657154D01*
X506055Y657169D01*
X506049Y657186D01*
X505959Y657346D01*
X505871Y657508D01*
X505860Y657521D01*
X505851Y657537D01*
X505731Y657676D01*
X505614Y657817D01*
X505600Y657828D01*
X505588Y657842D01*
X505443Y657954D01*
X505300Y658069D01*
X505284Y658077D01*
X505270Y658088D01*
X505105Y658170D01*
X504943Y658255D01*
X504926Y658260D01*
X504909Y658268D01*
X504731Y658315D01*
X504556Y658366D01*
X504538Y658368D01*
X504521Y658372D01*
X504190Y658399D01*
X500877Y658399D01*
X500859Y658397D01*
X500841Y658399D01*
X500659Y658378D01*
X500476Y658359D01*
X500459Y658354D01*
X500442Y658352D01*
X500267Y658295D01*
X500091Y658241D01*
X500076Y658233D01*
X500059Y658227D01*
X499899Y658137D01*
X499737Y658049D01*
X499724Y658038D01*
X499708Y658029D01*
X499569Y657909D01*
X499428Y657792D01*
X499417Y657778D01*
X499403Y657766D01*
X499291Y657621D01*
X499176Y657478D01*
X499168Y657462D01*
X499157Y657448D01*
X499075Y657283D01*
X498990Y657121D01*
X498985Y657104D01*
X498977Y657088D01*
X498930Y656909D01*
X498879Y656734D01*
X498877Y656716D01*
X498873Y656699D01*
X498846Y656368D01*
X498846Y643309D01*
X485542Y643309D01*
X485524Y643307D01*
X485507Y643309D01*
X485324Y643287D01*
X485141Y643269D01*
X485124Y643264D01*
X485107Y643262D01*
X484932Y643205D01*
X484757Y643151D01*
X484741Y643143D01*
X484724Y643137D01*
X484564Y643047D01*
X484403Y642959D01*
X484389Y642948D01*
X484373Y642939D01*
X484234Y642819D01*
X484093Y642702D01*
X484082Y642688D01*
X484069Y642676D01*
X483956Y642531D01*
X483841Y642388D01*
X483833Y642372D01*
X483822Y642358D01*
X483740Y642193D01*
X483655Y642031D01*
X483651Y642014D01*
X483643Y641997D01*
X483595Y641819D01*
X483544Y641644D01*
X483543Y641626D01*
X483538Y641609D01*
X483511Y641278D01*
X483511Y639245D01*
X483509Y639245D01*
X483509Y641278D01*
X483507Y641296D01*
X483509Y641313D01*
X483487Y641496D01*
X483469Y641679D01*
X483464Y641696D01*
X483462Y641713D01*
X483405Y641888D01*
X483351Y642063D01*
X483343Y642079D01*
X483337Y642096D01*
X483247Y642256D01*
X483159Y642417D01*
X483148Y642431D01*
X483139Y642447D01*
X483019Y642586D01*
X482902Y642727D01*
X482888Y642738D01*
X482876Y642751D01*
X482731Y642864D01*
X482588Y642979D01*
X482572Y642987D01*
X482558Y642998D01*
X482393Y643080D01*
X482231Y643165D01*
X482213Y643169D01*
X482197Y643177D01*
X482019Y643225D01*
X481844Y643276D01*
X481826Y643277D01*
X481809Y643282D01*
X481478Y643309D01*
X468174Y643309D01*
X468174Y656368D01*
X468172Y656386D01*
X468174Y656404D01*
X468153Y656586D01*
X468134Y656769D01*
X468129Y656786D01*
X468127Y656803D01*
X468070Y656978D01*
X468016Y657154D01*
X468008Y657169D01*
X468002Y657186D01*
X467912Y657346D01*
X467824Y657508D01*
X467813Y657521D01*
X467804Y657537D01*
X467684Y657676D01*
X467567Y657817D01*
X467553Y657828D01*
X467541Y657842D01*
X467396Y657954D01*
X467253Y658069D01*
X467237Y658077D01*
X467223Y658088D01*
X467058Y658170D01*
X466896Y658255D01*
X466879Y658260D01*
X466863Y658268D01*
X466684Y658315D01*
X466509Y658366D01*
X466491Y658368D01*
X466474Y658372D01*
X466143Y658399D01*
X430985Y658399D01*
X430967Y658397D01*
X430949Y658399D01*
X430767Y658378D01*
X430584Y658359D01*
X430567Y658354D01*
X430550Y658352D01*
X430375Y658295D01*
X430199Y658241D01*
X430184Y658233D01*
X430167Y658227D01*
X430007Y658137D01*
X429845Y658049D01*
X429832Y658038D01*
X429816Y658029D01*
X429677Y657909D01*
X429536Y657792D01*
X429525Y657778D01*
X429511Y657766D01*
X429399Y657621D01*
X429284Y657478D01*
X429276Y657462D01*
X429265Y657448D01*
X429183Y657283D01*
X429098Y657121D01*
X429093Y657104D01*
X429085Y657088D01*
X429038Y656909D01*
X428987Y656734D01*
X428985Y656716D01*
X428981Y656699D01*
X428954Y656368D01*
X428954Y643309D01*
X415650Y643309D01*
X415632Y643307D01*
X415615Y643309D01*
X415432Y643287D01*
X415249Y643269D01*
X415232Y643264D01*
X415215Y643262D01*
X415040Y643205D01*
X414865Y643151D01*
X414849Y643143D01*
X414832Y643137D01*
X414672Y643047D01*
X414511Y642959D01*
X414497Y642948D01*
X414481Y642939D01*
X414342Y642819D01*
X414201Y642702D01*
X414190Y642688D01*
X414177Y642676D01*
X414064Y642531D01*
X413949Y642388D01*
X413941Y642372D01*
X413930Y642358D01*
X413848Y642193D01*
X413763Y642031D01*
X413759Y642014D01*
X413751Y641997D01*
X413703Y641819D01*
X413652Y641644D01*
X413651Y641626D01*
X413646Y641609D01*
X413619Y641278D01*
X413619Y639245D01*
X413617Y639245D01*
X413617Y641278D01*
X413615Y641296D01*
X413617Y641313D01*
X413595Y641496D01*
X413577Y641679D01*
X413572Y641696D01*
X413570Y641713D01*
X413513Y641888D01*
X413459Y642063D01*
X413451Y642079D01*
X413445Y642096D01*
X413355Y642256D01*
X413267Y642417D01*
X413256Y642431D01*
X413247Y642447D01*
X413127Y642586D01*
X413010Y642727D01*
X412996Y642738D01*
X412984Y642751D01*
X412839Y642864D01*
X412696Y642979D01*
X412680Y642987D01*
X412666Y642998D01*
X412501Y643080D01*
X412339Y643165D01*
X412321Y643169D01*
X412305Y643177D01*
X412127Y643225D01*
X411952Y643276D01*
X411934Y643277D01*
X411917Y643282D01*
X411586Y643309D01*
X398282Y643309D01*
X398282Y656368D01*
X398280Y656386D01*
X398282Y656404D01*
X398261Y656586D01*
X398242Y656769D01*
X398237Y656786D01*
X398235Y656803D01*
X398178Y656978D01*
X398124Y657154D01*
X398116Y657169D01*
X398110Y657186D01*
X398020Y657346D01*
X397932Y657508D01*
X397921Y657521D01*
X397912Y657537D01*
X397792Y657676D01*
X397675Y657817D01*
X397661Y657828D01*
X397649Y657842D01*
X397504Y657954D01*
X397361Y658069D01*
X397345Y658077D01*
X397331Y658088D01*
X397166Y658170D01*
X397004Y658255D01*
X396987Y658260D01*
X396971Y658268D01*
X396792Y658315D01*
X396617Y658366D01*
X396599Y658368D01*
X396582Y658372D01*
X396251Y658399D01*
X394970Y658399D01*
X394952Y658397D01*
X394934Y658399D01*
X394752Y658378D01*
X394569Y658359D01*
X394552Y658354D01*
X394535Y658352D01*
X394360Y658295D01*
X394184Y658241D01*
X394169Y658233D01*
X394152Y658227D01*
X393992Y658137D01*
X393830Y658049D01*
X393817Y658038D01*
X393801Y658029D01*
X393662Y657909D01*
X393521Y657792D01*
X393510Y657778D01*
X393497Y657766D01*
X393384Y657621D01*
X393269Y657478D01*
X393261Y657462D01*
X393250Y657448D01*
X393168Y657283D01*
X393083Y657121D01*
X393078Y657104D01*
X393070Y657088D01*
X393023Y656909D01*
X392972Y656734D01*
X392970Y656716D01*
X392966Y656699D01*
X392939Y656368D01*
X392939Y571500D01*
X392941Y571482D01*
X392939Y571464D01*
X392960Y571282D01*
X392979Y571099D01*
X392984Y571082D01*
X392986Y571065D01*
X393043Y570890D01*
X393097Y570714D01*
X393105Y570699D01*
X393111Y570682D01*
X393201Y570522D01*
X393289Y570360D01*
X393300Y570347D01*
X393309Y570331D01*
X393429Y570192D01*
X393546Y570051D01*
X393560Y570040D01*
X393572Y570027D01*
X393717Y569914D01*
X393860Y569799D01*
X393876Y569791D01*
X393890Y569780D01*
X394055Y569698D01*
X394217Y569613D01*
X394234Y569608D01*
X394251Y569600D01*
X394429Y569553D01*
X394604Y569502D01*
X394622Y569500D01*
X394639Y569496D01*
X394970Y569469D01*
X504190Y569469D01*
X504208Y569471D01*
G37*
G36*
X327090Y278460D02*
X327090Y278460D01*
X327156Y278462D01*
X327199Y278480D01*
X327246Y278488D01*
X327303Y278521D01*
X327363Y278546D01*
X327398Y278578D01*
X327439Y278602D01*
X327481Y278653D01*
X327529Y278698D01*
X327551Y278740D01*
X327580Y278776D01*
X327601Y278839D01*
X327632Y278897D01*
X327640Y278952D01*
X327652Y278989D01*
X327651Y279028D01*
X327659Y279083D01*
X327659Y324803D01*
X327648Y324867D01*
X327646Y324933D01*
X327628Y324977D01*
X327620Y325023D01*
X327586Y325080D01*
X327561Y325141D01*
X327530Y325176D01*
X327505Y325217D01*
X327454Y325258D01*
X327410Y325307D01*
X327368Y325328D01*
X327331Y325358D01*
X327269Y325379D01*
X327210Y325409D01*
X327156Y325417D01*
X327119Y325430D01*
X327079Y325429D01*
X327025Y325437D01*
X282575Y325437D01*
X282510Y325425D01*
X282444Y325423D01*
X282401Y325405D01*
X282354Y325397D01*
X282297Y325364D01*
X282237Y325339D01*
X282202Y325307D01*
X282161Y325283D01*
X282120Y325232D01*
X282071Y325187D01*
X282049Y325145D01*
X282020Y325109D01*
X281999Y325047D01*
X281968Y324988D01*
X281960Y324933D01*
X281948Y324896D01*
X281949Y324857D01*
X281941Y324803D01*
X281941Y279083D01*
X281952Y279018D01*
X281954Y278952D01*
X281972Y278908D01*
X281980Y278862D01*
X282014Y278805D01*
X282039Y278744D01*
X282070Y278709D01*
X282095Y278668D01*
X282146Y278627D01*
X282190Y278578D01*
X282232Y278557D01*
X282269Y278527D01*
X282331Y278506D01*
X282390Y278476D01*
X282444Y278468D01*
X282481Y278455D01*
X282521Y278456D01*
X282575Y278448D01*
X327025Y278448D01*
X327090Y278460D01*
G37*
G36*
X358048Y4960D02*
X358048Y4960D01*
X358096Y4959D01*
X358843Y5058D01*
X358891Y5073D01*
X358981Y5092D01*
X359688Y5354D01*
X359731Y5380D01*
X359814Y5418D01*
X360445Y5831D01*
X360482Y5866D01*
X360554Y5922D01*
X361077Y6465D01*
X361105Y6507D01*
X361164Y6578D01*
X361553Y7223D01*
X361571Y7270D01*
X361612Y7352D01*
X361847Y8068D01*
X361854Y8118D01*
X361876Y8207D01*
X361947Y8958D01*
X361944Y8984D01*
X361949Y9017D01*
X361949Y30481D01*
X366649Y30481D01*
X366714Y30492D01*
X366780Y30494D01*
X366823Y30512D01*
X366870Y30520D01*
X366927Y30554D01*
X366987Y30579D01*
X367022Y30610D01*
X367063Y30635D01*
X367105Y30686D01*
X367153Y30730D01*
X367175Y30772D01*
X367204Y30809D01*
X367225Y30871D01*
X367256Y30930D01*
X367264Y30984D01*
X367276Y31021D01*
X367275Y31061D01*
X367283Y31115D01*
X367283Y36767D01*
X367272Y36831D01*
X367270Y36897D01*
X367252Y36941D01*
X367244Y36987D01*
X367210Y37044D01*
X367185Y37105D01*
X367154Y37140D01*
X367129Y37181D01*
X367078Y37222D01*
X367034Y37271D01*
X366992Y37292D01*
X366955Y37322D01*
X366893Y37343D01*
X366834Y37373D01*
X366780Y37381D01*
X366743Y37394D01*
X366703Y37393D01*
X366649Y37401D01*
X349631Y37401D01*
X349566Y37389D01*
X349500Y37387D01*
X349457Y37369D01*
X349410Y37361D01*
X349353Y37328D01*
X349293Y37303D01*
X349258Y37271D01*
X349217Y37247D01*
X349176Y37196D01*
X349127Y37151D01*
X349105Y37109D01*
X349076Y37073D01*
X349055Y37011D01*
X349024Y36952D01*
X349016Y36897D01*
X349004Y36860D01*
X349005Y36821D01*
X348997Y36767D01*
X348997Y8636D01*
X349005Y8590D01*
X349008Y8517D01*
X349147Y7788D01*
X349166Y7741D01*
X349190Y7653D01*
X349487Y6974D01*
X349515Y6932D01*
X349559Y6851D01*
X350000Y6255D01*
X350037Y6220D01*
X350097Y6151D01*
X350660Y5668D01*
X350704Y5643D01*
X350778Y5589D01*
X351434Y5243D01*
X351482Y5228D01*
X351566Y5192D01*
X352283Y5001D01*
X352333Y4997D01*
X352423Y4980D01*
X353165Y4954D01*
X353175Y4956D01*
X353187Y4954D01*
X358013Y4954D01*
X358048Y4960D01*
G37*
G36*
X303413Y4956D02*
X303413Y4956D01*
X303425Y4954D01*
X304167Y4980D01*
X304216Y4991D01*
X304307Y5001D01*
X305024Y5192D01*
X305070Y5213D01*
X305156Y5243D01*
X305812Y5589D01*
X305852Y5620D01*
X305930Y5668D01*
X306493Y6151D01*
X306525Y6190D01*
X306590Y6255D01*
X307031Y6851D01*
X307054Y6896D01*
X307103Y6974D01*
X307401Y7653D01*
X307412Y7702D01*
X307443Y7788D01*
X307582Y8517D01*
X307583Y8564D01*
X307593Y8636D01*
X307593Y36767D01*
X307582Y36831D01*
X307580Y36897D01*
X307562Y36941D01*
X307554Y36987D01*
X307520Y37044D01*
X307495Y37105D01*
X307464Y37140D01*
X307439Y37181D01*
X307388Y37222D01*
X307344Y37271D01*
X307302Y37292D01*
X307265Y37322D01*
X307203Y37343D01*
X307144Y37373D01*
X307090Y37381D01*
X307053Y37394D01*
X307013Y37393D01*
X306959Y37401D01*
X289941Y37401D01*
X289876Y37389D01*
X289810Y37387D01*
X289767Y37369D01*
X289720Y37361D01*
X289663Y37328D01*
X289603Y37303D01*
X289568Y37271D01*
X289527Y37247D01*
X289486Y37196D01*
X289437Y37151D01*
X289415Y37109D01*
X289386Y37073D01*
X289365Y37011D01*
X289334Y36952D01*
X289326Y36897D01*
X289314Y36860D01*
X289315Y36821D01*
X289307Y36767D01*
X289307Y31115D01*
X289318Y31050D01*
X289320Y30984D01*
X289338Y30941D01*
X289346Y30894D01*
X289380Y30837D01*
X289405Y30777D01*
X289436Y30742D01*
X289461Y30701D01*
X289512Y30660D01*
X289556Y30611D01*
X289598Y30589D01*
X289635Y30560D01*
X289697Y30539D01*
X289756Y30508D01*
X289810Y30500D01*
X289847Y30488D01*
X289887Y30489D01*
X289941Y30481D01*
X294641Y30481D01*
X294641Y9017D01*
X294645Y8991D01*
X294644Y8958D01*
X294714Y8207D01*
X294727Y8159D01*
X294743Y8068D01*
X294978Y7352D01*
X295002Y7308D01*
X295037Y7223D01*
X295426Y6578D01*
X295460Y6539D01*
X295513Y6465D01*
X296036Y5922D01*
X296077Y5892D01*
X296145Y5831D01*
X296776Y5418D01*
X296822Y5399D01*
X296902Y5354D01*
X297609Y5092D01*
X297659Y5083D01*
X297747Y5058D01*
X298494Y4959D01*
X298530Y4961D01*
X298577Y4954D01*
X303403Y4954D01*
X303413Y4956D01*
G37*
G36*
X366788Y40027D02*
X366788Y40027D01*
X366854Y40029D01*
X366898Y40047D01*
X366944Y40055D01*
X367001Y40089D01*
X367062Y40114D01*
X367097Y40145D01*
X367138Y40170D01*
X367179Y40221D01*
X367228Y40265D01*
X367249Y40307D01*
X367279Y40344D01*
X367300Y40406D01*
X367330Y40465D01*
X367338Y40519D01*
X367351Y40556D01*
X367350Y40596D01*
X367358Y40650D01*
X367358Y53980D01*
X367346Y54045D01*
X367344Y54111D01*
X367326Y54154D01*
X367318Y54201D01*
X367285Y54258D01*
X367260Y54318D01*
X367228Y54353D01*
X367204Y54394D01*
X367153Y54436D01*
X367108Y54484D01*
X367066Y54506D01*
X367030Y54535D01*
X366968Y54556D01*
X366909Y54587D01*
X366854Y54595D01*
X366817Y54607D01*
X366778Y54606D01*
X366724Y54614D01*
X347930Y54614D01*
X347865Y54603D01*
X347799Y54601D01*
X347756Y54583D01*
X347709Y54575D01*
X347652Y54541D01*
X347592Y54516D01*
X347557Y54485D01*
X347516Y54460D01*
X347474Y54409D01*
X347426Y54365D01*
X347404Y54323D01*
X347375Y54286D01*
X347354Y54224D01*
X347323Y54165D01*
X347315Y54111D01*
X347303Y54074D01*
X347303Y54064D01*
X347303Y54063D01*
X347304Y54033D01*
X347296Y53980D01*
X347296Y40650D01*
X347307Y40585D01*
X347309Y40519D01*
X347327Y40476D01*
X347335Y40429D01*
X347369Y40372D01*
X347394Y40312D01*
X347425Y40277D01*
X347450Y40236D01*
X347501Y40195D01*
X347545Y40146D01*
X347587Y40124D01*
X347624Y40095D01*
X347686Y40074D01*
X347745Y40043D01*
X347799Y40035D01*
X347836Y40023D01*
X347876Y40024D01*
X347930Y40016D01*
X366724Y40016D01*
X366788Y40027D01*
G37*
G36*
X308725Y40012D02*
X308725Y40012D01*
X308791Y40014D01*
X308834Y40032D01*
X308881Y40040D01*
X308938Y40074D01*
X308999Y40099D01*
X309033Y40130D01*
X309074Y40155D01*
X309116Y40206D01*
X309164Y40250D01*
X309186Y40292D01*
X309215Y40329D01*
X309237Y40391D01*
X309267Y40450D01*
X309275Y40504D01*
X309287Y40541D01*
X309286Y40581D01*
X309294Y40635D01*
X309294Y53965D01*
X309283Y54030D01*
X309281Y54096D01*
X309263Y54139D01*
X309255Y54186D01*
X309221Y54243D01*
X309196Y54303D01*
X309165Y54338D01*
X309141Y54379D01*
X309089Y54421D01*
X309045Y54469D01*
X309003Y54491D01*
X308966Y54520D01*
X308904Y54541D01*
X308845Y54572D01*
X308791Y54580D01*
X308754Y54592D01*
X308714Y54591D01*
X308660Y54599D01*
X289930Y54599D01*
X289865Y54588D01*
X289799Y54586D01*
X289756Y54568D01*
X289709Y54560D01*
X289652Y54526D01*
X289592Y54501D01*
X289557Y54470D01*
X289516Y54445D01*
X289475Y54394D01*
X289426Y54350D01*
X289404Y54308D01*
X289375Y54271D01*
X289354Y54209D01*
X289323Y54150D01*
X289315Y54096D01*
X289303Y54059D01*
X289303Y54049D01*
X289303Y54048D01*
X289304Y54018D01*
X289296Y53965D01*
X289296Y40635D01*
X289307Y40570D01*
X289309Y40504D01*
X289327Y40461D01*
X289335Y40414D01*
X289369Y40357D01*
X289394Y40297D01*
X289425Y40262D01*
X289450Y40221D01*
X289501Y40180D01*
X289545Y40131D01*
X289587Y40109D01*
X289624Y40080D01*
X289686Y40059D01*
X289745Y40028D01*
X289799Y40020D01*
X289836Y40008D01*
X289876Y40009D01*
X289930Y40001D01*
X308660Y40001D01*
X308725Y40012D01*
G37*
%LPC*%
G36*
X166009Y616290D02*
X166009Y616290D01*
X166009Y635183D01*
X177282Y635183D01*
X177282Y618028D01*
X177145Y617519D01*
X176882Y617062D01*
X176510Y616690D01*
X176053Y616427D01*
X175544Y616290D01*
X166009Y616290D01*
G37*
%LPD*%
%LPC*%
G36*
X417681Y616290D02*
X417681Y616290D01*
X417681Y635183D01*
X428954Y635183D01*
X428954Y618028D01*
X428817Y617519D01*
X428554Y617062D01*
X428182Y616690D01*
X427725Y616427D01*
X427216Y616290D01*
X417681Y616290D01*
G37*
%LPD*%
%LPC*%
G36*
X487573Y616290D02*
X487573Y616290D01*
X487573Y635183D01*
X498846Y635183D01*
X498846Y618028D01*
X498709Y617519D01*
X498446Y617062D01*
X498074Y616690D01*
X497617Y616427D01*
X497108Y616290D01*
X487573Y616290D01*
G37*
%LPD*%
%LPC*%
G36*
X96117Y616290D02*
X96117Y616290D01*
X96117Y635183D01*
X107390Y635183D01*
X107390Y618028D01*
X107253Y617519D01*
X106990Y617062D01*
X106618Y616690D01*
X106161Y616427D01*
X105652Y616290D01*
X96117Y616290D01*
G37*
%LPD*%
%LPC*%
G36*
X78456Y616290D02*
X78456Y616290D01*
X77947Y616427D01*
X77490Y616690D01*
X77118Y617062D01*
X76855Y617519D01*
X76718Y618028D01*
X76718Y635183D01*
X87991Y635183D01*
X87991Y616290D01*
X78456Y616290D01*
G37*
%LPD*%
%LPC*%
G36*
X400020Y616290D02*
X400020Y616290D01*
X399511Y616427D01*
X399054Y616690D01*
X398682Y617062D01*
X398419Y617519D01*
X398282Y618028D01*
X398282Y635183D01*
X409555Y635183D01*
X409555Y616290D01*
X400020Y616290D01*
G37*
%LPD*%
%LPC*%
G36*
X469912Y616290D02*
X469912Y616290D01*
X469403Y616427D01*
X468946Y616690D01*
X468574Y617062D01*
X468311Y617519D01*
X468174Y618028D01*
X468174Y635183D01*
X479447Y635183D01*
X479447Y616290D01*
X469912Y616290D01*
G37*
%LPD*%
%LPC*%
G36*
X148348Y616290D02*
X148348Y616290D01*
X147839Y616427D01*
X147382Y616690D01*
X147010Y617062D01*
X146747Y617519D01*
X146610Y618028D01*
X146610Y635183D01*
X157883Y635183D01*
X157883Y616290D01*
X148348Y616290D01*
G37*
%LPD*%
%LPC*%
G36*
X90931Y548131D02*
X90931Y548131D01*
X90931Y551823D01*
X91773Y551475D01*
X92766Y550811D01*
X93611Y549966D01*
X94275Y548973D01*
X94623Y548131D01*
X90931Y548131D01*
G37*
%LPD*%
%LPC*%
G36*
X154431Y548131D02*
X154431Y548131D01*
X154431Y551823D01*
X155273Y551475D01*
X156266Y550811D01*
X157111Y549966D01*
X157775Y548973D01*
X158123Y548131D01*
X154431Y548131D01*
G37*
%LPD*%
%LPC*%
G36*
X83177Y548131D02*
X83177Y548131D01*
X83525Y548973D01*
X84189Y549966D01*
X85034Y550811D01*
X86027Y551475D01*
X86869Y551823D01*
X86869Y548131D01*
X83177Y548131D01*
G37*
%LPD*%
%LPC*%
G36*
X146677Y548131D02*
X146677Y548131D01*
X147025Y548973D01*
X147689Y549966D01*
X148534Y550811D01*
X149527Y551475D01*
X150369Y551823D01*
X150369Y548131D01*
X146677Y548131D01*
G37*
%LPD*%
%LPC*%
G36*
X154431Y544069D02*
X154431Y544069D01*
X158123Y544069D01*
X157775Y543227D01*
X157111Y542234D01*
X156266Y541389D01*
X155273Y540725D01*
X154431Y540377D01*
X154431Y544069D01*
G37*
%LPD*%
%LPC*%
G36*
X90931Y544069D02*
X90931Y544069D01*
X94623Y544069D01*
X94275Y543227D01*
X93611Y542234D01*
X92766Y541389D01*
X91773Y540725D01*
X90931Y540377D01*
X90931Y544069D01*
G37*
%LPD*%
%LPC*%
G36*
X149527Y540725D02*
X149527Y540725D01*
X148534Y541389D01*
X147689Y542234D01*
X147025Y543227D01*
X146677Y544069D01*
X150369Y544069D01*
X150369Y540377D01*
X149527Y540725D01*
G37*
%LPD*%
%LPC*%
G36*
X86027Y540725D02*
X86027Y540725D01*
X85034Y541389D01*
X84189Y542234D01*
X83525Y543227D01*
X83177Y544069D01*
X86869Y544069D01*
X86869Y540377D01*
X86027Y540725D01*
G37*
%LPD*%
%LPC*%
G36*
X497331Y586231D02*
X497331Y586231D01*
X497331Y588252D01*
X497441Y588206D01*
X498182Y587711D01*
X498811Y587082D01*
X499306Y586341D01*
X499352Y586231D01*
X497331Y586231D01*
G37*
%LPD*%
%LPC*%
G36*
X408431Y586231D02*
X408431Y586231D01*
X408431Y588252D01*
X408541Y588206D01*
X409282Y587711D01*
X409911Y587082D01*
X410406Y586341D01*
X410452Y586231D01*
X408431Y586231D01*
G37*
%LPD*%
%LPC*%
G36*
X491248Y586231D02*
X491248Y586231D01*
X491294Y586341D01*
X491789Y587082D01*
X492418Y587711D01*
X493159Y588206D01*
X493269Y588252D01*
X493269Y586231D01*
X491248Y586231D01*
G37*
%LPD*%
%LPC*%
G36*
X402348Y586231D02*
X402348Y586231D01*
X402394Y586341D01*
X402889Y587082D01*
X403518Y587711D01*
X404259Y588206D01*
X404369Y588252D01*
X404369Y586231D01*
X402348Y586231D01*
G37*
%LPD*%
%LPC*%
G36*
X408431Y582169D02*
X408431Y582169D01*
X410452Y582169D01*
X410406Y582059D01*
X409911Y581318D01*
X409282Y580689D01*
X408541Y580194D01*
X408431Y580148D01*
X408431Y582169D01*
G37*
%LPD*%
%LPC*%
G36*
X497331Y582169D02*
X497331Y582169D01*
X499352Y582169D01*
X499306Y582059D01*
X498811Y581318D01*
X498182Y580689D01*
X497441Y580194D01*
X497331Y580148D01*
X497331Y582169D01*
G37*
%LPD*%
%LPC*%
G36*
X493159Y580194D02*
X493159Y580194D01*
X492418Y580689D01*
X491789Y581318D01*
X491294Y582059D01*
X491248Y582169D01*
X493269Y582169D01*
X493269Y580148D01*
X493159Y580194D01*
G37*
%LPD*%
%LPC*%
G36*
X404259Y580194D02*
X404259Y580194D01*
X403518Y580689D01*
X402889Y581318D01*
X402394Y582059D01*
X402348Y582169D01*
X404369Y582169D01*
X404369Y580148D01*
X404259Y580194D01*
G37*
%LPD*%
D10*
X85916Y14732D02*
X85916Y23375D01*
X81594Y23375D01*
X80153Y21935D01*
X80153Y20494D01*
X81594Y19054D01*
X80153Y17613D01*
X80153Y16173D01*
X81594Y14732D01*
X85916Y14732D01*
X85916Y19054D02*
X81594Y19054D01*
X75120Y23375D02*
X72239Y23375D01*
X75120Y23375D02*
X76560Y21935D01*
X76560Y16173D01*
X75120Y14732D01*
X72239Y14732D01*
X70798Y16173D01*
X70798Y21935D01*
X72239Y23375D01*
X64324Y23375D02*
X64324Y14732D01*
X67205Y23375D02*
X61443Y23375D01*
X54969Y23375D02*
X54969Y14732D01*
X57850Y23375D02*
X52088Y23375D01*
X47054Y23375D02*
X44173Y23375D01*
X47054Y23375D02*
X48495Y21935D01*
X48495Y16173D01*
X47054Y14732D01*
X44173Y14732D01*
X42733Y16173D01*
X42733Y21935D01*
X44173Y23375D01*
X39140Y23375D02*
X39140Y14732D01*
X36258Y20494D02*
X39140Y23375D01*
X36258Y20494D02*
X33377Y23375D01*
X33377Y14732D01*
D11*
X63500Y360680D03*
X38100Y360680D03*
D12*
X38100Y335280D03*
X63500Y335280D03*
D11*
X495300Y187008D03*
X520700Y187008D03*
D13*
X162712Y165011D03*
X412699Y165011D03*
D14*
X335001Y508318D03*
D15*
X299999Y508318D03*
D14*
X436601Y508318D03*
D15*
X401599Y508318D03*
D12*
X546100Y360998D03*
X520700Y360998D03*
D11*
X495300Y335598D03*
D12*
X495300Y360998D03*
D11*
X520700Y335598D03*
X546100Y335598D03*
D16*
X300939Y16789D03*
X355651Y16789D03*
D17*
X304038Y47473D03*
X352552Y47473D03*
D18*
X43815Y435293D03*
X120015Y435293D03*
X455295Y435293D03*
X531495Y435293D03*
X531495Y261303D03*
X455295Y261303D03*
X120015Y261303D03*
X43815Y261303D03*
X43815Y87313D03*
X120015Y87313D03*
X455295Y87313D03*
X531495Y87313D03*
D19*
X92054Y639246D03*
X161946Y639246D03*
X413618Y639246D03*
X483510Y639246D03*
D12*
X546100Y187008D03*
D11*
X495300Y161608D03*
D20*
X233998Y565150D03*
X284798Y565150D03*
X310198Y565150D03*
X335598Y565150D03*
X360998Y565150D03*
X360998Y615950D03*
X335598Y615950D03*
X310198Y615950D03*
X284798Y615950D03*
X233998Y615950D03*
D21*
X228600Y642620D03*
X254000Y642620D03*
X279400Y642620D03*
X355600Y642620D03*
X330200Y642620D03*
X304800Y642620D03*
X552450Y635000D03*
X527050Y635000D03*
X552450Y609600D03*
X527050Y609600D03*
D11*
X520700Y161608D03*
D21*
X546100Y161608D03*
D22*
X205423Y255270D02*
X187960Y272733D01*
X158115Y272733D01*
D23*
X158115Y272733D03*
X377825Y451168D03*
D24*
X246698Y505778D03*
D22*
X205423Y255270D02*
X205423Y162878D01*
X377825Y527685D02*
X378143Y528003D01*
X376555Y529590D01*
X357188Y529590D01*
X377825Y527685D02*
X377825Y451168D01*
X402908Y455930D02*
X402908Y417195D01*
X420688Y399415D01*
X379095Y312738D02*
X379095Y219556D01*
D24*
X379095Y219556D03*
D22*
X402908Y455930D02*
X419418Y472440D01*
X420688Y399415D02*
X420688Y354330D01*
X379095Y312738D01*
D24*
X351155Y190527D03*
X351155Y151448D03*
D23*
X314960Y123190D03*
D22*
X216853Y151448D02*
X205423Y162878D01*
X216853Y151448D02*
X319723Y151448D01*
X351155Y151448D01*
X319512Y127742D02*
X314960Y123190D01*
X319512Y127742D02*
X319512Y136496D01*
X319723Y151448D01*
D25*
X357188Y529590D03*
D22*
X376555Y529590D02*
X419418Y529590D01*
X419418Y472440D01*
X419418Y529590D02*
X472758Y529590D01*
X493395Y550228D01*
D25*
X493395Y550228D03*
D22*
X357188Y529590D02*
X270510Y529590D01*
X246698Y505778D01*
X351155Y190527D02*
X351155Y151448D01*
D25*
X400368Y121603D03*
D26*
X325652Y121603D01*
X319512Y127742D01*
D23*
X363855Y429578D03*
X414655Y430213D03*
D27*
X307340Y347663D03*
D26*
X304165Y350838D01*
X304165Y378778D01*
D23*
X304165Y378778D03*
D26*
X304165Y385857D01*
X304165Y378778D02*
X304165Y378778D01*
X304165Y385857D01*
X303468Y385857D01*
X303019Y385768D01*
X303593Y387155D01*
X303593Y390085D01*
X302472Y392793D01*
X300400Y394865D01*
X297693Y395986D01*
X295973Y395986D01*
X295973Y434464D01*
X296122Y434612D01*
X297243Y437320D01*
X297243Y440250D01*
X296122Y442958D01*
X294050Y445030D01*
X291343Y446151D01*
X288412Y446151D01*
X285705Y445030D01*
X283633Y442958D01*
X282512Y440250D01*
X282512Y437320D01*
X283633Y434612D01*
X283782Y434464D01*
X283782Y368473D01*
X281577Y367560D01*
X280416Y366398D01*
X280416Y380806D01*
X280565Y380955D01*
X281686Y383662D01*
X281686Y386593D01*
X280565Y389300D01*
X278493Y391372D01*
X275785Y392493D01*
X272855Y392493D01*
X270147Y391372D01*
X268075Y389300D01*
X266954Y386593D01*
X266954Y383662D01*
X268075Y380955D01*
X268224Y380806D01*
X268224Y367333D01*
X264175Y363283D01*
X264036Y363283D01*
X263888Y363432D01*
X261180Y364553D01*
X260731Y364553D01*
X260731Y399767D01*
X261273Y399542D01*
X264507Y399542D01*
X267494Y400779D01*
X269781Y403066D01*
X271018Y406053D01*
X271018Y409287D01*
X269781Y412274D01*
X268986Y413069D01*
X268986Y414089D01*
X269813Y413925D01*
X270510Y413925D01*
X270510Y421005D01*
X270510Y421005D01*
X270510Y413925D01*
X271207Y413925D01*
X272575Y414197D01*
X273864Y414731D01*
X275023Y415506D01*
X276009Y416492D01*
X276784Y417651D01*
X277318Y418940D01*
X277590Y420308D01*
X277590Y421005D01*
X270510Y421005D01*
X270510Y421005D01*
X277590Y421005D01*
X277590Y421702D01*
X277318Y423070D01*
X276784Y424359D01*
X276009Y425518D01*
X275023Y426504D01*
X273864Y427279D01*
X272575Y427813D01*
X271207Y428085D01*
X270510Y428085D01*
X270510Y421005D01*
X270510Y421005D01*
X270510Y428085D01*
X269813Y428085D01*
X268986Y427921D01*
X268986Y445785D01*
X274623Y451422D01*
X307656Y451422D01*
X308451Y450627D01*
X311438Y449390D01*
X314672Y449390D01*
X317659Y450627D01*
X319946Y452913D01*
X320657Y454630D01*
X320929Y454357D01*
X320929Y438525D01*
X321857Y436284D01*
X323572Y434570D01*
X324422Y433720D01*
X324422Y351530D01*
X325350Y349289D01*
X326962Y347677D01*
X326962Y347467D01*
X328083Y344760D01*
X330155Y342688D01*
X332862Y341567D01*
X335793Y341567D01*
X337089Y342104D01*
X337775Y341418D01*
X340482Y340297D01*
X343413Y340297D01*
X343616Y340381D01*
X343005Y339770D01*
X341884Y337063D01*
X341884Y334132D01*
X342855Y331788D01*
X341884Y329443D01*
X341884Y326512D01*
X343005Y323805D01*
X345077Y321733D01*
X346979Y320945D01*
X363601Y304575D01*
X363601Y293706D01*
X361193Y294703D01*
X358262Y294703D01*
X355555Y293582D01*
X353483Y291510D01*
X352362Y288803D01*
X352362Y285872D01*
X353124Y284033D01*
X353124Y261139D01*
X352101Y260935D01*
X350909Y260441D01*
X349836Y259724D01*
X348923Y258812D01*
X348206Y257739D01*
X347712Y256546D01*
X347461Y255280D01*
X347461Y254635D01*
X353124Y254635D01*
X353124Y254635D01*
X347461Y254635D01*
X347461Y253990D01*
X347712Y252724D01*
X348206Y251531D01*
X348923Y250458D01*
X349836Y249546D01*
X350909Y248829D01*
X352101Y248335D01*
X353124Y248131D01*
X353124Y234383D01*
X332127Y255380D01*
X331365Y257220D01*
X329293Y259292D01*
X326585Y260413D01*
X323655Y260413D01*
X321310Y259442D01*
X319786Y260073D01*
X319786Y260863D01*
X319024Y262702D01*
X319024Y273368D01*
X329392Y273368D01*
X332740Y276715D01*
X332740Y293434D01*
X351834Y293434D01*
X354261Y294439D01*
X355148Y295326D01*
X357059Y296118D01*
X359202Y298261D01*
X360362Y301062D01*
X360362Y304093D01*
X359202Y306894D01*
X357059Y309037D01*
X354258Y310197D01*
X351227Y310197D01*
X348426Y309037D01*
X346283Y306894D01*
X346178Y306641D01*
X332740Y306641D01*
X332740Y327170D01*
X329392Y330517D01*
X319024Y330517D01*
X319024Y341944D01*
X320570Y343490D01*
X321691Y346197D01*
X321691Y349128D01*
X320570Y351835D01*
X318498Y353907D01*
X315790Y355028D01*
X312860Y355028D01*
X310152Y353907D01*
X309749Y353503D01*
X309183Y353738D01*
X307962Y353980D01*
X307340Y353980D01*
X307340Y350048D01*
X307340Y350047D01*
X307340Y353980D01*
X306718Y353980D01*
X305497Y353738D01*
X304347Y353261D01*
X303313Y352570D01*
X302432Y351690D01*
X301741Y350655D01*
X301265Y349505D01*
X301022Y348285D01*
X301022Y347663D01*
X306061Y347663D01*
X306061Y347662D01*
X301022Y347662D01*
X301022Y347040D01*
X301265Y345820D01*
X301741Y344670D01*
X302432Y343635D01*
X303313Y342755D01*
X304347Y342064D01*
X305497Y341587D01*
X305816Y341524D01*
X305816Y330517D01*
X280208Y330517D01*
X276860Y327170D01*
X276860Y282707D01*
X276665Y282511D01*
X265560Y282511D01*
X265101Y282702D01*
X265493Y283650D01*
X265493Y286580D01*
X264372Y289288D01*
X262300Y291360D01*
X259593Y292481D01*
X258989Y292481D01*
X258340Y294050D01*
X258280Y294109D01*
X269518Y305347D01*
X269518Y305347D01*
X271233Y307062D01*
X272161Y309302D01*
X272161Y346647D01*
X286010Y346647D01*
X288251Y347575D01*
X299046Y358370D01*
X300760Y360084D01*
X301688Y362325D01*
X301688Y372140D01*
X302100Y371970D01*
X303468Y371698D01*
X304165Y371698D01*
X304165Y378777D01*
X304165Y378777D01*
X304165Y371698D01*
X304862Y371698D01*
X306230Y371970D01*
X307519Y372503D01*
X308678Y373278D01*
X309664Y374264D01*
X310439Y375424D01*
X310973Y376712D01*
X311245Y378080D01*
X311245Y378777D01*
X304165Y378777D01*
X304165Y378778D01*
X311245Y378778D01*
X311245Y379475D01*
X310973Y380843D01*
X310439Y382131D01*
X309664Y383291D01*
X308678Y384277D01*
X307519Y385052D01*
X306230Y385585D01*
X304862Y385857D01*
X304165Y385857D01*
X355651Y16790D02*
X355651Y16790D01*
X355651Y35983D01*
X355651Y35983D01*
X355651Y16790D01*
X300939Y5080D02*
X300939Y5080D01*
X300939Y16789D01*
X300939Y16789D01*
X300939Y5080D01*
X570484Y316547D02*
X570484Y380048D01*
X570484Y316547D02*
X464439Y316547D01*
X464439Y380048D01*
X570484Y380048D01*
X559784Y360489D02*
X559784Y355329D01*
X559784Y360489D02*
X546608Y360489D01*
X546608Y361506D01*
X559784Y361506D01*
X559784Y366666D01*
X551768Y374681D01*
X546608Y374681D01*
X546608Y361506D01*
X545592Y361506D01*
X545592Y374681D01*
X540432Y374681D01*
X534141Y368391D01*
X526802Y375729D01*
X514598Y375729D01*
X508000Y369132D01*
X501402Y375729D01*
X489198Y375729D01*
X480568Y367100D01*
X480568Y354895D01*
X487166Y348298D01*
X480568Y341700D01*
X480568Y329495D01*
X489198Y320866D01*
X501402Y320866D01*
X508000Y327463D01*
X514598Y320866D01*
X526802Y320866D01*
X533400Y327463D01*
X539998Y320866D01*
X552202Y320866D01*
X560832Y329495D01*
X560832Y341700D01*
X553493Y349039D01*
X559784Y355329D01*
X551942Y635508D02*
X540734Y635508D01*
X551942Y635508D02*
X551942Y634492D01*
X527558Y634492D01*
X527558Y635508D01*
X540734Y635508D01*
X440884Y203455D02*
X441520Y202819D01*
X440884Y203455D02*
X441537Y204107D01*
X442658Y206815D01*
X442658Y209745D01*
X441537Y212453D01*
X439465Y214525D01*
X436758Y215646D01*
X433827Y215646D01*
X431988Y214884D01*
X427152Y214884D01*
X427196Y215103D01*
X427196Y215900D01*
X419100Y215900D01*
X419100Y215900D01*
X427196Y215900D01*
X427196Y216697D01*
X426885Y218262D01*
X426275Y219735D01*
X425389Y221061D01*
X424261Y222189D01*
X422935Y223075D01*
X421462Y223685D01*
X419897Y223996D01*
X419100Y223996D01*
X419100Y215900D01*
X419100Y215900D01*
X419100Y223996D01*
X418303Y223996D01*
X416738Y223685D01*
X415265Y223075D01*
X413939Y222189D01*
X412811Y221061D01*
X411925Y219735D01*
X411315Y218262D01*
X411004Y216697D01*
X411004Y215900D01*
X419100Y215900D01*
X419100Y215900D01*
X411004Y215900D01*
X411004Y215103D01*
X411048Y214884D01*
X387057Y214884D01*
X388239Y217737D01*
X388239Y308950D01*
X428439Y349150D01*
X429831Y352511D01*
X429831Y401234D01*
X428439Y404595D01*
X425867Y407167D01*
X412051Y420983D01*
X412051Y423628D01*
X412590Y423405D01*
X413958Y423133D01*
X414655Y423133D01*
X414655Y430212D01*
X414655Y430212D01*
X414655Y423133D01*
X415352Y423133D01*
X416720Y423405D01*
X418009Y423938D01*
X419168Y424713D01*
X420154Y425699D01*
X420929Y426859D01*
X421463Y428147D01*
X421735Y429515D01*
X421735Y430212D01*
X414655Y430212D01*
X414655Y430213D01*
X421735Y430213D01*
X421735Y430910D01*
X421463Y432278D01*
X420929Y433566D01*
X420154Y434726D01*
X419168Y435712D01*
X418009Y436487D01*
X416720Y437020D01*
X415796Y437204D01*
X418307Y438244D01*
X420593Y440531D01*
X421830Y443518D01*
X421830Y446752D01*
X420814Y449205D01*
X420814Y450127D01*
X430459Y459771D01*
X432912Y460787D01*
X435198Y463073D01*
X436435Y466061D01*
X436435Y469294D01*
X435198Y472282D01*
X432912Y474568D01*
X429924Y475805D01*
X428561Y475805D01*
X428561Y497244D01*
X429429Y496614D01*
X431348Y495636D01*
X433396Y494970D01*
X435524Y494634D01*
X436600Y494634D01*
X436600Y508317D01*
X436601Y508317D01*
X436601Y494634D01*
X437678Y494634D01*
X439805Y494970D01*
X441853Y495636D01*
X443773Y496614D01*
X445515Y497880D01*
X447038Y499403D01*
X448304Y501146D01*
X449282Y503065D01*
X449948Y505113D01*
X450285Y507241D01*
X450285Y508317D01*
X436601Y508317D01*
X436601Y508318D01*
X450285Y508318D01*
X450285Y509394D01*
X449948Y511522D01*
X449282Y513570D01*
X448304Y515489D01*
X447038Y517232D01*
X445515Y518755D01*
X443773Y520021D01*
X442939Y520446D01*
X474576Y520446D01*
X477937Y521838D01*
X501147Y545048D01*
X502539Y548409D01*
X502539Y552046D01*
X501147Y555407D01*
X498575Y557979D01*
X495214Y559371D01*
X491576Y559371D01*
X488215Y557979D01*
X468970Y538734D01*
X397073Y538734D01*
X397535Y538925D01*
X398861Y539811D01*
X399989Y540939D01*
X400875Y542265D01*
X401485Y543738D01*
X401796Y545303D01*
X401796Y546100D01*
X393700Y546100D01*
X393700Y546100D01*
X401796Y546100D01*
X401796Y546897D01*
X401485Y548462D01*
X400875Y549935D01*
X399989Y551261D01*
X398861Y552389D01*
X397535Y553275D01*
X396062Y553885D01*
X394497Y554196D01*
X393700Y554196D01*
X393700Y546100D01*
X393700Y546100D01*
X393700Y554196D01*
X392903Y554196D01*
X391338Y553885D01*
X389865Y553275D01*
X388539Y552389D01*
X387411Y551261D01*
X386525Y549935D01*
X385915Y548462D01*
X385604Y546897D01*
X385604Y546100D01*
X393700Y546100D01*
X393700Y546100D01*
X385604Y546100D01*
X385604Y545303D01*
X385915Y543738D01*
X386525Y542265D01*
X387411Y540939D01*
X388539Y539811D01*
X389865Y538925D01*
X390327Y538734D01*
X268691Y538734D01*
X265330Y537342D01*
X241518Y513529D01*
X241518Y513529D01*
X238946Y510957D01*
X237554Y507596D01*
X237554Y503959D01*
X238946Y500598D01*
X239729Y499814D01*
X237581Y498924D01*
X222150Y483493D01*
X219578Y480921D01*
X218186Y477560D01*
X218186Y438721D01*
X195013Y438721D01*
X200861Y444569D01*
X201866Y446996D01*
X201866Y513609D01*
X202862Y516013D01*
X202862Y519037D01*
X201705Y521830D01*
X199568Y523968D01*
X196774Y525125D01*
X193751Y525125D01*
X190957Y523968D01*
X188820Y521830D01*
X187663Y519037D01*
X187663Y516013D01*
X188659Y513609D01*
X188659Y451045D01*
X182685Y445071D01*
X176804Y445071D01*
X174377Y444066D01*
X167756Y437446D01*
X166751Y435019D01*
X166751Y424136D01*
X167756Y421709D01*
X169614Y419851D01*
X173424Y416041D01*
X175851Y415036D01*
X196655Y415036D01*
X198184Y413507D01*
X198184Y355239D01*
X199189Y352812D01*
X201047Y350954D01*
X205492Y346509D01*
X207919Y345504D01*
X212589Y345504D01*
X220871Y337221D01*
X195708Y337221D01*
X195422Y337508D01*
X192434Y338745D01*
X189201Y338745D01*
X186213Y337508D01*
X185927Y337221D01*
X101411Y337221D01*
X101124Y337508D01*
X98137Y338745D01*
X94903Y338745D01*
X91916Y337508D01*
X89629Y335222D01*
X88392Y332234D01*
X88392Y329001D01*
X89629Y326013D01*
X91916Y323727D01*
X94903Y322490D01*
X98137Y322490D01*
X101124Y323727D01*
X101411Y324014D01*
X140134Y324014D01*
X139159Y323039D01*
X137922Y320052D01*
X137922Y316818D01*
X139159Y313831D01*
X141446Y311544D01*
X144433Y310307D01*
X145113Y310307D01*
X144621Y310103D01*
X142334Y307817D01*
X141097Y304829D01*
X141097Y301596D01*
X142334Y298608D01*
X144621Y296322D01*
X147608Y295085D01*
X150842Y295085D01*
X153295Y296101D01*
X211830Y296101D01*
X214283Y295085D01*
X217517Y295085D01*
X220504Y296322D01*
X222791Y298608D01*
X224028Y301596D01*
X224028Y304160D01*
X233658Y294530D01*
X234420Y292690D01*
X234731Y292379D01*
X233934Y290455D01*
X233934Y287362D01*
X232888Y287795D01*
X231520Y288067D01*
X230823Y288067D01*
X230823Y280988D01*
X230822Y280988D01*
X230822Y288067D01*
X230125Y288067D01*
X228757Y287795D01*
X227469Y287262D01*
X226309Y286487D01*
X225323Y285501D01*
X224548Y284341D01*
X224015Y283053D01*
X223743Y281685D01*
X223743Y280988D01*
X230822Y280988D01*
X230822Y280987D01*
X223743Y280987D01*
X223743Y280290D01*
X224015Y278922D01*
X224548Y277634D01*
X225323Y276474D01*
X226309Y275488D01*
X227469Y274713D01*
X228757Y274180D01*
X230125Y273908D01*
X230822Y273908D01*
X230822Y280987D01*
X230823Y280987D01*
X230823Y273908D01*
X231520Y273908D01*
X232888Y274180D01*
X233934Y274613D01*
X233934Y268027D01*
X234862Y265787D01*
X236577Y264072D01*
X245047Y255602D01*
X245047Y251778D01*
X244539Y250551D01*
X244539Y205868D01*
X244252Y205582D01*
X243015Y202594D01*
X243015Y199361D01*
X244252Y196373D01*
X246538Y194087D01*
X249526Y192850D01*
X251841Y192850D01*
X251841Y176804D01*
X252846Y174377D01*
X266632Y160591D01*
X220640Y160591D01*
X214566Y166665D01*
X214566Y257089D01*
X213174Y260450D01*
X210602Y263022D01*
X210602Y263022D01*
X195712Y277912D01*
X193140Y280484D01*
X189779Y281876D01*
X156296Y281876D01*
X152935Y280484D01*
X150363Y277912D01*
X148971Y274551D01*
X148971Y270914D01*
X150363Y267553D01*
X152935Y264981D01*
X156296Y263589D01*
X184172Y263589D01*
X196279Y251482D01*
X196279Y161059D01*
X197671Y157698D01*
X209101Y146268D01*
X211673Y143696D01*
X215034Y142304D01*
X310449Y142304D01*
X310433Y141160D01*
X309533Y141160D01*
X306546Y139923D01*
X304259Y137637D01*
X303243Y135184D01*
X301311Y133251D01*
X300228Y130637D01*
X300228Y75971D01*
X297155Y72898D01*
X297151Y72898D01*
X294163Y71661D01*
X291877Y69374D01*
X290640Y66387D01*
X290640Y63153D01*
X291877Y60166D01*
X293411Y58632D01*
X289316Y58632D01*
X288129Y58314D01*
X287064Y57700D01*
X286195Y56831D01*
X285581Y55766D01*
X285263Y54579D01*
X285263Y47473D01*
X304038Y47473D01*
X304038Y47472D01*
X285263Y47472D01*
X285263Y40021D01*
X285581Y38834D01*
X285663Y38691D01*
X285592Y38568D01*
X285274Y37381D01*
X285274Y30501D01*
X285592Y29314D01*
X286206Y28249D01*
X287075Y27380D01*
X288140Y26766D01*
X289327Y26448D01*
X290608Y26448D01*
X290608Y16790D01*
X300939Y16790D01*
X300939Y16789D01*
X290608Y16789D01*
X290608Y9060D01*
X290594Y8314D01*
X290594Y8314D01*
X290873Y6756D01*
X290873Y6756D01*
X291451Y5283D01*
X291451Y5283D01*
X291582Y5080D01*
X5080Y5080D01*
X5080Y32068D01*
X126358Y32068D01*
X128692Y33034D01*
X130478Y34821D01*
X131445Y37154D01*
X131445Y69365D01*
X131885Y69548D01*
X137780Y75442D01*
X140970Y83144D01*
X140970Y91481D01*
X137780Y99183D01*
X131885Y105077D01*
X131445Y105260D01*
X131445Y137471D01*
X130478Y139804D01*
X128692Y141591D01*
X126358Y142557D01*
X52959Y142557D01*
X52959Y206058D01*
X126358Y206058D01*
X128692Y207024D01*
X130478Y208811D01*
X131445Y211144D01*
X131445Y243355D01*
X131885Y243538D01*
X137780Y249432D01*
X140970Y257134D01*
X140970Y265471D01*
X137780Y273173D01*
X131885Y279067D01*
X131445Y279250D01*
X131445Y311461D01*
X130478Y313794D01*
X128692Y315581D01*
X126358Y316547D01*
X5080Y316547D01*
X5080Y380048D01*
X126358Y380048D01*
X128692Y381014D01*
X130478Y382801D01*
X131445Y385134D01*
X131445Y417345D01*
X131885Y417528D01*
X137780Y423422D01*
X138909Y426149D01*
X151044Y426149D01*
X154405Y427541D01*
X170280Y443416D01*
X172852Y445988D01*
X174244Y449349D01*
X174244Y491830D01*
X180122Y497708D01*
X182694Y500280D01*
X184086Y503641D01*
X184086Y507279D01*
X182694Y510640D01*
X180122Y513212D01*
X176761Y514604D01*
X173124Y514604D01*
X169763Y513212D01*
X167191Y510640D01*
X157348Y500797D01*
X155956Y497436D01*
X155956Y483645D01*
X153266Y484759D01*
X149629Y484759D01*
X146268Y483367D01*
X143696Y480795D01*
X142304Y477434D01*
X142304Y473796D01*
X143696Y470435D01*
X144336Y469795D01*
X144336Y458089D01*
X143914Y458089D01*
X140553Y456697D01*
X137981Y454125D01*
X136589Y450764D01*
X136589Y448354D01*
X131885Y453057D01*
X131445Y453240D01*
X131445Y485451D01*
X130478Y487784D01*
X128692Y489571D01*
X126358Y490537D01*
X5080Y490537D01*
X5080Y655320D01*
X74687Y655320D01*
X74687Y641278D01*
X90022Y641278D01*
X90022Y637214D01*
X74687Y637214D01*
X74687Y617760D01*
X74962Y616735D01*
X75493Y615815D01*
X76243Y615065D01*
X77163Y614534D01*
X78188Y614259D01*
X90022Y614259D01*
X90022Y637214D01*
X94086Y637214D01*
X94086Y614259D01*
X105920Y614259D01*
X106945Y614534D01*
X107865Y615065D01*
X108615Y615815D01*
X109146Y616735D01*
X109421Y617760D01*
X109421Y637214D01*
X94086Y637214D01*
X94086Y641278D01*
X109421Y641278D01*
X109421Y655320D01*
X144579Y655320D01*
X144579Y641278D01*
X159914Y641278D01*
X159914Y637214D01*
X144579Y637214D01*
X144579Y617760D01*
X144854Y616735D01*
X145385Y615815D01*
X146135Y615065D01*
X147055Y614534D01*
X148080Y614259D01*
X159914Y614259D01*
X159914Y637214D01*
X163978Y637214D01*
X163978Y614259D01*
X175812Y614259D01*
X176837Y614534D01*
X177757Y615065D01*
X178507Y615815D01*
X179038Y616735D01*
X179313Y617760D01*
X179313Y637214D01*
X163978Y637214D01*
X163978Y641278D01*
X179313Y641278D01*
X179313Y655320D01*
X220466Y655320D01*
X213868Y648722D01*
X213868Y636518D01*
X222498Y627888D01*
X234702Y627888D01*
X241300Y634486D01*
X247898Y627888D01*
X260102Y627888D01*
X266700Y634486D01*
X273298Y627888D01*
X280745Y627888D01*
X277672Y626615D01*
X274133Y623076D01*
X272218Y618452D01*
X272218Y613448D01*
X274133Y608824D01*
X277672Y605285D01*
X282295Y603370D01*
X287300Y603370D01*
X291923Y605285D01*
X295462Y608824D01*
X297377Y613448D01*
X297377Y618452D01*
X295462Y623076D01*
X291923Y626615D01*
X287300Y628530D01*
X286144Y628530D01*
X292100Y634486D01*
X298698Y627888D01*
X306145Y627888D01*
X303072Y626615D01*
X299533Y623076D01*
X297618Y618452D01*
X297618Y613448D01*
X299533Y608824D01*
X303072Y605285D01*
X307695Y603370D01*
X312700Y603370D01*
X317323Y605285D01*
X320862Y608824D01*
X322777Y613448D01*
X322777Y618452D01*
X320862Y623076D01*
X317323Y626615D01*
X312700Y628530D01*
X311544Y628530D01*
X317500Y634486D01*
X324098Y627888D01*
X331545Y627888D01*
X328472Y626615D01*
X324933Y623076D01*
X323018Y618452D01*
X323018Y613448D01*
X324933Y608824D01*
X328472Y605285D01*
X333095Y603370D01*
X338100Y603370D01*
X342723Y605285D01*
X346262Y608824D01*
X348177Y613448D01*
X348177Y618452D01*
X346262Y623076D01*
X342723Y626615D01*
X338100Y628530D01*
X336944Y628530D01*
X342900Y634486D01*
X349498Y627888D01*
X361702Y627888D01*
X370332Y636518D01*
X370332Y648722D01*
X363734Y655320D01*
X387858Y655320D01*
X387858Y570085D01*
X388941Y567471D01*
X390941Y565471D01*
X393555Y564388D01*
X505605Y564388D01*
X508219Y565471D01*
X510219Y567471D01*
X511302Y570085D01*
X511302Y655320D01*
X570484Y655320D01*
X570484Y490537D01*
X448952Y490537D01*
X446618Y489571D01*
X444832Y487784D01*
X443865Y485451D01*
X443865Y453240D01*
X443425Y453057D01*
X437530Y447163D01*
X434340Y439461D01*
X434340Y431124D01*
X437530Y423422D01*
X443425Y417528D01*
X443865Y417345D01*
X443865Y385134D01*
X444832Y382801D01*
X446151Y381481D01*
X446151Y315114D01*
X444832Y313794D01*
X443865Y311461D01*
X443865Y279250D01*
X443425Y279067D01*
X437530Y273173D01*
X434340Y265471D01*
X434340Y257134D01*
X437530Y249432D01*
X443425Y243538D01*
X443865Y243355D01*
X443865Y211144D01*
X444832Y208811D01*
X446618Y207024D01*
X448952Y206058D01*
X570484Y206058D01*
X570484Y142557D01*
X555244Y142557D01*
X555244Y149917D01*
X560832Y155505D01*
X560832Y167710D01*
X553493Y175049D01*
X559784Y181339D01*
X559784Y186499D01*
X546608Y186499D01*
X546608Y187516D01*
X559784Y187516D01*
X559784Y192676D01*
X551768Y200691D01*
X546608Y200691D01*
X546608Y187516D01*
X545592Y187516D01*
X545592Y200691D01*
X540432Y200691D01*
X534141Y194401D01*
X526802Y201739D01*
X515307Y201739D01*
X513873Y203174D01*
X512015Y205032D01*
X509588Y206037D01*
X481965Y206037D01*
X479538Y205032D01*
X477325Y202819D01*
X441520Y202819D01*
X199390Y287338D02*
X199390Y294417D01*
X199390Y287338D02*
X199390Y287338D01*
X199390Y294417D01*
X198693Y294417D01*
X197325Y294145D01*
X196036Y293612D01*
X194877Y292837D01*
X193891Y291851D01*
X193116Y290691D01*
X192582Y289403D01*
X192310Y288035D01*
X192310Y287338D01*
X199390Y287338D01*
X199390Y287337D01*
X192310Y287337D01*
X192310Y286640D01*
X192582Y285272D01*
X193116Y283984D01*
X193891Y282824D01*
X194877Y281838D01*
X196036Y281063D01*
X197325Y280530D01*
X198693Y280258D01*
X199390Y280258D01*
X199390Y287337D01*
X199390Y287337D01*
X199390Y280258D01*
X200087Y280258D01*
X201455Y280530D01*
X202744Y281063D01*
X203903Y281838D01*
X204889Y282824D01*
X205664Y283984D01*
X206198Y285272D01*
X206470Y286640D01*
X206470Y287337D01*
X199390Y287337D01*
X199390Y287338D01*
X206470Y287338D01*
X206470Y288035D01*
X206198Y289403D01*
X205664Y290691D01*
X204889Y291851D01*
X203903Y292837D01*
X202744Y293612D01*
X201455Y294145D01*
X200087Y294417D01*
X199390Y294417D01*
X152400Y546100D02*
X152400Y554196D01*
X152400Y546100D02*
X152400Y546100D01*
X152400Y554196D01*
X151603Y554196D01*
X150038Y553885D01*
X148565Y553275D01*
X147239Y552389D01*
X146111Y551261D01*
X145225Y549935D01*
X144615Y548462D01*
X144304Y546897D01*
X144304Y546100D01*
X152400Y546100D01*
X152400Y546100D01*
X144304Y546100D01*
X144304Y545303D01*
X144615Y543738D01*
X145225Y542265D01*
X146111Y540939D01*
X147239Y539811D01*
X148565Y538925D01*
X150038Y538315D01*
X151603Y538004D01*
X152400Y538004D01*
X152400Y546100D01*
X152400Y546100D01*
X152400Y538004D01*
X153197Y538004D01*
X154762Y538315D01*
X156235Y538925D01*
X157561Y539811D01*
X158689Y540939D01*
X159575Y542265D01*
X160185Y543738D01*
X160496Y545303D01*
X160496Y546100D01*
X152400Y546100D01*
X152400Y546100D01*
X160496Y546100D01*
X160496Y546897D01*
X160185Y548462D01*
X159575Y549935D01*
X158689Y551261D01*
X157561Y552389D01*
X156235Y553275D01*
X154762Y553885D01*
X153197Y554196D01*
X152400Y554196D01*
X187643Y371316D02*
X187643Y363220D01*
X187642Y363220D01*
X187642Y371316D01*
X186845Y371316D01*
X185281Y371005D01*
X183808Y370395D01*
X182482Y369509D01*
X181354Y368381D01*
X180468Y367055D01*
X179858Y365582D01*
X179547Y364017D01*
X179547Y363220D01*
X187642Y363220D01*
X187642Y363220D01*
X179547Y363220D01*
X179547Y362423D01*
X179858Y360858D01*
X180468Y359385D01*
X181354Y358059D01*
X182482Y356931D01*
X183808Y356045D01*
X185281Y355435D01*
X186845Y355124D01*
X187642Y355124D01*
X187642Y363220D01*
X187643Y363220D01*
X187643Y355124D01*
X188440Y355124D01*
X190004Y355435D01*
X191477Y356045D01*
X192803Y356931D01*
X193931Y358059D01*
X194817Y359385D01*
X195427Y360858D01*
X195738Y362423D01*
X195738Y363220D01*
X187643Y363220D01*
X187643Y363220D01*
X195738Y363220D01*
X195738Y364017D01*
X195427Y365582D01*
X194817Y367055D01*
X193931Y368381D01*
X192803Y369509D01*
X191477Y370395D01*
X190004Y371005D01*
X188440Y371316D01*
X187643Y371316D01*
X513366Y635508D02*
X513366Y640668D01*
X513366Y635508D02*
X526542Y635508D01*
X526542Y634492D01*
X513366Y634492D01*
X513366Y629332D01*
X519657Y623041D01*
X512318Y615702D01*
X512318Y603498D01*
X520948Y594868D01*
X533152Y594868D01*
X539750Y601466D01*
X546348Y594868D01*
X558552Y594868D01*
X567182Y603498D01*
X567182Y615702D01*
X559843Y623041D01*
X566134Y629332D01*
X566134Y634492D01*
X552958Y634492D01*
X552958Y635508D01*
X566134Y635508D01*
X566134Y640668D01*
X558118Y648684D01*
X552958Y648684D01*
X552958Y635508D01*
X551942Y635508D01*
X551942Y648684D01*
X546782Y648684D01*
X539750Y641652D01*
X532718Y648684D01*
X527558Y648684D01*
X527558Y635508D01*
X526542Y635508D01*
X526542Y648684D01*
X521382Y648684D01*
X513366Y640668D01*
X234466Y627482D02*
X234466Y616418D01*
X233529Y616418D01*
X233529Y627482D01*
X233090Y627482D01*
X231297Y627198D01*
X229571Y626637D01*
X227953Y625813D01*
X226485Y624746D01*
X225201Y623463D01*
X224134Y621994D01*
X223310Y620377D01*
X222749Y618650D01*
X222466Y616858D01*
X222465Y616418D01*
X233529Y616418D01*
X233529Y615482D01*
X222465Y615482D01*
X222466Y615042D01*
X222749Y613250D01*
X223310Y611523D01*
X224134Y609906D01*
X225201Y608437D01*
X226485Y607154D01*
X227953Y606087D01*
X229571Y605263D01*
X231297Y604702D01*
X233090Y604418D01*
X233529Y604418D01*
X233529Y615482D01*
X234466Y615482D01*
X234466Y604418D01*
X234905Y604418D01*
X236698Y604702D01*
X238424Y605263D01*
X240042Y606087D01*
X241510Y607154D01*
X242794Y608437D01*
X243861Y609906D01*
X244685Y611523D01*
X245246Y613250D01*
X245529Y615042D01*
X245529Y615482D01*
X234466Y615482D01*
X234466Y616418D01*
X245529Y616418D01*
X245529Y616858D01*
X245246Y618650D01*
X244685Y620377D01*
X243861Y621994D01*
X242794Y623463D01*
X241510Y624746D01*
X240042Y625813D01*
X238424Y626637D01*
X236698Y627198D01*
X234905Y627482D01*
X234466Y627482D01*
X164744Y196938D02*
X164744Y167043D01*
X160680Y167043D01*
X160680Y196938D01*
X158015Y196675D01*
X154934Y196062D01*
X151928Y195150D01*
X149026Y193948D01*
X146256Y192467D01*
X143644Y190722D01*
X141215Y188729D01*
X138994Y186508D01*
X137001Y184080D01*
X135256Y181468D01*
X133775Y178697D01*
X132573Y175795D01*
X131661Y172789D01*
X131048Y169708D01*
X130786Y167043D01*
X160680Y167043D01*
X160680Y162979D01*
X130786Y162979D01*
X131048Y160314D01*
X131661Y157233D01*
X132573Y154227D01*
X133775Y151325D01*
X135256Y148554D01*
X137001Y145942D01*
X138994Y143514D01*
X141215Y141293D01*
X143644Y139300D01*
X146256Y137555D01*
X149026Y136074D01*
X151928Y134872D01*
X154934Y133960D01*
X158015Y133347D01*
X160680Y133085D01*
X160680Y162979D01*
X164744Y162979D01*
X164744Y133085D01*
X167409Y133347D01*
X170490Y133960D01*
X173496Y134872D01*
X176399Y136074D01*
X179169Y137555D01*
X181781Y139300D01*
X184209Y141293D01*
X186431Y143514D01*
X188424Y145942D01*
X190169Y148554D01*
X191650Y151325D01*
X192852Y154227D01*
X193764Y157233D01*
X194376Y160314D01*
X194639Y162979D01*
X164745Y162979D01*
X164745Y167043D01*
X194639Y167043D01*
X194376Y169708D01*
X193764Y172789D01*
X192852Y175795D01*
X191650Y178697D01*
X190169Y181468D01*
X188424Y184080D01*
X186431Y186508D01*
X184209Y188729D01*
X181781Y190722D01*
X179169Y192467D01*
X176399Y193948D01*
X173496Y195150D01*
X170490Y196062D01*
X167409Y196675D01*
X164744Y196938D01*
X78232Y354578D02*
X78232Y366782D01*
X69602Y375412D01*
X57398Y375412D01*
X50059Y368073D01*
X43768Y374364D01*
X38608Y374364D01*
X38608Y361188D01*
X37592Y361188D01*
X37592Y374364D01*
X32432Y374364D01*
X24416Y366348D01*
X24416Y361188D01*
X37592Y361188D01*
X37592Y360172D01*
X24416Y360172D01*
X24416Y355012D01*
X30707Y348721D01*
X23368Y341382D01*
X23368Y329178D01*
X31998Y320548D01*
X44202Y320548D01*
X50800Y327146D01*
X57398Y320548D01*
X69602Y320548D01*
X78232Y329178D01*
X78232Y341382D01*
X71634Y347980D01*
X78232Y354578D01*
X88335Y29217D02*
X91757Y25795D01*
X88335Y29217D02*
X79174Y29217D01*
X78357Y28400D01*
X77540Y29217D01*
X69819Y29217D01*
X69722Y29120D01*
X69625Y29217D01*
X49668Y29217D01*
X49571Y29120D01*
X49474Y29217D01*
X41753Y29217D01*
X41656Y29120D01*
X41559Y29217D01*
X36720Y29217D01*
X36258Y28756D01*
X35797Y29217D01*
X30957Y29217D01*
X27535Y25795D01*
X27535Y12312D01*
X30957Y8890D01*
X35797Y8890D01*
X36258Y9351D01*
X36720Y8890D01*
X41559Y8890D01*
X41656Y8987D01*
X41753Y8890D01*
X49474Y8890D01*
X51012Y10428D01*
X52549Y8890D01*
X57389Y8890D01*
X59646Y11148D01*
X61904Y8890D01*
X66744Y8890D01*
X68281Y10428D01*
X68378Y10331D01*
X69819Y8890D01*
X77540Y8890D01*
X78357Y9707D01*
X79174Y8890D01*
X88335Y8890D01*
X91757Y12312D01*
X91757Y21474D01*
X91757Y25795D01*
X246577Y562648D02*
X246577Y567652D01*
X244662Y572276D01*
X241123Y575815D01*
X236500Y577730D01*
X231495Y577730D01*
X226872Y575815D01*
X223333Y572276D01*
X221418Y567652D01*
X221418Y562648D01*
X223333Y558024D01*
X226872Y554485D01*
X231495Y552570D01*
X236500Y552570D01*
X241123Y554485D01*
X244662Y558024D01*
X246577Y562648D01*
X297377Y562648D02*
X297377Y567652D01*
X295462Y572276D01*
X291923Y575815D01*
X287300Y577730D01*
X282295Y577730D01*
X277672Y575815D01*
X274133Y572276D01*
X272218Y567652D01*
X272218Y562648D01*
X274133Y558024D01*
X277672Y554485D01*
X282295Y552570D01*
X287300Y552570D01*
X291923Y554485D01*
X295462Y558024D01*
X297377Y562648D01*
X322777Y562648D02*
X322777Y567652D01*
X320862Y572276D01*
X317323Y575815D01*
X312700Y577730D01*
X307695Y577730D01*
X303072Y575815D01*
X299533Y572276D01*
X297618Y567652D01*
X297618Y562648D01*
X299533Y558024D01*
X303072Y554485D01*
X307695Y552570D01*
X312700Y552570D01*
X317323Y554485D01*
X320862Y558024D01*
X322777Y562648D01*
X348177Y562648D02*
X348177Y567652D01*
X346262Y572276D01*
X342723Y575815D01*
X338100Y577730D01*
X333095Y577730D01*
X328472Y575815D01*
X324933Y572276D01*
X323018Y567652D01*
X323018Y562648D01*
X324933Y558024D01*
X328472Y554485D01*
X333095Y552570D01*
X338100Y552570D01*
X342723Y554485D01*
X346262Y558024D01*
X348177Y562648D01*
X373577Y562648D02*
X373577Y567652D01*
X371662Y572276D01*
X368123Y575815D01*
X363500Y577730D01*
X358495Y577730D01*
X353872Y575815D01*
X350333Y572276D01*
X348418Y567652D01*
X348418Y562648D01*
X350333Y558024D01*
X353872Y554485D01*
X358495Y552570D01*
X363500Y552570D01*
X368123Y554485D01*
X371662Y558024D01*
X373577Y562648D01*
X361466Y616418D02*
X361466Y627482D01*
X361466Y616418D02*
X360529Y616418D01*
X360529Y627482D01*
X360090Y627482D01*
X358297Y627198D01*
X356571Y626637D01*
X354953Y625813D01*
X353485Y624746D01*
X352201Y623463D01*
X351134Y621994D01*
X350310Y620377D01*
X349749Y618650D01*
X349466Y616858D01*
X349465Y616418D01*
X360529Y616418D01*
X360529Y615482D01*
X349465Y615482D01*
X349466Y615042D01*
X349749Y613250D01*
X350310Y611523D01*
X351134Y609906D01*
X352201Y608437D01*
X353485Y607154D01*
X354953Y606087D01*
X356571Y605263D01*
X358297Y604702D01*
X360090Y604418D01*
X360529Y604418D01*
X360529Y615482D01*
X361466Y615482D01*
X361466Y604418D01*
X361905Y604418D01*
X363698Y604702D01*
X365424Y605263D01*
X367042Y606087D01*
X368510Y607154D01*
X369794Y608437D01*
X370861Y609906D01*
X371685Y611523D01*
X372246Y613250D01*
X372529Y615042D01*
X372529Y615482D01*
X361466Y615482D01*
X361466Y616418D01*
X372529Y616418D01*
X372529Y616858D01*
X372246Y618650D01*
X371685Y620377D01*
X370861Y621994D01*
X369794Y623463D01*
X368510Y624746D01*
X367042Y625813D01*
X365424Y626637D01*
X363698Y627198D01*
X361905Y627482D01*
X361466Y627482D01*
X228283Y221138D02*
X228283Y213043D01*
X228282Y213043D01*
X228282Y221138D01*
X227485Y221138D01*
X225921Y220827D01*
X224448Y220217D01*
X223122Y219331D01*
X221994Y218203D01*
X221108Y216877D01*
X220498Y215404D01*
X220187Y213840D01*
X220187Y213043D01*
X228282Y213043D01*
X228282Y213042D01*
X220187Y213042D01*
X220187Y212245D01*
X220498Y210681D01*
X221108Y209208D01*
X221994Y207882D01*
X223122Y206754D01*
X224448Y205868D01*
X225921Y205258D01*
X227485Y204947D01*
X228282Y204947D01*
X228282Y213042D01*
X228283Y213042D01*
X228283Y204947D01*
X229080Y204947D01*
X230644Y205258D01*
X232117Y205868D01*
X233443Y206754D01*
X234571Y207882D01*
X235457Y209208D01*
X236067Y210681D01*
X236378Y212245D01*
X236378Y213042D01*
X228283Y213042D01*
X228283Y213043D01*
X236378Y213043D01*
X236378Y213840D01*
X236067Y215404D01*
X235457Y216877D01*
X234571Y218203D01*
X233443Y219331D01*
X232117Y220217D01*
X230644Y220827D01*
X229080Y221138D01*
X228283Y221138D01*
X410210Y318135D02*
X410210Y326231D01*
X410210Y318135D02*
X410210Y318135D01*
X410210Y326231D01*
X409413Y326231D01*
X407848Y325920D01*
X406375Y325310D01*
X405049Y324424D01*
X403921Y323296D01*
X403035Y321970D01*
X402425Y320497D01*
X402114Y318932D01*
X402114Y318135D01*
X410210Y318135D01*
X410210Y318135D01*
X402114Y318135D01*
X402114Y317338D01*
X402425Y315773D01*
X403035Y314300D01*
X403921Y312974D01*
X405049Y311846D01*
X406375Y310960D01*
X407848Y310350D01*
X409413Y310039D01*
X410210Y310039D01*
X410210Y318135D01*
X410210Y318135D01*
X410210Y310039D01*
X411007Y310039D01*
X412572Y310350D01*
X414045Y310960D01*
X415371Y311846D01*
X416499Y312974D01*
X417385Y314300D01*
X417995Y315773D01*
X418306Y317338D01*
X418306Y318135D01*
X410210Y318135D01*
X410210Y318135D01*
X418306Y318135D01*
X418306Y318932D01*
X417995Y320497D01*
X417385Y321970D01*
X416499Y323296D01*
X415371Y324424D01*
X414045Y325310D01*
X412572Y325920D01*
X411007Y326231D01*
X410210Y326231D01*
X88900Y546100D02*
X88900Y554196D01*
X88900Y546100D02*
X88900Y546100D01*
X88900Y554196D01*
X88103Y554196D01*
X86538Y553885D01*
X85065Y553275D01*
X83739Y552389D01*
X82611Y551261D01*
X81725Y549935D01*
X81115Y548462D01*
X80804Y546897D01*
X80804Y546100D01*
X88900Y546100D01*
X88900Y546100D01*
X80804Y546100D01*
X80804Y545303D01*
X81115Y543738D01*
X81725Y542265D01*
X82611Y540939D01*
X83739Y539811D01*
X85065Y538925D01*
X86538Y538315D01*
X88103Y538004D01*
X88900Y538004D01*
X88900Y546100D01*
X88900Y546100D01*
X88900Y538004D01*
X89697Y538004D01*
X91262Y538315D01*
X92735Y538925D01*
X94061Y539811D01*
X95189Y540939D01*
X96075Y542265D01*
X96685Y543738D01*
X96996Y545303D01*
X96996Y546100D01*
X88900Y546100D01*
X88900Y546100D01*
X96996Y546100D01*
X96996Y546897D01*
X96685Y548462D01*
X96075Y549935D01*
X95189Y551261D01*
X94061Y552389D01*
X92735Y553275D01*
X91262Y553885D01*
X89697Y554196D01*
X88900Y554196D01*
X448952Y142557D02*
X451478Y142557D01*
X448952Y142557D02*
X446618Y141591D01*
X444832Y139804D01*
X443865Y137471D01*
X443865Y105260D01*
X443425Y105077D01*
X437530Y99183D01*
X434340Y91481D01*
X434340Y83144D01*
X437530Y75442D01*
X443425Y69548D01*
X443865Y69365D01*
X443865Y37154D01*
X444832Y34821D01*
X446618Y33034D01*
X448952Y32068D01*
X570484Y32068D01*
X570484Y5080D01*
X365008Y5080D01*
X365139Y5283D01*
X365139Y5283D01*
X365412Y5980D01*
X365717Y6756D01*
X365717Y6757D01*
X365996Y8314D01*
X365996Y8314D01*
X365982Y9060D01*
X365982Y16789D01*
X355651Y16789D01*
X355651Y16790D01*
X365982Y16790D01*
X365982Y26448D01*
X367263Y26448D01*
X368450Y26766D01*
X369515Y27380D01*
X370384Y28249D01*
X370998Y29314D01*
X371316Y30501D01*
X371316Y37381D01*
X370998Y38568D01*
X370954Y38644D01*
X371072Y38849D01*
X371390Y40036D01*
X371390Y47472D01*
X352552Y47472D01*
X352552Y47473D01*
X371390Y47473D01*
X371390Y54594D01*
X371072Y55781D01*
X370458Y56846D01*
X369589Y57715D01*
X368525Y58329D01*
X367338Y58647D01*
X352552Y58647D01*
X352552Y47473D01*
X352552Y47473D01*
X352552Y58647D01*
X347316Y58647D01*
X346129Y58329D01*
X345064Y57715D01*
X344195Y56846D01*
X343581Y55781D01*
X343263Y54594D01*
X343263Y47473D01*
X352552Y47473D01*
X352552Y47472D01*
X343263Y47472D01*
X343263Y40036D01*
X343581Y38849D01*
X344195Y37784D01*
X344964Y37016D01*
X344964Y16790D01*
X355650Y16790D01*
X355650Y16789D01*
X344964Y16789D01*
X344964Y9069D01*
X344931Y8891D01*
X344964Y8457D01*
X344964Y8022D01*
X345011Y7846D01*
X345038Y7495D01*
X345462Y5981D01*
X345919Y5080D01*
X310671Y5080D01*
X311128Y5981D01*
X311128Y5981D01*
X311296Y6582D01*
X311552Y7494D01*
X311552Y7495D01*
X311579Y7846D01*
X311579Y7846D01*
X311626Y8022D01*
X311626Y8457D01*
X311659Y8891D01*
X311626Y9069D01*
X311626Y16789D01*
X300940Y16789D01*
X300940Y16790D01*
X311626Y16790D01*
X311626Y37001D01*
X312395Y37769D01*
X313009Y38834D01*
X313327Y40021D01*
X313327Y47472D01*
X304038Y47472D01*
X304038Y47473D01*
X313327Y47473D01*
X313327Y54579D01*
X313009Y55766D01*
X312395Y56831D01*
X311526Y57700D01*
X310461Y58314D01*
X309274Y58632D01*
X304124Y58632D01*
X305658Y60166D01*
X306450Y62077D01*
X313369Y68996D01*
X314452Y71610D01*
X314452Y107188D01*
X391010Y107188D01*
X392188Y106700D01*
X395212Y106700D01*
X398005Y107857D01*
X400143Y109995D01*
X401300Y112788D01*
X401300Y114003D01*
X401879Y114003D01*
X404673Y115160D01*
X406810Y117297D01*
X407967Y120091D01*
X407967Y123114D01*
X406810Y125908D01*
X404673Y128045D01*
X401879Y129202D01*
X398856Y129202D01*
X397678Y128714D01*
X328656Y128714D01*
X328656Y136431D01*
X328739Y142304D01*
X352974Y142304D01*
X356335Y143696D01*
X358907Y146268D01*
X360299Y149629D01*
X360299Y192346D01*
X358907Y195706D01*
X356335Y198279D01*
X352974Y199671D01*
X349336Y199671D01*
X345975Y198279D01*
X343403Y195706D01*
X342011Y192346D01*
X342011Y160591D01*
X337033Y160591D01*
X337063Y160621D01*
X338181Y163321D01*
X338181Y166244D01*
X337063Y168944D01*
X334996Y171010D01*
X332296Y172128D01*
X329374Y172128D01*
X326674Y171010D01*
X324607Y168944D01*
X323865Y167152D01*
X323337Y166624D01*
X294513Y166624D01*
X294513Y167353D01*
X295434Y167734D01*
X297721Y170021D01*
X298958Y173008D01*
X298958Y176242D01*
X297721Y179229D01*
X295434Y181516D01*
X292447Y182753D01*
X292041Y182753D01*
X280031Y194763D01*
X281464Y195357D01*
X283751Y197643D01*
X284988Y200631D01*
X284988Y203864D01*
X283751Y206852D01*
X283464Y207138D01*
X283464Y217959D01*
X283503Y217933D01*
X284976Y217323D01*
X286540Y217012D01*
X287337Y217012D01*
X287337Y225107D01*
X287338Y225107D01*
X287338Y217012D01*
X288135Y217012D01*
X289699Y217323D01*
X291172Y217933D01*
X292498Y218819D01*
X293626Y219947D01*
X294512Y221273D01*
X295122Y222746D01*
X295433Y224310D01*
X295433Y225107D01*
X287338Y225107D01*
X287338Y225108D01*
X295433Y225108D01*
X295433Y225905D01*
X295122Y227469D01*
X294512Y228942D01*
X293626Y230268D01*
X292498Y231396D01*
X291172Y232282D01*
X289699Y232892D01*
X288135Y233203D01*
X287338Y233203D01*
X287338Y225108D01*
X287337Y225108D01*
X287337Y233203D01*
X286540Y233203D01*
X284976Y232892D01*
X283503Y232282D01*
X283464Y232256D01*
X283464Y240853D01*
X284226Y242692D01*
X284226Y245623D01*
X283105Y248330D01*
X281033Y250402D01*
X278325Y251523D01*
X276606Y251523D01*
X276606Y261880D01*
X275678Y264121D01*
X270495Y269304D01*
X280714Y269304D01*
X283141Y270309D01*
X284999Y272167D01*
X284999Y272167D01*
X286199Y273368D01*
X305816Y273368D01*
X305816Y262702D01*
X305054Y260863D01*
X305054Y257932D01*
X306175Y255225D01*
X308247Y253153D01*
X310134Y252372D01*
X310134Y251582D01*
X311255Y248875D01*
X313327Y246803D01*
X315167Y246041D01*
X366069Y195139D01*
X367926Y193282D01*
X370354Y192276D01*
X395957Y192276D01*
X393631Y190722D01*
X391202Y188729D01*
X388981Y186508D01*
X386988Y184080D01*
X385243Y181468D01*
X383762Y178697D01*
X382560Y175795D01*
X381648Y172789D01*
X381035Y169708D01*
X380773Y167043D01*
X410667Y167043D01*
X410667Y162979D01*
X380773Y162979D01*
X381035Y160314D01*
X381648Y157233D01*
X382560Y154227D01*
X383762Y151325D01*
X385243Y148554D01*
X386988Y145942D01*
X388981Y143514D01*
X391202Y141293D01*
X393631Y139300D01*
X396242Y137555D01*
X399013Y136074D01*
X401915Y134872D01*
X404921Y133960D01*
X408002Y133347D01*
X410667Y133085D01*
X410667Y162979D01*
X414731Y162979D01*
X414731Y133085D01*
X417396Y133347D01*
X420477Y133960D01*
X423483Y134872D01*
X426385Y136074D01*
X429156Y137555D01*
X431768Y139300D01*
X434196Y141293D01*
X436417Y143514D01*
X438410Y145942D01*
X440156Y148554D01*
X441636Y151325D01*
X442839Y154227D01*
X443750Y157233D01*
X444363Y160314D01*
X444626Y162979D01*
X414731Y162979D01*
X414731Y167043D01*
X444626Y167043D01*
X444363Y169708D01*
X443750Y172789D01*
X442839Y175795D01*
X441636Y178697D01*
X440156Y181468D01*
X438410Y184080D01*
X437398Y185313D01*
X480568Y185313D01*
X480568Y180905D01*
X487166Y174307D01*
X480568Y167710D01*
X480568Y155505D01*
X489198Y146876D01*
X501402Y146876D01*
X508000Y153473D01*
X514598Y146876D01*
X526802Y146876D01*
X533400Y153473D01*
X536956Y149917D01*
X536956Y142557D01*
X451478Y142557D01*
X355651Y5080D02*
X355651Y5080D01*
X355651Y16789D01*
X355651Y16789D01*
X355651Y5080D01*
X300939Y16790D02*
X300939Y16790D01*
X300939Y35968D01*
X300939Y35968D01*
X300939Y16790D01*
X304038Y47473D02*
X304038Y47473D01*
X304038Y58546D01*
X304038Y58546D01*
X304038Y47473D01*
X363855Y429578D02*
X363855Y436657D01*
X363855Y429578D02*
X363855Y429578D01*
X363855Y436657D01*
X363158Y436657D01*
X361790Y436385D01*
X360934Y436031D01*
X360934Y464099D01*
X359542Y467460D01*
X356970Y470032D01*
X333416Y493586D01*
X337931Y493586D01*
X343346Y495828D01*
X347490Y499972D01*
X349733Y505387D01*
X349733Y511248D01*
X347490Y516663D01*
X343706Y520446D01*
X368681Y520446D01*
X368681Y449349D01*
X370073Y445988D01*
X372645Y443416D01*
X376006Y442024D01*
X379644Y442024D01*
X383005Y443416D01*
X385577Y445988D01*
X385953Y446896D01*
X385953Y387916D01*
X384406Y388556D01*
X366055Y388556D01*
X360934Y393678D01*
X360934Y423124D01*
X361790Y422770D01*
X363158Y422498D01*
X363855Y422498D01*
X363855Y429577D01*
X363855Y429577D01*
X363855Y422498D01*
X364552Y422498D01*
X365920Y422770D01*
X367209Y423303D01*
X368368Y424078D01*
X369354Y425064D01*
X370129Y426224D01*
X370663Y427512D01*
X370935Y428880D01*
X370935Y429577D01*
X363855Y429577D01*
X363855Y429578D01*
X370935Y429578D01*
X370935Y430275D01*
X370663Y431643D01*
X370129Y432931D01*
X369354Y434091D01*
X368368Y435077D01*
X367209Y435852D01*
X365920Y436385D01*
X364552Y436657D01*
X363855Y436657D01*
X360998Y491490D02*
X360998Y498570D01*
X360998Y491490D02*
X360997Y491490D01*
X360997Y498570D01*
X360300Y498570D01*
X358932Y498298D01*
X357644Y497764D01*
X356484Y496989D01*
X355498Y496003D01*
X354723Y494844D01*
X354190Y493555D01*
X353918Y492187D01*
X353918Y491490D01*
X360997Y491490D01*
X360997Y491490D01*
X353918Y491490D01*
X353918Y490793D01*
X354190Y489425D01*
X354723Y488136D01*
X355498Y486977D01*
X356484Y485991D01*
X357644Y485216D01*
X358932Y484682D01*
X360300Y484410D01*
X360997Y484410D01*
X360997Y491490D01*
X360998Y491490D01*
X360998Y484410D01*
X361695Y484410D01*
X363063Y484682D01*
X364351Y485216D01*
X365511Y485991D01*
X366497Y486977D01*
X367272Y488136D01*
X367805Y489425D01*
X368077Y490793D01*
X368077Y491490D01*
X360998Y491490D01*
X360998Y491490D01*
X368077Y491490D01*
X368077Y492187D01*
X367805Y493555D01*
X367272Y494844D01*
X366497Y496003D01*
X365511Y496989D01*
X364351Y497764D01*
X363063Y498298D01*
X361695Y498570D01*
X360998Y498570D01*
X290627Y8128D02*
X5080Y8128D01*
X300939Y8128D02*
X300939Y8128D01*
X311626Y8128D02*
X344964Y8128D01*
X355651Y8128D02*
X355651Y8128D01*
X365963Y8128D02*
X570484Y8128D01*
X27535Y16256D02*
X5080Y16256D01*
X91757Y16256D02*
X290608Y16256D01*
X300939Y16256D02*
X300939Y16256D01*
X311626Y16256D02*
X344964Y16256D01*
X355651Y16256D02*
X355651Y16256D01*
X365982Y16256D02*
X570484Y16256D01*
X27535Y24384D02*
X5080Y24384D01*
X91757Y24384D02*
X290608Y24384D01*
X300939Y24384D02*
X300939Y24384D01*
X311626Y24384D02*
X344964Y24384D01*
X355651Y24384D02*
X355651Y24384D01*
X365982Y24384D02*
X570484Y24384D01*
X285274Y32512D02*
X127431Y32512D01*
X300939Y32512D02*
X300939Y32512D01*
X311626Y32512D02*
X344964Y32512D01*
X355651Y32512D02*
X355651Y32512D01*
X371316Y32512D02*
X447879Y32512D01*
X285263Y40640D02*
X131445Y40640D01*
X313327Y40640D02*
X343263Y40640D01*
X371390Y40640D02*
X443865Y40640D01*
X285263Y48768D02*
X131445Y48768D01*
X304038Y48768D02*
X304038Y48768D01*
X313327Y48768D02*
X343263Y48768D01*
X352552Y48768D02*
X352552Y48768D01*
X371390Y48768D02*
X443865Y48768D01*
X286261Y56896D02*
X131445Y56896D01*
X304038Y56896D02*
X304038Y56896D01*
X312329Y56896D02*
X344246Y56896D01*
X352552Y56896D02*
X352552Y56896D01*
X370408Y56896D02*
X443865Y56896D01*
X290640Y65024D02*
X131445Y65024D01*
X309397Y65024D02*
X443865Y65024D01*
X297409Y73152D02*
X135489Y73152D01*
X314452Y73152D02*
X439821Y73152D01*
X300228Y81280D02*
X140198Y81280D01*
X314452Y81280D02*
X435112Y81280D01*
X300228Y89408D02*
X140970Y89408D01*
X314452Y89408D02*
X434340Y89408D01*
X300228Y97536D02*
X138462Y97536D01*
X314452Y97536D02*
X436848Y97536D01*
X300228Y105664D02*
X131445Y105664D01*
X314452Y105664D02*
X443865Y105664D01*
X300228Y113792D02*
X131445Y113792D01*
X401300Y113792D02*
X443865Y113792D01*
X300228Y121920D02*
X131445Y121920D01*
X407967Y121920D02*
X443865Y121920D01*
X300228Y130048D02*
X131445Y130048D01*
X328656Y130048D02*
X443865Y130048D01*
X145326Y138176D02*
X131153Y138176D01*
X160680Y138176D02*
X164744Y138176D01*
X180099Y138176D02*
X304799Y138176D01*
X328681Y138176D02*
X395313Y138176D01*
X410667Y138176D02*
X414731Y138176D01*
X430086Y138176D02*
X444157Y138176D01*
X136760Y146304D02*
X52959Y146304D01*
X160680Y146304D02*
X164744Y146304D01*
X188665Y146304D02*
X209064Y146304D01*
X358922Y146304D02*
X386746Y146304D01*
X410667Y146304D02*
X414731Y146304D01*
X438652Y146304D02*
X536956Y146304D01*
X555244Y146304D02*
X570484Y146304D01*
X132511Y154432D02*
X52959Y154432D01*
X160680Y154432D02*
X164744Y154432D01*
X192914Y154432D02*
X200936Y154432D01*
X360299Y154432D02*
X382498Y154432D01*
X410667Y154432D02*
X414731Y154432D01*
X442901Y154432D02*
X481641Y154432D01*
X559759Y154432D02*
X570484Y154432D01*
X130827Y162560D02*
X52959Y162560D01*
X160680Y162560D02*
X164744Y162560D01*
X194598Y162560D02*
X196279Y162560D01*
X218672Y162560D02*
X264663Y162560D01*
X337866Y162560D02*
X342011Y162560D01*
X360299Y162560D02*
X380814Y162560D01*
X410667Y162560D02*
X414731Y162560D01*
X444584Y162560D02*
X480568Y162560D01*
X560832Y162560D02*
X570484Y162560D01*
X131243Y170688D02*
X52959Y170688D01*
X160680Y170688D02*
X164744Y170688D01*
X194182Y170688D02*
X196279Y170688D01*
X214566Y170688D02*
X256535Y170688D01*
X297997Y170688D02*
X326352Y170688D01*
X335318Y170688D02*
X342011Y170688D01*
X360299Y170688D02*
X381230Y170688D01*
X444168Y170688D02*
X483546Y170688D01*
X557854Y170688D02*
X570484Y170688D01*
X133839Y178816D02*
X52959Y178816D01*
X160680Y178816D02*
X164744Y178816D01*
X191586Y178816D02*
X196279Y178816D01*
X214566Y178816D02*
X251841Y178816D01*
X297892Y178816D02*
X342011Y178816D01*
X360299Y178816D02*
X383825Y178816D01*
X441573Y178816D02*
X482657Y178816D01*
X557261Y178816D02*
X570484Y178816D01*
X139430Y186944D02*
X52959Y186944D01*
X160680Y186944D02*
X164744Y186944D01*
X185995Y186944D02*
X196279Y186944D01*
X214566Y186944D02*
X251841Y186944D01*
X287850Y186944D02*
X342011Y186944D01*
X360299Y186944D02*
X389417Y186944D01*
X546608Y186944D02*
X570484Y186944D01*
X151739Y195072D02*
X52959Y195072D01*
X160680Y195072D02*
X164744Y195072D01*
X173686Y195072D02*
X196279Y195072D01*
X214566Y195072D02*
X245553Y195072D01*
X280776Y195072D02*
X343140Y195072D01*
X359170Y195072D02*
X366136Y195072D01*
X533470Y195072D02*
X534812Y195072D01*
X545592Y195072D02*
X546608Y195072D01*
X557388Y195072D02*
X570484Y195072D01*
X196279Y203200D02*
X52959Y203200D01*
X214566Y203200D02*
X243265Y203200D01*
X284988Y203200D02*
X358008Y203200D01*
X441139Y203200D02*
X477706Y203200D01*
X513847Y203200D02*
X570484Y203200D01*
X196279Y211328D02*
X131445Y211328D01*
X214566Y211328D02*
X220369Y211328D01*
X228282Y211328D02*
X228283Y211328D01*
X236196Y211328D02*
X244539Y211328D01*
X283464Y211328D02*
X349880Y211328D01*
X442003Y211328D02*
X443865Y211328D01*
X196279Y219456D02*
X131445Y219456D01*
X214566Y219456D02*
X223309Y219456D01*
X228282Y219456D02*
X228283Y219456D01*
X233256Y219456D02*
X244539Y219456D01*
X287337Y219456D02*
X287338Y219456D01*
X293135Y219456D02*
X341752Y219456D01*
X388239Y219456D02*
X411810Y219456D01*
X419100Y219456D02*
X419100Y219456D01*
X426390Y219456D02*
X443865Y219456D01*
X196279Y227584D02*
X131445Y227584D01*
X214566Y227584D02*
X244539Y227584D01*
X287337Y227584D02*
X287338Y227584D01*
X295075Y227584D02*
X333624Y227584D01*
X388239Y227584D02*
X443865Y227584D01*
X196279Y235712D02*
X131445Y235712D01*
X214566Y235712D02*
X244539Y235712D01*
X283464Y235712D02*
X325496Y235712D01*
X351795Y235712D02*
X353124Y235712D01*
X388239Y235712D02*
X443865Y235712D01*
X196279Y243840D02*
X132187Y243840D01*
X214566Y243840D02*
X244539Y243840D01*
X284226Y243840D02*
X317368Y243840D01*
X343667Y243840D02*
X353124Y243840D01*
X388239Y243840D02*
X443123Y243840D01*
X195793Y251968D02*
X138830Y251968D01*
X214566Y251968D02*
X245047Y251968D01*
X276606Y251968D02*
X310134Y251968D01*
X335539Y251968D02*
X348025Y251968D01*
X388239Y251968D02*
X436480Y251968D01*
X187665Y260096D02*
X140970Y260096D01*
X213321Y260096D02*
X240553Y260096D01*
X276606Y260096D02*
X305054Y260096D01*
X319786Y260096D02*
X322888Y260096D01*
X327352Y260096D02*
X350392Y260096D01*
X388239Y260096D02*
X434340Y260096D01*
X150085Y268224D02*
X139830Y268224D01*
X205400Y268224D02*
X233934Y268224D01*
X271575Y268224D02*
X305816Y268224D01*
X319024Y268224D02*
X353124Y268224D01*
X388239Y268224D02*
X435480Y268224D01*
X149717Y276352D02*
X134600Y276352D01*
X197272Y276352D02*
X225445Y276352D01*
X230822Y276352D02*
X230823Y276352D01*
X332377Y276352D02*
X353124Y276352D01*
X388239Y276352D02*
X440710Y276352D01*
X192910Y284480D02*
X131445Y284480D01*
X199390Y284480D02*
X199390Y284480D01*
X205870Y284480D02*
X224641Y284480D01*
X230822Y284480D02*
X230823Y284480D01*
X265493Y284480D02*
X276860Y284480D01*
X332740Y284480D02*
X352938Y284480D01*
X388239Y284480D02*
X443865Y284480D01*
X194648Y292608D02*
X131445Y292608D01*
X199390Y292608D02*
X199390Y292608D01*
X204132Y292608D02*
X234502Y292608D01*
X258937Y292608D02*
X276860Y292608D01*
X332740Y292608D02*
X354581Y292608D01*
X388239Y292608D02*
X443865Y292608D01*
X141453Y300736D02*
X131445Y300736D01*
X223672Y300736D02*
X227452Y300736D01*
X264907Y300736D02*
X276860Y300736D01*
X360228Y300736D02*
X363601Y300736D01*
X388239Y300736D02*
X443865Y300736D01*
X143382Y308864D02*
X131445Y308864D01*
X271979Y308864D02*
X276860Y308864D01*
X332740Y308864D02*
X348253Y308864D01*
X357232Y308864D02*
X359246Y308864D01*
X388239Y308864D02*
X443865Y308864D01*
X137922Y316992D02*
X5080Y316992D01*
X272161Y316992D02*
X276860Y316992D01*
X332740Y316992D02*
X350993Y316992D01*
X396281Y316992D02*
X402183Y316992D01*
X410210Y316992D02*
X410210Y316992D01*
X418237Y316992D02*
X446151Y316992D01*
X464439Y316992D02*
X570484Y316992D01*
X27426Y325120D02*
X5080Y325120D01*
X48774Y325120D02*
X52826Y325120D01*
X74174Y325120D02*
X90523Y325120D01*
X272161Y325120D02*
X276860Y325120D01*
X332740Y325120D02*
X342461Y325120D01*
X404409Y325120D02*
X406091Y325120D01*
X410210Y325120D02*
X410210Y325120D01*
X414329Y325120D02*
X446151Y325120D01*
X464439Y325120D02*
X484943Y325120D01*
X505657Y325120D02*
X510343Y325120D01*
X531057Y325120D02*
X535743Y325120D01*
X556457Y325120D02*
X570484Y325120D01*
X23368Y333248D02*
X5080Y333248D01*
X78232Y333248D02*
X88812Y333248D01*
X272161Y333248D02*
X305816Y333248D01*
X319024Y333248D02*
X342250Y333248D01*
X412537Y333248D02*
X446151Y333248D01*
X464439Y333248D02*
X480568Y333248D01*
X560832Y333248D02*
X570484Y333248D01*
X23368Y341376D02*
X5080Y341376D01*
X78232Y341376D02*
X216716Y341376D01*
X272161Y341376D02*
X305816Y341376D01*
X319024Y341376D02*
X337876Y341376D01*
X420665Y341376D02*
X446151Y341376D01*
X464439Y341376D02*
X480568Y341376D01*
X560832Y341376D02*
X570484Y341376D01*
X29924Y349504D02*
X5080Y349504D01*
X73158Y349504D02*
X202497Y349504D01*
X290180Y349504D02*
X301265Y349504D01*
X321535Y349504D02*
X325261Y349504D01*
X428586Y349504D02*
X446151Y349504D01*
X464439Y349504D02*
X485959Y349504D01*
X553959Y349504D02*
X570484Y349504D01*
X24416Y357632D02*
X5080Y357632D01*
X78232Y357632D02*
X181781Y357632D01*
X187642Y357632D02*
X187643Y357632D01*
X193504Y357632D02*
X198184Y357632D01*
X298308Y357632D02*
X324422Y357632D01*
X429831Y357632D02*
X446151Y357632D01*
X464439Y357632D02*
X480568Y357632D01*
X559784Y357632D02*
X570484Y357632D01*
X24416Y365760D02*
X5080Y365760D01*
X37592Y365760D02*
X38608Y365760D01*
X78232Y365760D02*
X179932Y365760D01*
X187642Y365760D02*
X187643Y365760D01*
X195353Y365760D02*
X198184Y365760D01*
X260731Y365760D02*
X266651Y365760D01*
X301688Y365760D02*
X324422Y365760D01*
X429831Y365760D02*
X446151Y365760D01*
X464439Y365760D02*
X480568Y365760D01*
X545592Y365760D02*
X546608Y365760D01*
X559784Y365760D02*
X570484Y365760D01*
X31956Y373888D02*
X5080Y373888D01*
X37592Y373888D02*
X38608Y373888D01*
X44244Y373888D02*
X55874Y373888D01*
X71126Y373888D02*
X198184Y373888D01*
X260731Y373888D02*
X268224Y373888D01*
X280416Y373888D02*
X283782Y373888D01*
X304165Y373888D02*
X304165Y373888D01*
X309288Y373888D02*
X324422Y373888D01*
X429831Y373888D02*
X446151Y373888D01*
X464439Y373888D02*
X487356Y373888D01*
X503244Y373888D02*
X512756Y373888D01*
X528644Y373888D02*
X539638Y373888D01*
X545592Y373888D02*
X546608Y373888D01*
X552562Y373888D02*
X570484Y373888D01*
X198184Y382016D02*
X129694Y382016D01*
X260731Y382016D02*
X267636Y382016D01*
X281004Y382016D02*
X283782Y382016D01*
X304165Y382016D02*
X304165Y382016D01*
X310487Y382016D02*
X324422Y382016D01*
X429831Y382016D02*
X445616Y382016D01*
X198184Y390144D02*
X131445Y390144D01*
X260731Y390144D02*
X268919Y390144D01*
X279721Y390144D02*
X283782Y390144D01*
X303569Y390144D02*
X324422Y390144D01*
X364468Y390144D02*
X385953Y390144D01*
X429831Y390144D02*
X443865Y390144D01*
X198184Y398272D02*
X131445Y398272D01*
X260731Y398272D02*
X283782Y398272D01*
X295973Y398272D02*
X324422Y398272D01*
X360934Y398272D02*
X385953Y398272D01*
X429831Y398272D02*
X443865Y398272D01*
X198184Y406400D02*
X131445Y406400D01*
X271018Y406400D02*
X283782Y406400D01*
X295973Y406400D02*
X324422Y406400D01*
X360934Y406400D02*
X385953Y406400D01*
X426634Y406400D02*
X443865Y406400D01*
X197163Y414528D02*
X131445Y414528D01*
X270510Y414528D02*
X270510Y414528D01*
X273374Y414528D02*
X283782Y414528D01*
X295973Y414528D02*
X324422Y414528D01*
X360934Y414528D02*
X385953Y414528D01*
X418506Y414528D02*
X443865Y414528D01*
X167364Y422656D02*
X137013Y422656D01*
X270510Y422656D02*
X270510Y422656D01*
X277400Y422656D02*
X283782Y422656D01*
X295973Y422656D02*
X324422Y422656D01*
X360934Y422656D02*
X362361Y422656D01*
X363855Y422656D02*
X363855Y422656D01*
X365349Y422656D02*
X385953Y422656D01*
X412051Y422656D02*
X438297Y422656D01*
X166751Y430784D02*
X157648Y430784D01*
X268986Y430784D02*
X283782Y430784D01*
X295973Y430784D02*
X324422Y430784D01*
X363855Y430784D02*
X363855Y430784D01*
X370834Y430784D02*
X385953Y430784D01*
X421735Y430784D02*
X434481Y430784D01*
X169223Y438912D02*
X165776Y438912D01*
X195204Y438912D02*
X218186Y438912D01*
X268986Y438912D02*
X282512Y438912D01*
X297243Y438912D02*
X320929Y438912D01*
X360934Y438912D02*
X385953Y438912D01*
X418974Y438912D02*
X434340Y438912D01*
X184653Y447040D02*
X173288Y447040D01*
X201866Y447040D02*
X218186Y447040D01*
X270241Y447040D02*
X320929Y447040D01*
X360934Y447040D02*
X369637Y447040D01*
X421711Y447040D02*
X437479Y447040D01*
X139024Y455168D02*
X131445Y455168D01*
X174244Y455168D02*
X188659Y455168D01*
X201866Y455168D02*
X218186Y455168D01*
X360934Y455168D02*
X368681Y455168D01*
X425856Y455168D02*
X443865Y455168D01*
X144336Y463296D02*
X131445Y463296D01*
X174244Y463296D02*
X188659Y463296D01*
X201866Y463296D02*
X218186Y463296D01*
X360934Y463296D02*
X368681Y463296D01*
X435290Y463296D02*
X443865Y463296D01*
X143286Y471424D02*
X131445Y471424D01*
X174244Y471424D02*
X188659Y471424D01*
X201866Y471424D02*
X218186Y471424D01*
X355578Y471424D02*
X368681Y471424D01*
X435553Y471424D02*
X443865Y471424D01*
X143181Y479552D02*
X131445Y479552D01*
X174244Y479552D02*
X188659Y479552D01*
X201866Y479552D02*
X219011Y479552D01*
X347450Y479552D02*
X368681Y479552D01*
X428561Y479552D02*
X443865Y479552D01*
X155956Y487680D02*
X130522Y487680D01*
X174244Y487680D02*
X188659Y487680D01*
X201866Y487680D02*
X226337Y487680D01*
X339322Y487680D02*
X355028Y487680D01*
X360997Y487680D02*
X360998Y487680D01*
X366967Y487680D02*
X368681Y487680D01*
X428561Y487680D02*
X444788Y487680D01*
X155956Y495808D02*
X5080Y495808D01*
X178222Y495808D02*
X188659Y495808D01*
X201866Y495808D02*
X234465Y495808D01*
X343297Y495808D02*
X355368Y495808D01*
X360997Y495808D02*
X360998Y495808D01*
X366627Y495808D02*
X368681Y495808D01*
X428561Y495808D02*
X431010Y495808D01*
X436600Y495808D02*
X436601Y495808D01*
X442191Y495808D02*
X570484Y495808D01*
X160487Y503936D02*
X5080Y503936D01*
X184086Y503936D02*
X188659Y503936D01*
X201866Y503936D02*
X237563Y503936D01*
X349131Y503936D02*
X368681Y503936D01*
X436600Y503936D02*
X436601Y503936D01*
X449565Y503936D02*
X570484Y503936D01*
X168615Y512064D02*
X5080Y512064D01*
X181270Y512064D02*
X188659Y512064D01*
X201866Y512064D02*
X240052Y512064D01*
X349395Y512064D02*
X368681Y512064D01*
X449771Y512064D02*
X570484Y512064D01*
X188141Y520192D02*
X5080Y520192D01*
X202384Y520192D02*
X248180Y520192D01*
X343960Y520192D02*
X368681Y520192D01*
X443437Y520192D02*
X570484Y520192D01*
X256308Y528320D02*
X5080Y528320D01*
X484419Y528320D02*
X570484Y528320D01*
X264436Y536448D02*
X5080Y536448D01*
X492547Y536448D02*
X570484Y536448D01*
X80949Y544576D02*
X5080Y544576D01*
X88900Y544576D02*
X88900Y544576D01*
X96851Y544576D02*
X144449Y544576D01*
X152400Y544576D02*
X152400Y544576D01*
X160351Y544576D02*
X385749Y544576D01*
X401651Y544576D02*
X474812Y544576D01*
X500675Y544576D02*
X570484Y544576D01*
X84211Y552704D02*
X5080Y552704D01*
X88900Y552704D02*
X88900Y552704D01*
X93589Y552704D02*
X147711Y552704D01*
X152400Y552704D02*
X152400Y552704D01*
X157089Y552704D02*
X231172Y552704D01*
X236823Y552704D02*
X281972Y552704D01*
X287623Y552704D02*
X307372Y552704D01*
X313023Y552704D02*
X332772Y552704D01*
X338423Y552704D02*
X358172Y552704D01*
X363823Y552704D02*
X389011Y552704D01*
X393700Y552704D02*
X393700Y552704D01*
X398389Y552704D02*
X482940Y552704D01*
X502267Y552704D02*
X570484Y552704D01*
X222170Y560832D02*
X5080Y560832D01*
X245825Y560832D02*
X272970Y560832D01*
X296625Y560832D02*
X298370Y560832D01*
X322025Y560832D02*
X323770Y560832D01*
X347425Y560832D02*
X349170Y560832D01*
X372825Y560832D02*
X570484Y560832D01*
X221959Y568960D02*
X5080Y568960D01*
X246036Y568960D02*
X272759Y568960D01*
X296836Y568960D02*
X298159Y568960D01*
X322236Y568960D02*
X323559Y568960D01*
X347636Y568960D02*
X348959Y568960D01*
X373036Y568960D02*
X388324Y568960D01*
X510836Y568960D02*
X570484Y568960D01*
X229945Y577088D02*
X5080Y577088D01*
X238050Y577088D02*
X280745Y577088D01*
X288850Y577088D02*
X306145Y577088D01*
X314250Y577088D02*
X331545Y577088D01*
X339650Y577088D02*
X356945Y577088D01*
X365050Y577088D02*
X387858Y577088D01*
X511302Y577088D02*
X570484Y577088D01*
X387858Y585216D02*
X5080Y585216D01*
X511302Y585216D02*
X570484Y585216D01*
X387858Y593344D02*
X5080Y593344D01*
X511302Y593344D02*
X570484Y593344D01*
X387858Y601472D02*
X5080Y601472D01*
X511302Y601472D02*
X514344Y601472D01*
X565156Y601472D02*
X570484Y601472D01*
X224357Y609600D02*
X5080Y609600D01*
X233529Y609600D02*
X234466Y609600D01*
X243638Y609600D02*
X273811Y609600D01*
X295784Y609600D02*
X299211Y609600D01*
X321184Y609600D02*
X324611Y609600D01*
X346584Y609600D02*
X351357Y609600D01*
X360529Y609600D02*
X361466Y609600D01*
X370638Y609600D02*
X387858Y609600D01*
X511302Y609600D02*
X512318Y609600D01*
X567182Y609600D02*
X570484Y609600D01*
X74696Y617728D02*
X5080Y617728D01*
X90022Y617728D02*
X94086Y617728D01*
X109412Y617728D02*
X144588Y617728D01*
X159914Y617728D02*
X163978Y617728D01*
X179304Y617728D02*
X222603Y617728D01*
X233529Y617728D02*
X234466Y617728D01*
X245392Y617728D02*
X272218Y617728D01*
X297377Y617728D02*
X297618Y617728D01*
X322777Y617728D02*
X323018Y617728D01*
X348177Y617728D02*
X349603Y617728D01*
X360529Y617728D02*
X361466Y617728D01*
X372392Y617728D02*
X387858Y617728D01*
X511302Y617728D02*
X514344Y617728D01*
X565156Y617728D02*
X570484Y617728D01*
X74687Y625856D02*
X5080Y625856D01*
X90022Y625856D02*
X94086Y625856D01*
X109421Y625856D02*
X144579Y625856D01*
X159914Y625856D02*
X163978Y625856D01*
X179313Y625856D02*
X228038Y625856D01*
X233529Y625856D02*
X234466Y625856D01*
X239957Y625856D02*
X276913Y625856D01*
X292682Y625856D02*
X302313Y625856D01*
X318082Y625856D02*
X327713Y625856D01*
X343482Y625856D02*
X355038Y625856D01*
X360529Y625856D02*
X361466Y625856D01*
X366957Y625856D02*
X387858Y625856D01*
X511302Y625856D02*
X516842Y625856D01*
X562658Y625856D02*
X570484Y625856D01*
X74687Y633984D02*
X5080Y633984D01*
X90022Y633984D02*
X94086Y633984D01*
X109421Y633984D02*
X144579Y633984D01*
X159914Y633984D02*
X163978Y633984D01*
X179313Y633984D02*
X216402Y633984D01*
X240798Y633984D02*
X241802Y633984D01*
X266198Y633984D02*
X267202Y633984D01*
X291598Y633984D02*
X292602Y633984D01*
X316998Y633984D02*
X318002Y633984D01*
X342398Y633984D02*
X343402Y633984D01*
X367798Y633984D02*
X387858Y633984D01*
X511302Y633984D02*
X513366Y633984D01*
X566134Y633984D02*
X570484Y633984D01*
X74687Y642112D02*
X5080Y642112D01*
X109421Y642112D02*
X144579Y642112D01*
X179313Y642112D02*
X213868Y642112D01*
X370332Y642112D02*
X387858Y642112D01*
X511302Y642112D02*
X514810Y642112D01*
X526542Y642112D02*
X527558Y642112D01*
X539290Y642112D02*
X540210Y642112D01*
X551942Y642112D02*
X552958Y642112D01*
X564690Y642112D02*
X570484Y642112D01*
X74687Y650240D02*
X5080Y650240D01*
X109421Y650240D02*
X144579Y650240D01*
X179313Y650240D02*
X215386Y650240D01*
X368814Y650240D02*
X387858Y650240D01*
X511302Y650240D02*
X570484Y650240D01*
X8128Y32068D02*
X8128Y5080D01*
X8128Y316547D02*
X8128Y380048D01*
X8128Y490537D02*
X8128Y655320D01*
X16256Y32068D02*
X16256Y5080D01*
X16256Y316547D02*
X16256Y380048D01*
X16256Y490537D02*
X16256Y655320D01*
X24384Y32068D02*
X24384Y5080D01*
X24384Y316547D02*
X24384Y328162D01*
X24384Y342398D02*
X24384Y380048D01*
X24384Y490537D02*
X24384Y655320D01*
X32512Y8890D02*
X32512Y5080D01*
X32512Y29217D02*
X32512Y32068D01*
X32512Y316547D02*
X32512Y320548D01*
X32512Y360172D02*
X32512Y361188D01*
X32512Y374364D02*
X32512Y380048D01*
X32512Y490537D02*
X32512Y655320D01*
X40640Y8890D02*
X40640Y5080D01*
X40640Y29217D02*
X40640Y32068D01*
X40640Y316547D02*
X40640Y320548D01*
X40640Y374364D02*
X40640Y380048D01*
X40640Y490537D02*
X40640Y655320D01*
X48768Y8890D02*
X48768Y5080D01*
X48768Y29217D02*
X48768Y32068D01*
X48768Y316547D02*
X48768Y325114D01*
X48768Y369364D02*
X48768Y380048D01*
X48768Y490537D02*
X48768Y655320D01*
X56896Y8890D02*
X56896Y5080D01*
X56896Y29217D02*
X56896Y32068D01*
X56896Y142557D02*
X56896Y206058D01*
X56896Y316547D02*
X56896Y321050D01*
X56896Y374910D02*
X56896Y380048D01*
X56896Y490537D02*
X56896Y655320D01*
X65024Y8890D02*
X65024Y5080D01*
X65024Y29217D02*
X65024Y32068D01*
X65024Y142557D02*
X65024Y206058D01*
X65024Y316547D02*
X65024Y320548D01*
X65024Y375412D02*
X65024Y380048D01*
X65024Y490537D02*
X65024Y655320D01*
X73152Y8890D02*
X73152Y5080D01*
X73152Y29217D02*
X73152Y32068D01*
X73152Y142557D02*
X73152Y206058D01*
X73152Y316547D02*
X73152Y324098D01*
X73152Y346462D02*
X73152Y349498D01*
X73152Y371862D02*
X73152Y380048D01*
X73152Y490537D02*
X73152Y655320D01*
X81280Y8890D02*
X81280Y5080D01*
X81280Y29217D02*
X81280Y32068D01*
X81280Y142557D02*
X81280Y206058D01*
X81280Y316547D02*
X81280Y380048D01*
X81280Y490537D02*
X81280Y543340D01*
X81280Y546100D02*
X81280Y546100D01*
X81280Y548860D02*
X81280Y614259D01*
X81280Y637214D02*
X81280Y641278D01*
X89408Y9963D02*
X89408Y5080D01*
X89408Y28145D02*
X89408Y32068D01*
X89408Y142557D02*
X89408Y206058D01*
X89408Y316547D02*
X89408Y326548D01*
X89408Y334687D02*
X89408Y380048D01*
X89408Y490537D02*
X89408Y538004D01*
X89408Y546100D02*
X89408Y546100D01*
X89408Y554196D02*
X89408Y614259D01*
X89408Y637214D02*
X89408Y641278D01*
X97536Y32068D02*
X97536Y5080D01*
X97536Y142557D02*
X97536Y206058D01*
X97536Y316547D02*
X97536Y322490D01*
X97536Y338745D02*
X97536Y380048D01*
X97536Y490537D02*
X97536Y614259D01*
X97536Y637214D02*
X97536Y641278D01*
X105664Y32068D02*
X105664Y5080D01*
X105664Y142557D02*
X105664Y206058D01*
X105664Y316547D02*
X105664Y324014D01*
X105664Y337221D02*
X105664Y380048D01*
X105664Y490537D02*
X105664Y614259D01*
X105664Y637214D02*
X105664Y641278D01*
X113792Y32068D02*
X113792Y5080D01*
X113792Y142557D02*
X113792Y206058D01*
X113792Y316547D02*
X113792Y324014D01*
X113792Y337221D02*
X113792Y380048D01*
X113792Y490537D02*
X113792Y655320D01*
X121920Y32068D02*
X121920Y5080D01*
X121920Y142557D02*
X121920Y206058D01*
X121920Y316547D02*
X121920Y324014D01*
X121920Y337221D02*
X121920Y380048D01*
X121920Y490537D02*
X121920Y655320D01*
X130048Y34390D02*
X130048Y5080D01*
X130048Y140235D02*
X130048Y208380D01*
X130048Y314225D02*
X130048Y324014D01*
X130048Y337221D02*
X130048Y382370D01*
X130048Y488215D02*
X130048Y655320D01*
X138176Y76399D02*
X138176Y5080D01*
X138176Y98226D02*
X138176Y144511D01*
X138176Y162979D02*
X138176Y167043D01*
X138176Y185511D02*
X138176Y250389D01*
X138176Y272216D02*
X138176Y316205D01*
X138176Y320665D02*
X138176Y324014D01*
X138176Y337221D02*
X138176Y424379D01*
X138176Y454320D02*
X138176Y655320D01*
X146304Y137529D02*
X146304Y5080D01*
X146304Y162979D02*
X146304Y167043D01*
X146304Y192493D02*
X146304Y295625D01*
X146304Y337221D02*
X146304Y426149D01*
X146304Y483382D02*
X146304Y540747D01*
X146304Y546100D02*
X146304Y546100D01*
X146304Y551453D02*
X146304Y614967D01*
X146304Y637214D02*
X146304Y641278D01*
X154432Y134112D02*
X154432Y5080D01*
X154432Y162979D02*
X154432Y167043D01*
X154432Y195910D02*
X154432Y264361D01*
X154432Y281104D02*
X154432Y296101D01*
X154432Y337221D02*
X154432Y427568D01*
X154432Y484276D02*
X154432Y538250D01*
X154432Y546100D02*
X154432Y546100D01*
X154432Y553950D02*
X154432Y614259D01*
X154432Y637214D02*
X154432Y641278D01*
X162560Y162979D02*
X162560Y5080D01*
X162560Y167043D02*
X162560Y263589D01*
X162560Y281876D02*
X162560Y296101D01*
X162560Y337221D02*
X162560Y435696D01*
X162560Y506009D02*
X162560Y637214D01*
X170688Y134020D02*
X170688Y5080D01*
X170688Y162979D02*
X170688Y167043D01*
X170688Y196002D02*
X170688Y263589D01*
X170688Y281876D02*
X170688Y296101D01*
X170688Y337221D02*
X170688Y418778D01*
X170688Y440377D02*
X170688Y443824D01*
X170688Y513595D02*
X170688Y614259D01*
X170688Y637214D02*
X170688Y641278D01*
X178816Y137366D02*
X178816Y5080D01*
X178816Y162979D02*
X178816Y167043D01*
X178816Y192656D02*
X178816Y263589D01*
X178816Y281876D02*
X178816Y296101D01*
X178816Y337221D02*
X178816Y415036D01*
X178816Y445071D02*
X178816Y496402D01*
X178816Y513753D02*
X178816Y616350D01*
X178816Y637214D02*
X178816Y641278D01*
X186944Y144140D02*
X186944Y5080D01*
X186944Y162979D02*
X186944Y167043D01*
X186944Y185883D02*
X186944Y260817D01*
X186944Y281876D02*
X186944Y296101D01*
X186944Y337811D02*
X186944Y355124D01*
X186944Y363220D02*
X186944Y363220D01*
X186944Y371316D02*
X186944Y415036D01*
X186944Y449331D02*
X186944Y655320D01*
X195072Y252689D02*
X195072Y5080D01*
X195072Y278552D02*
X195072Y281708D01*
X195072Y287337D02*
X195072Y287338D01*
X195072Y292967D02*
X195072Y296101D01*
X195072Y337653D02*
X195072Y360001D01*
X195072Y363220D02*
X195072Y363220D01*
X195072Y366439D02*
X195072Y415036D01*
X195072Y438721D02*
X195072Y438780D01*
X195072Y525125D02*
X195072Y655320D01*
X203200Y152168D02*
X203200Y5080D01*
X203200Y270424D02*
X203200Y281368D01*
X203200Y287337D02*
X203200Y287338D01*
X203200Y293307D02*
X203200Y296101D01*
X203200Y337221D02*
X203200Y348801D01*
X203200Y438721D02*
X203200Y655320D01*
X211328Y144040D02*
X211328Y5080D01*
X211328Y262296D02*
X211328Y296101D01*
X211328Y337221D02*
X211328Y345504D01*
X211328Y438721D02*
X211328Y655320D01*
X219456Y142304D02*
X219456Y5080D01*
X219456Y161776D02*
X219456Y295888D01*
X219456Y337221D02*
X219456Y338636D01*
X219456Y480626D02*
X219456Y630930D01*
X219456Y654310D02*
X219456Y655320D01*
X227584Y142304D02*
X227584Y5080D01*
X227584Y160591D02*
X227584Y204947D01*
X227584Y213042D02*
X227584Y213043D01*
X227584Y221138D02*
X227584Y274666D01*
X227584Y280987D02*
X227584Y280988D01*
X227584Y287309D02*
X227584Y300604D01*
X227584Y488927D02*
X227584Y554190D01*
X227584Y576110D02*
X227584Y606355D01*
X227584Y615482D02*
X227584Y616418D01*
X227584Y625545D02*
X227584Y627888D01*
X235712Y142304D02*
X235712Y5080D01*
X235712Y160591D02*
X235712Y209823D01*
X235712Y213042D02*
X235712Y213043D01*
X235712Y216262D02*
X235712Y264937D01*
X235712Y497055D02*
X235712Y552570D01*
X235712Y577730D02*
X235712Y604546D01*
X235712Y615482D02*
X235712Y616418D01*
X235712Y627354D02*
X235712Y628898D01*
X243840Y142304D02*
X243840Y5080D01*
X243840Y160591D02*
X243840Y197368D01*
X243840Y204587D02*
X243840Y256809D01*
X243840Y515852D02*
X243840Y557202D01*
X243840Y573098D02*
X243840Y609878D01*
X243840Y615482D02*
X243840Y616418D01*
X243840Y622022D02*
X243840Y631946D01*
X251968Y142304D02*
X251968Y5080D01*
X251968Y160591D02*
X251968Y176497D01*
X251968Y523980D02*
X251968Y627888D01*
X260096Y142304D02*
X260096Y5080D01*
X260096Y160591D02*
X260096Y167127D01*
X260096Y292272D02*
X260096Y295925D01*
X260096Y532108D02*
X260096Y627888D01*
X268224Y142304D02*
X268224Y5080D01*
X268224Y282511D02*
X268224Y304053D01*
X268224Y389449D02*
X268224Y401509D01*
X268224Y538541D02*
X268224Y632962D01*
X276352Y142304D02*
X276352Y5080D01*
X276352Y262493D02*
X276352Y269304D01*
X276352Y282511D02*
X276352Y346647D01*
X276352Y392259D02*
X276352Y417005D01*
X276352Y421005D02*
X276352Y421005D01*
X276352Y425005D02*
X276352Y451422D01*
X276352Y538734D02*
X276352Y555805D01*
X276352Y574495D02*
X276352Y606605D01*
X276352Y625295D02*
X276352Y627888D01*
X284480Y142304D02*
X284480Y5080D01*
X284480Y190314D02*
X284480Y199404D01*
X284480Y205091D02*
X284480Y217528D01*
X284480Y232687D02*
X284480Y271648D01*
X284480Y330517D02*
X284480Y346647D01*
X284480Y443805D02*
X284480Y451422D01*
X284480Y538734D02*
X284480Y552570D01*
X284480Y577730D02*
X284480Y603370D01*
X292608Y16790D02*
X292608Y16789D01*
X292608Y47472D02*
X292608Y47473D01*
X292608Y58632D02*
X292608Y59435D01*
X292608Y70105D02*
X292608Y142304D01*
X292608Y182686D02*
X292608Y218929D01*
X292608Y225107D02*
X292608Y225108D01*
X292608Y231286D02*
X292608Y273368D01*
X292608Y330517D02*
X292608Y351932D01*
X292608Y445627D02*
X292608Y451422D01*
X292608Y538734D02*
X292608Y555170D01*
X292608Y575130D02*
X292608Y605970D01*
X292608Y625930D02*
X292608Y633978D01*
X300736Y16790D02*
X300736Y16789D01*
X300736Y47472D02*
X300736Y47473D01*
X300736Y131864D02*
X300736Y142304D01*
X300736Y166624D02*
X300736Y273368D01*
X300736Y330517D02*
X300736Y360060D01*
X300736Y394529D02*
X300736Y451422D01*
X300736Y538734D02*
X300736Y556821D01*
X300736Y573479D02*
X300736Y607621D01*
X300736Y624279D02*
X300736Y627888D01*
X308864Y16790D02*
X308864Y16789D01*
X308864Y47472D02*
X308864Y47473D01*
X308864Y58632D02*
X308864Y64491D01*
X308864Y140883D02*
X308864Y142304D01*
X308864Y166624D02*
X308864Y252898D01*
X308864Y353801D02*
X308864Y373464D01*
X308864Y378777D02*
X308864Y378778D01*
X308864Y384091D02*
X308864Y450456D01*
X308864Y538734D02*
X308864Y552570D01*
X308864Y577730D02*
X308864Y603370D01*
X316992Y107188D02*
X316992Y5080D01*
X316992Y166624D02*
X316992Y244216D01*
X316992Y354531D02*
X316992Y450351D01*
X316992Y538734D02*
X316992Y554348D01*
X316992Y575952D02*
X316992Y605148D01*
X316992Y626752D02*
X316992Y633978D01*
X325120Y107188D02*
X325120Y5080D01*
X325120Y169456D02*
X325120Y236088D01*
X325120Y260413D02*
X325120Y273368D01*
X325120Y330517D02*
X325120Y349844D01*
X325120Y538734D02*
X325120Y557837D01*
X325120Y572463D02*
X325120Y608637D01*
X325120Y623263D02*
X325120Y627888D01*
X333248Y107188D02*
X333248Y5080D01*
X333248Y128714D02*
X333248Y142304D01*
X333248Y171734D02*
X333248Y227960D01*
X333248Y254259D02*
X333248Y293434D01*
X333248Y306641D02*
X333248Y341567D01*
X333248Y538734D02*
X333248Y552570D01*
X333248Y577730D02*
X333248Y603370D01*
X341376Y107188D02*
X341376Y5080D01*
X341376Y128714D02*
X341376Y142304D01*
X341376Y160591D02*
X341376Y219832D01*
X341376Y246131D02*
X341376Y293434D01*
X341376Y306641D02*
X341376Y340297D01*
X341376Y485626D02*
X341376Y495012D01*
X341376Y538734D02*
X341376Y553927D01*
X341376Y576373D02*
X341376Y604727D01*
X341376Y627173D02*
X341376Y632962D01*
X349504Y16790D02*
X349504Y16789D01*
X349504Y47472D02*
X349504Y47473D01*
X349504Y58647D02*
X349504Y107188D01*
X349504Y128714D02*
X349504Y142304D01*
X349504Y199671D02*
X349504Y211704D01*
X349504Y238003D02*
X349504Y249878D01*
X349504Y254635D02*
X349504Y254635D01*
X349504Y259392D02*
X349504Y293434D01*
X349504Y309484D02*
X349504Y318458D01*
X349504Y477498D02*
X349504Y504835D01*
X349504Y511800D02*
X349504Y520446D01*
X349504Y538734D02*
X349504Y560025D01*
X349504Y570275D02*
X349504Y614799D01*
X349504Y615482D02*
X349504Y616418D01*
X349504Y617101D02*
X349504Y627888D01*
X357632Y16790D02*
X357632Y16789D01*
X357632Y47472D02*
X357632Y47473D01*
X357632Y58647D02*
X357632Y107188D01*
X357632Y128714D02*
X357632Y144993D01*
X357632Y196981D02*
X357632Y203576D01*
X357632Y294442D02*
X357632Y296691D01*
X357632Y308464D02*
X357632Y310454D01*
X357632Y469370D02*
X357632Y485224D01*
X357632Y491490D02*
X357632Y491490D01*
X357632Y497756D02*
X357632Y520446D01*
X357632Y538734D02*
X357632Y552928D01*
X357632Y577372D02*
X357632Y604918D01*
X357632Y615482D02*
X357632Y616418D01*
X357632Y626982D02*
X357632Y627888D01*
X365760Y6998D02*
X365760Y5080D01*
X365760Y16789D02*
X365760Y16790D01*
X365760Y47472D02*
X365760Y47473D01*
X365760Y58647D02*
X365760Y107188D01*
X365760Y128714D02*
X365760Y195448D01*
X365760Y388852D02*
X365760Y422738D01*
X365760Y429577D02*
X365760Y429578D01*
X365760Y436417D02*
X365760Y486240D01*
X365760Y491490D02*
X365760Y491490D01*
X365760Y496740D02*
X365760Y520446D01*
X365760Y538734D02*
X365760Y553506D01*
X365760Y576794D02*
X365760Y605434D01*
X365760Y615482D02*
X365760Y616418D01*
X365760Y626466D02*
X365760Y631946D01*
X365760Y653294D02*
X365760Y655320D01*
X373888Y107188D02*
X373888Y5080D01*
X373888Y128714D02*
X373888Y192276D01*
X373888Y388556D02*
X373888Y442901D01*
X373888Y538734D02*
X373888Y655320D01*
X382016Y107188D02*
X382016Y5080D01*
X382016Y128714D02*
X382016Y156020D01*
X382016Y162979D02*
X382016Y167043D01*
X382016Y174002D02*
X382016Y192276D01*
X382016Y388556D02*
X382016Y443006D01*
X382016Y538734D02*
X382016Y655320D01*
X390144Y107188D02*
X390144Y5080D01*
X390144Y128714D02*
X390144Y142351D01*
X390144Y162979D02*
X390144Y167043D01*
X390144Y187671D02*
X390144Y192276D01*
X390144Y214884D02*
X390144Y310855D01*
X390144Y538734D02*
X390144Y538810D01*
X390144Y546100D02*
X390144Y546100D01*
X390144Y553390D02*
X390144Y566268D01*
X398272Y108124D02*
X398272Y5080D01*
X398272Y128961D02*
X398272Y136470D01*
X398272Y162979D02*
X398272Y167043D01*
X398272Y214884D02*
X398272Y318983D01*
X398272Y538734D02*
X398272Y539418D01*
X398272Y546100D02*
X398272Y546100D01*
X398272Y552782D02*
X398272Y564388D01*
X406400Y116887D02*
X406400Y5080D01*
X406400Y126318D02*
X406400Y133666D01*
X406400Y162979D02*
X406400Y167043D01*
X406400Y214884D02*
X406400Y310950D01*
X406400Y318135D02*
X406400Y318135D01*
X406400Y325320D02*
X406400Y327111D01*
X406400Y538734D02*
X406400Y564388D01*
X414528Y162979D02*
X414528Y5080D01*
X414528Y215900D02*
X414528Y215900D01*
X414528Y222582D02*
X414528Y311283D01*
X414528Y318135D02*
X414528Y318135D01*
X414528Y324987D02*
X414528Y335239D01*
X414528Y418506D02*
X414528Y423133D01*
X414528Y538734D02*
X414528Y564388D01*
X422656Y134621D02*
X422656Y5080D01*
X422656Y162979D02*
X422656Y167043D01*
X422656Y215900D02*
X422656Y215900D01*
X422656Y223190D02*
X422656Y343367D01*
X422656Y410378D02*
X422656Y451968D01*
X422656Y538734D02*
X422656Y564388D01*
X430784Y138643D02*
X430784Y5080D01*
X430784Y162979D02*
X430784Y167043D01*
X430784Y214884D02*
X430784Y459906D01*
X430784Y475449D02*
X430784Y495923D01*
X430784Y538734D02*
X430784Y564388D01*
X438912Y74061D02*
X438912Y5080D01*
X438912Y100564D02*
X438912Y146693D01*
X438912Y162979D02*
X438912Y167043D01*
X438912Y183329D02*
X438912Y185313D01*
X438912Y214754D02*
X438912Y248051D01*
X438912Y274554D02*
X438912Y422041D01*
X438912Y448544D02*
X438912Y494829D01*
X438912Y508317D02*
X438912Y508318D01*
X438912Y538734D02*
X438912Y564388D01*
X447040Y32859D02*
X447040Y5080D01*
X447040Y141766D02*
X447040Y185313D01*
X447040Y202819D02*
X447040Y206849D01*
X447040Y489746D02*
X447040Y499406D01*
X447040Y508317D02*
X447040Y508318D01*
X447040Y517229D02*
X447040Y520446D01*
X447040Y538734D02*
X447040Y564388D01*
X455168Y32068D02*
X455168Y5080D01*
X455168Y142557D02*
X455168Y185313D01*
X455168Y202819D02*
X455168Y206058D01*
X455168Y490537D02*
X455168Y520446D01*
X455168Y538734D02*
X455168Y564388D01*
X463296Y32068D02*
X463296Y5080D01*
X463296Y142557D02*
X463296Y185313D01*
X463296Y202819D02*
X463296Y206058D01*
X463296Y490537D02*
X463296Y520446D01*
X463296Y538734D02*
X463296Y564388D01*
X471424Y32068D02*
X471424Y5080D01*
X471424Y142557D02*
X471424Y185313D01*
X471424Y202819D02*
X471424Y206058D01*
X471424Y316547D02*
X471424Y380048D01*
X471424Y490537D02*
X471424Y520446D01*
X471424Y541188D02*
X471424Y564388D01*
X479552Y32068D02*
X479552Y5080D01*
X479552Y142557D02*
X479552Y185313D01*
X479552Y205038D02*
X479552Y206058D01*
X479552Y316547D02*
X479552Y380048D01*
X479552Y490537D02*
X479552Y523453D01*
X479552Y549316D02*
X479552Y564388D01*
X487680Y32068D02*
X487680Y5080D01*
X487680Y142557D02*
X487680Y148393D01*
X487680Y206037D02*
X487680Y206058D01*
X487680Y316547D02*
X487680Y322383D01*
X487680Y374212D02*
X487680Y380048D01*
X487680Y490537D02*
X487680Y531581D01*
X487680Y557444D02*
X487680Y564388D01*
X495808Y32068D02*
X495808Y5080D01*
X495808Y142557D02*
X495808Y146876D01*
X495808Y206037D02*
X495808Y206058D01*
X495808Y316547D02*
X495808Y320866D01*
X495808Y375729D02*
X495808Y380048D01*
X495808Y490537D02*
X495808Y539709D01*
X495808Y559125D02*
X495808Y564388D01*
X503936Y32068D02*
X503936Y5080D01*
X503936Y142557D02*
X503936Y149409D01*
X503936Y206037D02*
X503936Y206058D01*
X503936Y316547D02*
X503936Y323399D01*
X503936Y373196D02*
X503936Y380048D01*
X503936Y490537D02*
X503936Y564388D01*
X512064Y32068D02*
X512064Y5080D01*
X512064Y142557D02*
X512064Y149409D01*
X512064Y204983D02*
X512064Y206058D01*
X512064Y316547D02*
X512064Y323399D01*
X512064Y373196D02*
X512064Y380048D01*
X512064Y490537D02*
X512064Y655320D01*
X520192Y32068D02*
X520192Y5080D01*
X520192Y142557D02*
X520192Y146876D01*
X520192Y201739D02*
X520192Y206058D01*
X520192Y316547D02*
X520192Y320866D01*
X520192Y375729D02*
X520192Y380048D01*
X520192Y490537D02*
X520192Y595624D01*
X520192Y634492D02*
X520192Y635508D01*
X520192Y647494D02*
X520192Y655320D01*
X528320Y32068D02*
X528320Y5080D01*
X528320Y142557D02*
X528320Y148393D01*
X528320Y200222D02*
X528320Y206058D01*
X528320Y316547D02*
X528320Y322383D01*
X528320Y374212D02*
X528320Y380048D01*
X528320Y490537D02*
X528320Y594868D01*
X528320Y634492D02*
X528320Y635508D01*
X528320Y648684D02*
X528320Y655320D01*
X536448Y32068D02*
X536448Y5080D01*
X536448Y142557D02*
X536448Y150425D01*
X536448Y196708D02*
X536448Y206058D01*
X536448Y316547D02*
X536448Y324415D01*
X536448Y370698D02*
X536448Y380048D01*
X536448Y490537D02*
X536448Y598164D01*
X536448Y634492D02*
X536448Y635508D01*
X536448Y644954D02*
X536448Y655320D01*
X544576Y32068D02*
X544576Y5080D01*
X544576Y200691D02*
X544576Y206058D01*
X544576Y316547D02*
X544576Y320866D01*
X544576Y374681D02*
X544576Y380048D01*
X544576Y490537D02*
X544576Y596640D01*
X544576Y634492D02*
X544576Y635508D01*
X544576Y646478D02*
X544576Y655320D01*
X552704Y32068D02*
X552704Y5080D01*
X552704Y186499D02*
X552704Y187516D01*
X552704Y199756D02*
X552704Y206058D01*
X552704Y316547D02*
X552704Y321367D01*
X552704Y360489D02*
X552704Y361506D01*
X552704Y373746D02*
X552704Y380048D01*
X552704Y490537D02*
X552704Y594868D01*
X552704Y635508D02*
X552704Y655320D01*
X560832Y32068D02*
X560832Y5080D01*
X560832Y142557D02*
X560832Y206058D01*
X560832Y316547D02*
X560832Y380048D01*
X560832Y490537D02*
X560832Y597148D01*
X560832Y622052D02*
X560832Y624030D01*
X560832Y634492D02*
X560832Y635508D01*
X560832Y645970D02*
X560832Y655320D01*
X568960Y32068D02*
X568960Y5080D01*
X568960Y142557D02*
X568960Y206058D01*
X568960Y316547D02*
X568960Y380048D01*
X568960Y490537D02*
X568960Y655320D01*
D23*
X270510Y421005D03*
D24*
X228283Y213043D03*
X187643Y363220D03*
X410210Y318135D03*
X287338Y225108D03*
X88900Y546100D03*
X152400Y546100D03*
X419100Y215900D03*
X393700Y546100D03*
D23*
X199390Y287338D03*
D28*
X161946Y639246D02*
X92054Y639246D01*
X161946Y639246D02*
X209432Y639246D01*
X232728Y615950D02*
X233998Y615950D01*
X232728Y615950D02*
X209432Y639246D01*
X233998Y615950D02*
X253048Y596900D01*
X341948Y596900D02*
X360998Y615950D01*
X341948Y596900D02*
X253048Y596900D01*
X88900Y636092D02*
X88900Y546100D01*
X88900Y636092D02*
X92054Y639246D01*
X152400Y629700D02*
X152400Y546100D01*
X152400Y629700D02*
X161946Y639246D01*
D23*
X360998Y491490D03*
X230823Y280988D03*
D25*
X354013Y254635D03*
D22*
X149225Y435293D02*
X120015Y435293D01*
X149225Y435293D02*
X165100Y451168D01*
X165100Y495618D01*
X174943Y505460D01*
D24*
X174943Y505460D03*
D22*
X120015Y435293D02*
X43815Y435293D01*
D27*
X354330Y352108D03*
D29*
X383540Y352108D01*
D27*
X383540Y352108D03*
X356553Y363855D03*
D29*
X396240Y363855D01*
D27*
X396240Y363855D03*
X362268Y357823D03*
D29*
X389890Y357823D01*
D27*
X389890Y357823D03*
D23*
X262890Y407670D03*
X313055Y457518D03*
X339725Y448628D03*
D27*
X354330Y340678D03*
D29*
X313055Y457518D02*
X272098Y457518D01*
X262890Y448310D02*
X262890Y407670D01*
X262890Y448310D02*
X272098Y457518D01*
X354330Y345123D02*
X354330Y340678D01*
X341630Y446723D02*
X339725Y448628D01*
X341630Y357823D02*
X354330Y345123D01*
X341630Y357823D02*
X341630Y446723D01*
D27*
X360045Y346393D03*
D29*
X393700Y346393D01*
X409575Y362268D01*
X409575Y375920D01*
D27*
X409575Y375920D03*
D23*
X212725Y371793D03*
D30*
X212725Y399733D01*
D23*
X212725Y399733D03*
X241935Y422593D03*
D29*
X241935Y325120D01*
X249238Y317818D01*
X249555Y317818D01*
D27*
X249555Y317818D03*
X262255Y275908D03*
D31*
X282575Y279083D02*
X312420Y279083D01*
X327025Y279083D01*
D32*
X352743Y302578D03*
D30*
X350520Y300038D02*
X327025Y300038D01*
D31*
X327025Y279083D01*
D27*
X314325Y347663D03*
D31*
X312420Y324803D02*
X327025Y324803D01*
X327025Y300038D01*
D27*
X312420Y259398D03*
D30*
X312420Y279083D01*
X282575Y279083D02*
X279400Y275908D01*
X262255Y275908D01*
D23*
X227330Y359093D03*
X180340Y429578D03*
D30*
X312420Y345758D02*
X314325Y347663D01*
X312420Y345758D02*
X312420Y324803D01*
D31*
X282575Y324803D02*
X282575Y279083D01*
X282575Y324803D02*
X312420Y324803D01*
D22*
X322898Y491173D02*
X242761Y491173D01*
X322898Y491173D02*
X351790Y462280D01*
X351790Y389890D01*
X362268Y379413D01*
X382588Y379413D01*
X383223Y378778D01*
D25*
X383223Y378778D03*
D23*
X149225Y303213D03*
X215900Y303213D03*
D24*
X242761Y491173D03*
D26*
X215900Y303213D02*
X149225Y303213D01*
D22*
X227330Y475742D02*
X242761Y491173D01*
X227330Y475742D02*
X227330Y430213D01*
X227330Y359093D01*
X226695Y429578D02*
X227330Y430213D01*
X226695Y429578D02*
X180340Y429578D01*
D30*
X350520Y300038D02*
X352743Y302260D01*
X352743Y302578D01*
D23*
X251143Y200978D03*
D30*
X251143Y249238D01*
D27*
X260350Y327343D03*
D29*
X251143Y258128D02*
X251143Y249238D01*
X251143Y258128D02*
X240030Y269240D01*
X240030Y289243D01*
X256433Y305646D01*
X256521Y305646D01*
X260350Y309475D01*
X260350Y327343D01*
D27*
X359728Y287338D03*
D30*
X359728Y227965D01*
X379413Y208280D01*
X435293Y208280D01*
D27*
X435293Y208280D03*
X240665Y296863D03*
D30*
X219410Y318118D01*
X146050Y318435D01*
D23*
X146050Y318435D03*
D27*
X247650Y303848D03*
D30*
X220880Y330618D01*
X190818Y330618D01*
D23*
X96520Y330618D03*
D30*
X190818Y330618D01*
D23*
X190818Y330618D03*
D27*
X349250Y327978D03*
D23*
X370205Y246380D03*
D30*
X370205Y307340D01*
X349250Y327978D01*
D27*
X235962Y331470D03*
D30*
X215324Y352108D01*
X209233Y352108D01*
D25*
X195263Y517525D03*
D30*
X204788Y356553D02*
X209233Y352108D01*
X185420Y438468D02*
X178118Y438468D01*
X204788Y416243D02*
X204788Y356553D01*
X204788Y416243D02*
X199390Y421640D01*
X177165Y421640D01*
X173355Y425450D01*
X173355Y433705D01*
X178118Y438468D01*
X195263Y448310D02*
X195263Y517525D01*
X195263Y448310D02*
X185420Y438468D01*
D23*
X254635Y422593D03*
D29*
X254635Y311150D01*
D27*
X254635Y311150D03*
X399415Y385763D03*
X346710Y366713D03*
D29*
X399415Y375285D02*
X399415Y385763D01*
X399415Y375285D02*
X392748Y368618D01*
D27*
X405130Y404178D03*
D29*
X399415Y398463D01*
X399415Y385763D01*
X348615Y368618D02*
X346710Y366713D01*
X348615Y368618D02*
X392748Y368618D01*
D27*
X341948Y347663D03*
D23*
X259715Y476568D03*
D29*
X318770Y476568D01*
X341948Y350838D02*
X341948Y347663D01*
X335598Y441643D02*
X331788Y445453D01*
X335598Y357188D02*
X341948Y350838D01*
X335598Y357188D02*
X335598Y441643D01*
X331788Y445453D02*
X331788Y463550D01*
X318770Y476568D01*
D27*
X334328Y348933D03*
D23*
X240030Y465773D03*
D29*
X318135Y465773D01*
X327025Y439738D02*
X330518Y436245D01*
X327025Y439738D02*
X327025Y456883D01*
X318135Y465773D01*
X330518Y352743D02*
X334328Y348933D01*
X330518Y352743D02*
X330518Y436245D01*
D27*
X259715Y357188D03*
D29*
X266700Y357188D01*
X274320Y364808D01*
D27*
X274320Y385128D03*
D29*
X274320Y364808D01*
D27*
X258128Y285115D03*
D30*
X270510Y194945D02*
X290830Y174625D01*
D23*
X290830Y174625D03*
D30*
X270510Y194945D02*
X270510Y240348D01*
D29*
X270510Y260668D01*
X257175Y274003D01*
X257175Y284163D01*
X258128Y285115D01*
D27*
X252095Y289878D03*
D30*
X264160Y244158D02*
X264160Y188913D01*
X286385Y166688D01*
D23*
X286385Y166688D03*
D29*
X264160Y244158D02*
X264160Y259398D01*
X252413Y271145D01*
X252413Y289560D02*
X252095Y289878D01*
X252413Y289560D02*
X252413Y271145D01*
D23*
X276860Y202248D03*
D30*
X276860Y244158D01*
D27*
X276860Y244158D03*
D23*
X311150Y133033D03*
X298768Y64770D03*
D26*
X307340Y129223D02*
X311150Y133033D01*
X307340Y129223D02*
X307340Y114300D01*
X307340Y73025D01*
X299085Y64770D01*
X298768Y64770D01*
X307340Y114300D02*
X393700Y114300D01*
D25*
X393700Y114300D03*
D27*
X317500Y253048D03*
D30*
X437005Y191917D02*
X490391Y191917D01*
X437005Y191917D02*
X430041Y198880D01*
X490391Y191917D02*
X495300Y187008D01*
X371667Y198880D02*
X317500Y253048D01*
X371667Y198880D02*
X430041Y198880D01*
D27*
X325120Y253048D03*
D30*
X431800Y203200D02*
X438785Y196215D01*
X480060Y196215D01*
X508274Y199434D02*
X520700Y187008D01*
X508274Y199434D02*
X483279Y199434D01*
X480060Y196215D01*
X374968Y203200D02*
X325120Y253048D01*
X374968Y203200D02*
X431800Y203200D01*
D27*
X285750Y361315D03*
D29*
X289878Y365443D01*
X289878Y438785D01*
D27*
X289878Y438785D03*
D23*
X263208Y508318D03*
D30*
X282575Y508318D01*
X282893Y508000D01*
D23*
X282893Y508000D03*
D27*
X349250Y335598D03*
D29*
X378460Y335598D01*
D27*
X378460Y335598D03*
D24*
X145733Y448945D03*
X151448Y475615D03*
D26*
X151448Y454660D01*
X145733Y448945D01*
D27*
X393065Y385763D03*
D26*
X393065Y493078D01*
X401599Y501612D01*
X401599Y508318D01*
D23*
X413703Y445135D03*
D26*
X413703Y453073D01*
X428308Y467678D01*
D23*
X428308Y467678D03*
D22*
X455295Y435293D02*
X455295Y261303D01*
X455295Y435293D02*
X531495Y435293D01*
X531495Y261303D02*
X455295Y261303D01*
D25*
X406400Y584200D03*
X495300Y584200D03*
D27*
X296228Y388620D03*
D29*
X258445Y257810D02*
X258445Y247015D01*
D30*
X258445Y178118D01*
X326073Y160020D02*
X330835Y164783D01*
D33*
X330835Y164783D03*
D29*
X245745Y290195D02*
X266065Y310515D01*
X245745Y290195D02*
X245745Y270510D01*
X258445Y257810D01*
D30*
X258445Y178118D02*
X276543Y160020D01*
X326073Y160020D01*
D29*
X284798Y352743D02*
X269240Y352743D01*
X266065Y349568D01*
X266065Y310515D01*
X295593Y387985D02*
X296228Y388620D01*
X295593Y363538D02*
X284798Y352743D01*
X295593Y363538D02*
X295593Y387985D01*
D22*
X120015Y261303D02*
X43815Y261303D01*
X43815Y87313D02*
X120015Y87313D01*
X43815Y87313D02*
X43815Y261303D01*
X531495Y87313D02*
X546100Y101918D01*
X546100Y161608D01*
X531495Y87313D02*
X455295Y87313D01*
M02*
