M48
;GenerationSoftware,Autodesk,EAGLE,9.0.0*%
;CreationDate,2018-05-19T07:41:29Z*%
FMAT,2
ICI,OFF
METRIC,TZ,000.000
T8C0.203
T7C0.254
T6C0.650
T5C0.700
T4C1.000
T3C1.016
T2C1.854
T1C3.734
%
G90
M71
T1
X41270Y16501
X16271Y16501
T2
X45529Y26130
X53149Y26130
X53149Y43529
X45529Y43529
X4382Y26130
X4382Y8731
X12001Y43529
X53149Y8731
X4382Y43529
X12001Y8731
X45529Y8731
X12001Y26130
T3
X55245Y60960
X52070Y18701
X49530Y18701
X52705Y60960
X52070Y16161
X6350Y33528
X54610Y33560
X3810Y33528
X3810Y36068
X54610Y16161
X52070Y33560
X49530Y33560
X6350Y36068
X52070Y36100
X54610Y36100
X49530Y36100
X49530Y16161
X54610Y18701
X22860Y64262
X25400Y64262
X27940Y64262
X35560Y64262
X33020Y64262
X30480Y64262
X55245Y63500
X52705Y63500
T4
X31020Y61595
X28480Y61595
X23400Y61595
X31020Y56515
X23400Y56515
X36100Y56515
X33560Y56515
X36100Y61595
X33560Y61595
X28480Y56515
T5
X33500Y50832
X40160Y50832
X30094Y1679
X43660Y50832
X30000Y50832
X35565Y1679
T6
X35255Y4747
X30404Y4747
T7
X22828Y21304
X18764Y36322
X41021Y31813
X28734Y22511
X8890Y54610
X41910Y21590
X39370Y54610
X19939Y28734
X36100Y49149
X23082Y28099
X35401Y25463
X17494Y50546
X21273Y37179
X21273Y39973
X22733Y35909
X18034Y42958
X38322Y37878
X14922Y30321
X24276Y49117
X14605Y31843
X9652Y33062
X19082Y33062
X19526Y51752
X15240Y54610
X31115Y13303
X29877Y6477
X39370Y11430
X14573Y44894
X15145Y47561
X41370Y44513
X42831Y46768
X40640Y58420
X49530Y58420
X15811Y27273
X37783Y45117
X24670Y50578
X37910Y21956
X35116Y19053
X35116Y15145
X31496Y12319
X35719Y52959
X49339Y55023
X40037Y12160
X36386Y42958
X41466Y43021
X30416Y37878
X27051Y42101
T8
X29083Y17463
X25813Y28511
X27432Y38513
X25971Y35719
X24003Y46577
X33433Y34893
X25971Y47657
X34195Y34766
X40513Y40418
X34671Y36671
X39942Y38576
X25463Y31115
X25463Y42259
X23596Y33147
X37021Y24638
X34925Y32798
X24765Y30385
X24066Y29686
X43529Y20828
X35973Y28734
X26035Y32734
X25114Y20098
X21590Y30321
X31242Y25940
X31432Y34766
X35274Y30258
X26225Y27591
X24955Y31782
X24193Y42259
X40958Y37592
X36005Y34639
X35433Y34068
X33973Y44863
X31305Y45752
X26289Y40767
X38989Y35782
X28988Y43878
X36227Y35782
X39624Y36386
X35655Y36386
X38354Y35211
X35433Y35211
X30734Y34766
X26321Y50832
X28289Y50800
X34925Y33560
X37846Y33560
X27686Y24416
X27686Y20225
X39307Y38576
X31750Y25305
X32512Y25305
X28575Y36132
X28638Y16669
X29623Y38862
X33084Y16478
X25209Y28988
M30