G04 EAGLE Gerber X2 export*
%TF.Part,Single*%
%TF.FileFunction,Legend,Bot,1*%
%TF.FilePolarity,Positive*%
%TF.GenerationSoftware,Autodesk,EAGLE,9.2.2*%
%TF.CreationDate,2019-01-17T14:04:39Z*%
G75*
%MOMM*%
%FSLAX34Y34*%
%LPD*%
%INSilkscreen Bottom*%
%AMOC8*
5,1,8,0,0,1.08239X$1,22.5*%
G01*
%ADD10C,0.254000*%
%ADD11C,0.330200*%
%ADD12C,0.304800*%
%ADD13C,0.203200*%
%ADD14R,36.830000X5.080000*%
%ADD15C,0.406400*%


D10*
X364830Y168656D02*
X360932Y168656D01*
X362881Y168656D02*
X362881Y180350D01*
X364830Y180350D02*
X360932Y180350D01*
X356098Y176452D02*
X356098Y168656D01*
X356098Y172554D02*
X352200Y176452D01*
X350251Y176452D01*
X345184Y176452D02*
X343235Y176452D01*
X343235Y168656D01*
X345184Y168656D02*
X341286Y168656D01*
X343235Y180350D02*
X343235Y182299D01*
X328656Y180350D02*
X328656Y168656D01*
X334503Y168656D01*
X336452Y170605D01*
X336452Y174503D01*
X334503Y176452D01*
X328656Y176452D01*
X323355Y176452D02*
X321406Y176452D01*
X321406Y168656D01*
X323355Y168656D02*
X319457Y168656D01*
X321406Y180350D02*
X321406Y182299D01*
X314624Y176452D02*
X314624Y170605D01*
X312675Y168656D01*
X306828Y168656D01*
X306828Y176452D01*
X301526Y176452D02*
X301526Y168656D01*
X301526Y176452D02*
X299577Y176452D01*
X297628Y174503D01*
X297628Y168656D01*
X297628Y174503D02*
X295679Y176452D01*
X293730Y174503D01*
X293730Y168656D01*
X275332Y170605D02*
X273383Y168656D01*
X269485Y168656D01*
X267536Y170605D01*
X267536Y178401D01*
X269485Y180350D01*
X273383Y180350D01*
X275332Y178401D01*
X275332Y176452D01*
X273383Y174503D01*
X267536Y174503D01*
X258337Y178401D02*
X254439Y180350D01*
X258337Y178401D02*
X262235Y174503D01*
X262235Y170605D01*
X260286Y168656D01*
X256388Y168656D01*
X254439Y170605D01*
X254439Y172554D01*
X256388Y174503D01*
X262235Y174503D01*
X249137Y170605D02*
X249137Y178401D01*
X247188Y180350D01*
X243290Y180350D01*
X241341Y178401D01*
X241341Y170605D01*
X243290Y168656D01*
X247188Y168656D01*
X249137Y170605D01*
X241341Y178401D01*
X236040Y178401D02*
X234091Y180350D01*
X230193Y180350D01*
X228244Y178401D01*
X228244Y176452D01*
X230193Y174503D01*
X232142Y174503D01*
X230193Y174503D02*
X228244Y172554D01*
X228244Y170605D01*
X230193Y168656D01*
X234091Y168656D01*
X236040Y170605D01*
X222943Y168656D02*
X222943Y180350D01*
X215147Y168656D01*
X215147Y180350D01*
X346275Y159014D02*
X346275Y147320D01*
X346275Y159014D02*
X340428Y159014D01*
X338479Y157065D01*
X338479Y155116D01*
X340428Y153167D01*
X338479Y151218D01*
X338479Y149269D01*
X340428Y147320D01*
X346275Y147320D01*
X346275Y153167D02*
X340428Y153167D01*
X331229Y147320D02*
X327331Y147320D01*
X331229Y147320D02*
X333178Y149269D01*
X333178Y153167D01*
X331229Y155116D01*
X327331Y155116D01*
X325382Y153167D01*
X325382Y151218D01*
X333178Y151218D01*
X318132Y155116D02*
X314234Y155116D01*
X312285Y153167D01*
X312285Y147320D01*
X318132Y147320D01*
X320081Y149269D01*
X318132Y151218D01*
X312285Y151218D01*
X305035Y155116D02*
X299188Y155116D01*
X305035Y155116D02*
X306983Y153167D01*
X306983Y149269D01*
X305035Y147320D01*
X299188Y147320D01*
X291937Y147320D02*
X288039Y147320D01*
X286090Y149269D01*
X286090Y153167D01*
X288039Y155116D01*
X291937Y155116D01*
X293886Y153167D01*
X293886Y149269D01*
X291937Y147320D01*
X280789Y147320D02*
X280789Y155116D01*
X274942Y155116D01*
X272993Y153167D01*
X272993Y147320D01*
X254594Y151218D02*
X254594Y159014D01*
X254594Y151218D02*
X250697Y147320D01*
X246799Y151218D01*
X246799Y159014D01*
X241497Y159014D02*
X233701Y159014D01*
X241497Y159014D02*
X241497Y153167D01*
X237599Y155116D01*
X235650Y155116D01*
X233701Y153167D01*
X233701Y149269D01*
X235650Y147320D01*
X239548Y147320D01*
X241497Y149269D01*
D11*
X431215Y490544D02*
X440875Y490544D01*
X338957Y490544D02*
X329297Y490544D01*
X304985Y490226D02*
X295325Y490226D01*
X300155Y495056D02*
X300155Y485396D01*
X397560Y489591D02*
X407220Y489591D01*
X402390Y494421D02*
X402390Y484761D01*
D12*
X393700Y609600D02*
X419100Y609600D01*
X393700Y609600D02*
X368300Y635000D01*
X348298Y590233D02*
X406718Y590233D01*
X348298Y590233D02*
X348298Y621983D01*
X338773Y631508D01*
X381318Y571500D02*
X419100Y571500D01*
X381318Y571500D02*
X374968Y577850D01*
X323215Y577850D01*
X323215Y622300D01*
X313373Y632143D01*
X203200Y609600D02*
X184468Y609600D01*
X203200Y609600D02*
X222885Y629285D01*
X254318Y590550D02*
X184468Y590550D01*
X254318Y590550D02*
X254318Y628333D01*
X203200Y571500D02*
X184785Y571500D01*
X203200Y571500D02*
X211773Y580073D01*
X266700Y580073D01*
X266700Y622300D01*
X273685Y629285D01*
D13*
X392684Y388503D02*
X392684Y376301D01*
X392684Y388503D02*
X386583Y388503D01*
X384549Y386470D01*
X384549Y382402D01*
X386583Y380368D01*
X392684Y380368D01*
X379587Y388503D02*
X377553Y388503D01*
X377553Y376301D01*
X379587Y376301D02*
X375519Y376301D01*
X368822Y376301D02*
X364754Y376301D01*
X368822Y376301D02*
X370855Y378335D01*
X370855Y382402D01*
X368822Y384436D01*
X364754Y384436D01*
X362720Y382402D01*
X362720Y380368D01*
X370855Y380368D01*
X355724Y384436D02*
X351657Y384436D01*
X349623Y382402D01*
X349623Y376301D01*
X355724Y376301D01*
X357758Y378335D01*
X355724Y380368D01*
X349623Y380368D01*
X344661Y376301D02*
X338560Y376301D01*
X336526Y378335D01*
X338560Y380368D01*
X342627Y380368D01*
X344661Y382402D01*
X342627Y384436D01*
X336526Y384436D01*
X329530Y376301D02*
X325462Y376301D01*
X329530Y376301D02*
X331564Y378335D01*
X331564Y382402D01*
X329530Y384436D01*
X325462Y384436D01*
X323429Y382402D01*
X323429Y380368D01*
X331564Y380368D01*
X305369Y376301D02*
X305369Y384436D01*
X301302Y384436D02*
X305369Y380368D01*
X301302Y384436D02*
X299268Y384436D01*
X292421Y376301D02*
X288353Y376301D01*
X292421Y376301D02*
X294455Y378335D01*
X294455Y382402D01*
X292421Y384436D01*
X288353Y384436D01*
X286320Y382402D01*
X286320Y380368D01*
X294455Y380368D01*
X279324Y378335D02*
X279324Y386470D01*
X279324Y378335D02*
X277290Y376301D01*
X277290Y384436D02*
X281357Y384436D01*
X272626Y384436D02*
X272626Y378335D01*
X270592Y376301D01*
X264491Y376301D01*
X264491Y384436D01*
X259529Y384436D02*
X259529Y376301D01*
X259529Y380368D02*
X255461Y384436D01*
X253427Y384436D01*
X248614Y384436D02*
X248614Y376301D01*
X248614Y384436D02*
X242513Y384436D01*
X240479Y382402D01*
X240479Y376301D01*
X220386Y378335D02*
X220386Y386470D01*
X220386Y378335D02*
X218352Y376301D01*
X218352Y384436D02*
X222420Y384436D01*
X211655Y376301D02*
X207587Y376301D01*
X205553Y378335D01*
X205553Y382402D01*
X207587Y384436D01*
X211655Y384436D01*
X213688Y382402D01*
X213688Y378335D01*
X211655Y376301D01*
X200591Y384436D02*
X198557Y384436D01*
X198557Y382402D01*
X200591Y382402D01*
X200591Y384436D01*
X200591Y378335D02*
X198557Y378335D01*
X198557Y376301D01*
X200591Y376301D01*
X200591Y378335D01*
D14*
X285750Y342900D03*
D12*
X524828Y586423D02*
X524828Y594360D01*
X527050Y596583D01*
X541973Y598488D02*
X541973Y586105D01*
X541973Y598488D02*
X543243Y599758D01*
X558483Y593725D02*
X558483Y585788D01*
X558483Y593725D02*
X566420Y601663D01*
X566420Y621348D01*
X561975Y625793D01*
X508635Y616903D02*
X508635Y585470D01*
X508635Y616903D02*
X517525Y625793D01*
D13*
X480114Y586396D02*
X480114Y579278D01*
X480114Y586396D02*
X485453Y586396D01*
X483673Y582837D01*
X483673Y581058D01*
X485453Y579278D01*
X489012Y579278D01*
X490792Y581058D01*
X490792Y584617D01*
X489012Y586396D01*
X489012Y574703D02*
X490792Y574703D01*
X489012Y574703D02*
X489012Y572923D01*
X490792Y572923D01*
X490792Y574703D01*
X480114Y568856D02*
X480114Y561737D01*
X480114Y568856D02*
X485453Y568856D01*
X483673Y565297D01*
X483673Y563517D01*
X485453Y561737D01*
X489012Y561737D01*
X490792Y563517D01*
X490792Y567076D01*
X489012Y568856D01*
X487232Y557162D02*
X480114Y557162D01*
X487232Y557162D02*
X490792Y553603D01*
X487232Y550044D01*
X480114Y550044D01*
X480114Y533774D02*
X490792Y533774D01*
X483673Y530215D02*
X480114Y533774D01*
X483673Y530215D02*
X480114Y526656D01*
X490792Y526656D01*
X490792Y522080D02*
X483673Y522080D01*
X480114Y518521D01*
X483673Y514962D01*
X490792Y514962D01*
X485453Y514962D02*
X485453Y522080D01*
X480114Y510386D02*
X490792Y503268D01*
X490792Y510386D02*
X480114Y503268D01*
X201335Y551886D02*
X199555Y553666D01*
X195996Y553666D01*
X194217Y551886D01*
X194217Y550107D01*
X195996Y548327D01*
X197776Y548327D01*
X195996Y548327D02*
X194217Y546548D01*
X194217Y544768D01*
X195996Y542989D01*
X199555Y542989D01*
X201335Y544768D01*
X189641Y544768D02*
X189641Y551886D01*
X187862Y553666D01*
X184302Y553666D01*
X182523Y551886D01*
X182523Y544768D01*
X184302Y542989D01*
X187862Y542989D01*
X189641Y544768D01*
X182523Y551886D01*
X177947Y553666D02*
X177947Y546548D01*
X174388Y542989D01*
X170829Y546548D01*
X170829Y553666D01*
X166253Y553666D02*
X166253Y542989D01*
X160915Y542989D01*
X159135Y544768D01*
X159135Y551886D01*
X160915Y553666D01*
X166253Y553666D01*
X149221Y553666D02*
X147441Y551886D01*
X149221Y553666D02*
X152780Y553666D01*
X154559Y551886D01*
X154559Y544768D01*
X152780Y542989D01*
X149221Y542989D01*
X147441Y544768D01*
X131171Y542989D02*
X124053Y542989D01*
X131171Y542989D02*
X124053Y550107D01*
X124053Y551886D01*
X125833Y553666D01*
X129392Y553666D01*
X131171Y551886D01*
X119477Y550107D02*
X119477Y542989D01*
X119477Y550107D02*
X115918Y553666D01*
X112359Y550107D01*
X112359Y542989D01*
X112359Y548327D02*
X119477Y548327D01*
X172100Y534616D02*
X172100Y523939D01*
X168541Y531057D02*
X172100Y534616D01*
X168541Y531057D02*
X164982Y534616D01*
X164982Y523939D01*
X160406Y523939D02*
X160406Y531057D01*
X156847Y534616D01*
X153288Y531057D01*
X153288Y523939D01*
X153288Y529277D02*
X160406Y529277D01*
X148712Y534616D02*
X141594Y523939D01*
X148712Y523939D02*
X141594Y534616D01*
D15*
X192405Y397193D02*
X395605Y397193D01*
X192405Y397193D02*
X192405Y429451D01*
X192405Y442151D01*
X192405Y473393D01*
X395605Y473393D01*
X395605Y397193D01*
X192405Y429451D02*
X179705Y429451D01*
X179705Y442151D01*
X192405Y442151D01*
X370205Y435293D02*
X382905Y435293D01*
X217805Y435293D02*
X205105Y435293D01*
X211455Y428943D02*
X211455Y441643D01*
X179705Y299403D02*
X382905Y299403D01*
X382905Y267145D01*
X382905Y254445D01*
X382905Y223203D01*
X179705Y223203D01*
X179705Y299403D01*
X382905Y267145D02*
X395605Y267145D01*
X395605Y254445D01*
X382905Y254445D01*
X205105Y261303D02*
X192405Y261303D01*
X357505Y261303D02*
X370205Y261303D01*
X363855Y267653D02*
X363855Y254953D01*
X395605Y49213D02*
X192405Y49213D01*
X192405Y81471D01*
X192405Y94171D01*
X192405Y125413D01*
X395605Y125413D01*
X395605Y49213D01*
X192405Y81471D02*
X179705Y81471D01*
X179705Y94171D01*
X192405Y94171D01*
X370205Y87313D02*
X382905Y87313D01*
X217805Y87313D02*
X205105Y87313D01*
X211455Y80963D02*
X211455Y93663D01*
D13*
X176022Y603758D02*
X176022Y614435D01*
X168904Y603758D01*
X168904Y614435D01*
X158989Y614435D02*
X157210Y612656D01*
X158989Y614435D02*
X162549Y614435D01*
X164328Y612656D01*
X164328Y605538D01*
X162549Y603758D01*
X158989Y603758D01*
X157210Y605538D01*
X152634Y610876D02*
X149075Y614435D01*
X149075Y603758D01*
X152634Y603758D02*
X145516Y603758D01*
X168904Y593923D02*
X170683Y595703D01*
X174243Y595703D01*
X176022Y593923D01*
X176022Y586805D01*
X174243Y585026D01*
X170683Y585026D01*
X168904Y586805D01*
X162549Y595703D02*
X158989Y595703D01*
X162549Y595703D02*
X164328Y593923D01*
X164328Y586805D01*
X162549Y585026D01*
X158989Y585026D01*
X157210Y586805D01*
X157210Y593923D01*
X158989Y595703D01*
X152634Y595703D02*
X152634Y585026D01*
X149075Y592144D02*
X152634Y595703D01*
X149075Y592144D02*
X145516Y595703D01*
X145516Y585026D01*
X140940Y592144D02*
X137381Y595703D01*
X137381Y585026D01*
X140940Y585026D02*
X133822Y585026D01*
X176022Y576335D02*
X176022Y565658D01*
X168904Y565658D02*
X176022Y576335D01*
X168904Y576335D02*
X168904Y565658D01*
X162549Y576335D02*
X158989Y576335D01*
X162549Y576335D02*
X164328Y574556D01*
X164328Y567438D01*
X162549Y565658D01*
X158989Y565658D01*
X157210Y567438D01*
X157210Y574556D01*
X158989Y576335D01*
X152634Y572776D02*
X149075Y576335D01*
X149075Y565658D01*
X152634Y565658D02*
X145516Y565658D01*
X455994Y604139D02*
X455994Y614816D01*
X448875Y604139D01*
X448875Y614816D01*
X442520Y614816D02*
X438961Y614816D01*
X442520Y614816D02*
X444300Y613037D01*
X444300Y605919D01*
X442520Y604139D01*
X438961Y604139D01*
X437181Y605919D01*
X437181Y613037D01*
X438961Y614816D01*
X432606Y604139D02*
X425488Y604139D01*
X432606Y604139D02*
X425488Y611257D01*
X425488Y613037D01*
X427267Y614816D01*
X430826Y614816D01*
X432606Y613037D01*
X450655Y595766D02*
X448875Y593987D01*
X450655Y595766D02*
X454214Y595766D01*
X455994Y593987D01*
X455994Y586869D01*
X454214Y585089D01*
X450655Y585089D01*
X448875Y586869D01*
X442520Y595766D02*
X438961Y595766D01*
X442520Y595766D02*
X444300Y593987D01*
X444300Y586869D01*
X442520Y585089D01*
X438961Y585089D01*
X437181Y586869D01*
X437181Y593987D01*
X438961Y595766D01*
X432606Y595766D02*
X432606Y585089D01*
X429047Y592207D02*
X432606Y595766D01*
X429047Y592207D02*
X425488Y595766D01*
X425488Y585089D01*
X420912Y585089D02*
X413794Y585089D01*
X420912Y585089D02*
X413794Y592207D01*
X413794Y593987D01*
X415573Y595766D01*
X419132Y595766D01*
X420912Y593987D01*
X455994Y577034D02*
X455994Y566357D01*
X448875Y566357D02*
X455994Y577034D01*
X448875Y577034D02*
X448875Y566357D01*
X438961Y577034D02*
X437181Y575254D01*
X438961Y577034D02*
X442520Y577034D01*
X444300Y575254D01*
X444300Y568136D01*
X442520Y566357D01*
X438961Y566357D01*
X437181Y568136D01*
X432606Y566357D02*
X425488Y566357D01*
X432606Y566357D02*
X425488Y573475D01*
X425488Y575254D01*
X427267Y577034D01*
X430826Y577034D01*
X432606Y575254D01*
X553266Y578671D02*
X555046Y576891D01*
X553266Y578671D02*
X553266Y582230D01*
X555046Y584010D01*
X556825Y584010D01*
X558605Y582230D01*
X558605Y578671D01*
X560384Y576891D01*
X562164Y576891D01*
X563944Y578671D01*
X563944Y582230D01*
X562164Y584010D01*
X553266Y570536D02*
X553266Y566977D01*
X553266Y570536D02*
X555046Y572316D01*
X562164Y572316D01*
X563944Y570536D01*
X563944Y566977D01*
X562164Y565197D01*
X555046Y565197D01*
X553266Y566977D01*
X553266Y560622D02*
X563944Y560622D01*
X563944Y553504D01*
X563944Y548928D02*
X556825Y548928D01*
X553266Y545369D01*
X556825Y541810D01*
X563944Y541810D01*
X558605Y541810D02*
X558605Y548928D01*
X563944Y537234D02*
X553266Y537234D01*
X553266Y531895D01*
X555046Y530116D01*
X558605Y530116D01*
X560384Y531895D01*
X560384Y537234D01*
X560384Y533675D02*
X563944Y530116D01*
X556825Y525540D02*
X553266Y521981D01*
X563944Y521981D01*
X563944Y525540D02*
X563944Y518422D01*
X558605Y513846D02*
X558605Y506728D01*
X505198Y576256D02*
X503419Y578036D01*
X503419Y581595D01*
X505198Y583375D01*
X506978Y583375D01*
X508757Y581595D01*
X508757Y578036D01*
X510537Y576256D01*
X512317Y576256D01*
X514096Y578036D01*
X514096Y581595D01*
X512317Y583375D01*
X503419Y569901D02*
X503419Y566342D01*
X503419Y569901D02*
X505198Y571681D01*
X512317Y571681D01*
X514096Y569901D01*
X514096Y566342D01*
X512317Y564562D01*
X505198Y564562D01*
X503419Y566342D01*
X503419Y559987D02*
X514096Y559987D01*
X514096Y552869D01*
X514096Y548293D02*
X506978Y548293D01*
X503419Y544734D01*
X506978Y541175D01*
X514096Y541175D01*
X508757Y541175D02*
X508757Y548293D01*
X503419Y536599D02*
X514096Y536599D01*
X503419Y536599D02*
X503419Y531260D01*
X505198Y529481D01*
X508757Y529481D01*
X510537Y531260D01*
X510537Y536599D01*
X510537Y533040D02*
X514096Y529481D01*
X514096Y524905D02*
X514096Y517787D01*
X514096Y524905D02*
X506978Y517787D01*
X505198Y517787D01*
X503419Y519566D01*
X503419Y523125D01*
X505198Y524905D01*
X508757Y513211D02*
X508757Y506093D01*
X538536Y576574D02*
X536756Y578353D01*
X536756Y581913D01*
X538536Y583692D01*
X540315Y583692D01*
X542095Y581913D01*
X542095Y578353D01*
X543874Y576574D01*
X545654Y576574D01*
X547434Y578353D01*
X547434Y581913D01*
X545654Y583692D01*
X536756Y570219D02*
X536756Y566659D01*
X536756Y570219D02*
X538536Y571998D01*
X545654Y571998D01*
X547434Y570219D01*
X547434Y566659D01*
X545654Y564880D01*
X538536Y564880D01*
X536756Y566659D01*
X536756Y560304D02*
X547434Y560304D01*
X547434Y553186D01*
X547434Y548610D02*
X540315Y548610D01*
X536756Y545051D01*
X540315Y541492D01*
X547434Y541492D01*
X542095Y541492D02*
X542095Y548610D01*
X547434Y536916D02*
X536756Y536916D01*
X536756Y531578D01*
X538536Y529798D01*
X542095Y529798D01*
X543874Y531578D01*
X543874Y536916D01*
X543874Y533357D02*
X547434Y529798D01*
X540315Y525222D02*
X536756Y521663D01*
X547434Y521663D01*
X547434Y525222D02*
X547434Y518104D01*
X542095Y513528D02*
X542095Y506410D01*
X538536Y509969D02*
X545654Y509969D01*
X521391Y576574D02*
X519611Y578353D01*
X519611Y581913D01*
X521391Y583692D01*
X523170Y583692D01*
X524950Y581913D01*
X524950Y578353D01*
X526729Y576574D01*
X528509Y576574D01*
X530289Y578353D01*
X530289Y581913D01*
X528509Y583692D01*
X519611Y570219D02*
X519611Y566659D01*
X519611Y570219D02*
X521391Y571998D01*
X528509Y571998D01*
X530289Y570219D01*
X530289Y566659D01*
X528509Y564880D01*
X521391Y564880D01*
X519611Y566659D01*
X519611Y560304D02*
X530289Y560304D01*
X530289Y553186D01*
X530289Y548610D02*
X523170Y548610D01*
X519611Y545051D01*
X523170Y541492D01*
X530289Y541492D01*
X524950Y541492D02*
X524950Y548610D01*
X530289Y536916D02*
X519611Y536916D01*
X519611Y531578D01*
X521391Y529798D01*
X524950Y529798D01*
X526729Y531578D01*
X526729Y536916D01*
X526729Y533357D02*
X530289Y529798D01*
X530289Y525222D02*
X530289Y518104D01*
X530289Y525222D02*
X523170Y518104D01*
X521391Y518104D01*
X519611Y519884D01*
X519611Y523443D01*
X521391Y525222D01*
X524950Y513528D02*
X524950Y506410D01*
X521391Y509969D02*
X528509Y509969D01*
M02*
