G04 EAGLE Gerber X2 export*
%TF.Part,Single*%
%TF.FileFunction,Legend,Top,1*%
%TF.FilePolarity,Positive*%
%TF.GenerationSoftware,Autodesk,EAGLE,9.0.0*%
%TF.CreationDate,2018-05-19T07:41:30Z*%
G75*
%MOMM*%
%FSLAX34Y34*%
%LPD*%
%AMOC8*
5,1,8,0,0,1.08239X$1,22.5*%
G01*
%ADD10C,0.254000*%
%ADD11C,0.635000*%
%ADD12C,0.152400*%
%ADD13C,0.177800*%
%ADD14C,0.330200*%
%ADD15C,0.304800*%
%ADD16C,0.203200*%
%ADD17R,0.200000X1.000000*%
%ADD18C,0.406400*%
%ADD19C,0.127000*%
%ADD20C,0.150000*%
%ADD21C,0.050800*%
%ADD22C,0.101600*%
%ADD23C,0.100000*%
%ADD24C,1.200000*%
%ADD25C,0.279400*%
%ADD26C,0.400000*%
%ADD27R,0.889000X0.190500*%
%ADD28R,1.000000X0.200000*%
%ADD29C,0.200000*%

G36*
X295949Y86870D02*
X295949Y86870D01*
X295954Y86870D01*
X296070Y86896D01*
X296186Y86921D01*
X296190Y86923D01*
X296194Y86924D01*
X296296Y86985D01*
X296398Y87046D01*
X296401Y87049D01*
X296404Y87051D01*
X296519Y87173D01*
X300329Y92253D01*
X300337Y92269D01*
X300350Y92282D01*
X300394Y92378D01*
X300443Y92471D01*
X300446Y92489D01*
X300453Y92505D01*
X300465Y92610D01*
X300481Y92714D01*
X300478Y92732D01*
X300480Y92749D01*
X300458Y92852D01*
X300440Y92957D01*
X300432Y92972D01*
X300428Y92990D01*
X300374Y93080D01*
X300324Y93174D01*
X300311Y93186D01*
X300302Y93201D01*
X300222Y93270D01*
X300145Y93342D01*
X300128Y93349D01*
X300115Y93361D01*
X300017Y93400D01*
X299921Y93444D01*
X299903Y93446D01*
X299887Y93453D01*
X299720Y93471D01*
X292100Y93471D01*
X292082Y93468D01*
X292065Y93470D01*
X291961Y93449D01*
X291857Y93432D01*
X291842Y93423D01*
X291824Y93420D01*
X291733Y93366D01*
X291640Y93316D01*
X291628Y93304D01*
X291612Y93295D01*
X291543Y93215D01*
X291471Y93138D01*
X291463Y93122D01*
X291451Y93108D01*
X291411Y93011D01*
X291367Y92915D01*
X291365Y92897D01*
X291358Y92881D01*
X291351Y92775D01*
X291340Y92671D01*
X291344Y92653D01*
X291342Y92635D01*
X291370Y92533D01*
X291392Y92430D01*
X291401Y92415D01*
X291406Y92398D01*
X291491Y92253D01*
X295301Y87173D01*
X295304Y87170D01*
X295306Y87167D01*
X295393Y87085D01*
X295478Y87003D01*
X295482Y87001D01*
X295485Y86998D01*
X295594Y86948D01*
X295701Y86898D01*
X295705Y86898D01*
X295709Y86896D01*
X295827Y86883D01*
X295945Y86870D01*
X295949Y86870D01*
G37*
G36*
X382386Y595847D02*
X382386Y595847D01*
X382413Y595847D01*
X382524Y595880D01*
X382637Y595906D01*
X382660Y595919D01*
X382686Y595926D01*
X382784Y595988D01*
X382885Y596045D01*
X382901Y596062D01*
X382926Y596078D01*
X383111Y596285D01*
X383115Y596289D01*
X385115Y599289D01*
X385146Y599354D01*
X385186Y599414D01*
X385207Y599482D01*
X385238Y599546D01*
X385250Y599616D01*
X385271Y599685D01*
X385273Y599756D01*
X385285Y599826D01*
X385277Y599897D01*
X385279Y599969D01*
X385261Y600038D01*
X385252Y600108D01*
X385225Y600175D01*
X385207Y600244D01*
X385170Y600305D01*
X385143Y600371D01*
X385098Y600427D01*
X385062Y600488D01*
X385010Y600537D01*
X384965Y600593D01*
X384907Y600634D01*
X384854Y600683D01*
X384791Y600715D01*
X384733Y600756D01*
X384665Y600780D01*
X384601Y600812D01*
X384542Y600822D01*
X384464Y600849D01*
X384345Y600855D01*
X384270Y600868D01*
X380270Y600868D01*
X380199Y600858D01*
X380127Y600858D01*
X380059Y600838D01*
X379989Y600828D01*
X379923Y600799D01*
X379854Y600779D01*
X379794Y600741D01*
X379729Y600712D01*
X379674Y600665D01*
X379614Y600627D01*
X379566Y600574D01*
X379512Y600528D01*
X379472Y600468D01*
X379425Y600415D01*
X379394Y600351D01*
X379355Y600291D01*
X379333Y600223D01*
X379302Y600158D01*
X379290Y600088D01*
X379269Y600020D01*
X379267Y599949D01*
X379255Y599878D01*
X379263Y599807D01*
X379261Y599736D01*
X379280Y599667D01*
X379288Y599596D01*
X379313Y599540D01*
X379333Y599461D01*
X379394Y599359D01*
X379425Y599289D01*
X381425Y596289D01*
X381502Y596203D01*
X381575Y596113D01*
X381597Y596097D01*
X381615Y596077D01*
X381712Y596016D01*
X381807Y595949D01*
X381833Y595940D01*
X381855Y595926D01*
X381966Y595894D01*
X382076Y595856D01*
X382103Y595855D01*
X382128Y595847D01*
X382244Y595847D01*
X382360Y595841D01*
X382386Y595847D01*
G37*
G36*
X211888Y595530D02*
X211888Y595530D01*
X211915Y595530D01*
X212027Y595562D01*
X212139Y595588D01*
X212163Y595601D01*
X212188Y595609D01*
X212286Y595671D01*
X212387Y595727D01*
X212404Y595745D01*
X212429Y595760D01*
X212614Y595968D01*
X212617Y595972D01*
X214617Y598972D01*
X214648Y599036D01*
X214688Y599096D01*
X214710Y599164D01*
X214740Y599228D01*
X214752Y599299D01*
X214774Y599367D01*
X214776Y599438D01*
X214787Y599509D01*
X214779Y599580D01*
X214781Y599651D01*
X214763Y599720D01*
X214755Y599791D01*
X214727Y599857D01*
X214709Y599926D01*
X214673Y599987D01*
X214646Y600053D01*
X214601Y600109D01*
X214564Y600171D01*
X214512Y600220D01*
X214468Y600275D01*
X214409Y600316D01*
X214357Y600365D01*
X214293Y600398D01*
X214235Y600439D01*
X214167Y600462D01*
X214104Y600495D01*
X214044Y600505D01*
X213966Y600532D01*
X213847Y600538D01*
X213773Y600550D01*
X209773Y600550D01*
X209702Y600540D01*
X209630Y600540D01*
X209561Y600520D01*
X209491Y600510D01*
X209426Y600481D01*
X209357Y600461D01*
X209297Y600423D01*
X209232Y600394D01*
X209177Y600348D01*
X209116Y600310D01*
X209069Y600257D01*
X209015Y600211D01*
X208975Y600151D01*
X208927Y600097D01*
X208896Y600033D01*
X208857Y599974D01*
X208835Y599906D01*
X208804Y599841D01*
X208793Y599771D01*
X208771Y599703D01*
X208769Y599631D01*
X208758Y599561D01*
X208766Y599490D01*
X208764Y599419D01*
X208782Y599349D01*
X208790Y599278D01*
X208815Y599223D01*
X208836Y599144D01*
X208897Y599041D01*
X208928Y598972D01*
X210928Y595972D01*
X211005Y595885D01*
X211077Y595795D01*
X211099Y595780D01*
X211117Y595760D01*
X211215Y595698D01*
X211310Y595631D01*
X211335Y595623D01*
X211358Y595608D01*
X211469Y595576D01*
X211579Y595538D01*
X211605Y595537D01*
X211631Y595530D01*
X211747Y595530D01*
X211862Y595524D01*
X211888Y595530D01*
G37*
G36*
X552883Y566637D02*
X552883Y566637D01*
X552910Y566637D01*
X553022Y566670D01*
X553134Y566696D01*
X553158Y566709D01*
X553183Y566716D01*
X553281Y566778D01*
X553382Y566835D01*
X553399Y566852D01*
X553424Y566868D01*
X553609Y567075D01*
X553612Y567079D01*
X555612Y570079D01*
X555643Y570144D01*
X555683Y570204D01*
X555705Y570272D01*
X555735Y570336D01*
X555747Y570406D01*
X555769Y570475D01*
X555771Y570546D01*
X555782Y570616D01*
X555774Y570687D01*
X555776Y570759D01*
X555758Y570828D01*
X555750Y570898D01*
X555722Y570965D01*
X555704Y571034D01*
X555668Y571095D01*
X555641Y571161D01*
X555596Y571217D01*
X555559Y571278D01*
X555507Y571327D01*
X555463Y571383D01*
X555404Y571424D01*
X555352Y571473D01*
X555288Y571505D01*
X555230Y571546D01*
X555162Y571570D01*
X555099Y571602D01*
X555039Y571612D01*
X554961Y571639D01*
X554842Y571645D01*
X554768Y571658D01*
X550768Y571658D01*
X550697Y571648D01*
X550625Y571648D01*
X550556Y571628D01*
X550486Y571618D01*
X550421Y571589D01*
X550352Y571569D01*
X550292Y571531D01*
X550227Y571502D01*
X550172Y571455D01*
X550111Y571417D01*
X550064Y571364D01*
X550010Y571318D01*
X549970Y571258D01*
X549922Y571205D01*
X549891Y571141D01*
X549852Y571081D01*
X549830Y571013D01*
X549799Y570948D01*
X549788Y570878D01*
X549766Y570810D01*
X549764Y570739D01*
X549753Y570668D01*
X549761Y570597D01*
X549759Y570526D01*
X549777Y570457D01*
X549785Y570386D01*
X549810Y570330D01*
X549831Y570251D01*
X549892Y570149D01*
X549923Y570079D01*
X551923Y567079D01*
X552000Y566993D01*
X552072Y566903D01*
X552094Y566887D01*
X552112Y566867D01*
X552210Y566806D01*
X552305Y566739D01*
X552330Y566730D01*
X552353Y566716D01*
X552464Y566684D01*
X552574Y566646D01*
X552600Y566645D01*
X552626Y566637D01*
X552742Y566637D01*
X552857Y566631D01*
X552883Y566637D01*
G37*
G36*
X526848Y566637D02*
X526848Y566637D01*
X526875Y566637D01*
X526987Y566670D01*
X527099Y566696D01*
X527123Y566709D01*
X527148Y566716D01*
X527246Y566778D01*
X527347Y566835D01*
X527364Y566852D01*
X527389Y566868D01*
X527574Y567075D01*
X527577Y567079D01*
X529577Y570079D01*
X529608Y570144D01*
X529648Y570204D01*
X529670Y570272D01*
X529700Y570336D01*
X529712Y570406D01*
X529734Y570475D01*
X529736Y570546D01*
X529747Y570616D01*
X529739Y570687D01*
X529741Y570759D01*
X529723Y570828D01*
X529715Y570898D01*
X529687Y570965D01*
X529669Y571034D01*
X529633Y571095D01*
X529606Y571161D01*
X529561Y571217D01*
X529524Y571278D01*
X529472Y571327D01*
X529428Y571383D01*
X529369Y571424D01*
X529317Y571473D01*
X529253Y571505D01*
X529195Y571546D01*
X529127Y571570D01*
X529064Y571602D01*
X529004Y571612D01*
X528926Y571639D01*
X528807Y571645D01*
X528733Y571658D01*
X524733Y571658D01*
X524662Y571648D01*
X524590Y571648D01*
X524521Y571628D01*
X524451Y571618D01*
X524386Y571589D01*
X524317Y571569D01*
X524257Y571531D01*
X524192Y571502D01*
X524137Y571455D01*
X524076Y571417D01*
X524029Y571364D01*
X523975Y571318D01*
X523935Y571258D01*
X523887Y571205D01*
X523856Y571141D01*
X523817Y571081D01*
X523795Y571013D01*
X523764Y570948D01*
X523753Y570878D01*
X523731Y570810D01*
X523729Y570739D01*
X523718Y570668D01*
X523726Y570597D01*
X523724Y570526D01*
X523742Y570457D01*
X523750Y570386D01*
X523775Y570330D01*
X523796Y570251D01*
X523857Y570149D01*
X523888Y570079D01*
X525888Y567079D01*
X525965Y566993D01*
X526037Y566903D01*
X526059Y566887D01*
X526077Y566867D01*
X526175Y566806D01*
X526270Y566739D01*
X526295Y566730D01*
X526318Y566716D01*
X526429Y566684D01*
X526539Y566646D01*
X526565Y566645D01*
X526591Y566637D01*
X526707Y566637D01*
X526822Y566631D01*
X526848Y566637D01*
G37*
G36*
X207913Y502771D02*
X207913Y502771D01*
X207984Y502769D01*
X208053Y502787D01*
X208124Y502795D01*
X208180Y502820D01*
X208259Y502841D01*
X208361Y502902D01*
X208431Y502933D01*
X211431Y504933D01*
X211517Y505010D01*
X211608Y505082D01*
X211623Y505104D01*
X211643Y505122D01*
X211704Y505220D01*
X211771Y505315D01*
X211780Y505340D01*
X211794Y505363D01*
X211826Y505474D01*
X211864Y505584D01*
X211865Y505610D01*
X211873Y505636D01*
X211873Y505752D01*
X211879Y505867D01*
X211873Y505893D01*
X211873Y505920D01*
X211840Y506032D01*
X211814Y506144D01*
X211801Y506168D01*
X211794Y506193D01*
X211732Y506291D01*
X211675Y506392D01*
X211658Y506409D01*
X211642Y506434D01*
X211435Y506619D01*
X211431Y506622D01*
X208431Y508622D01*
X208366Y508653D01*
X208306Y508693D01*
X208238Y508715D01*
X208174Y508745D01*
X208104Y508757D01*
X208035Y508779D01*
X207964Y508781D01*
X207894Y508792D01*
X207823Y508784D01*
X207751Y508786D01*
X207682Y508768D01*
X207612Y508760D01*
X207545Y508732D01*
X207476Y508714D01*
X207415Y508678D01*
X207349Y508651D01*
X207293Y508606D01*
X207232Y508569D01*
X207183Y508517D01*
X207128Y508473D01*
X207086Y508414D01*
X207037Y508362D01*
X207005Y508298D01*
X206964Y508240D01*
X206940Y508172D01*
X206908Y508109D01*
X206898Y508049D01*
X206871Y507971D01*
X206865Y507852D01*
X206852Y507778D01*
X206852Y503778D01*
X206862Y503707D01*
X206862Y503635D01*
X206882Y503566D01*
X206892Y503496D01*
X206921Y503431D01*
X206941Y503362D01*
X206979Y503302D01*
X207008Y503237D01*
X207055Y503182D01*
X207093Y503121D01*
X207146Y503074D01*
X207192Y503020D01*
X207252Y502980D01*
X207305Y502932D01*
X207369Y502901D01*
X207429Y502862D01*
X207497Y502840D01*
X207562Y502809D01*
X207632Y502798D01*
X207700Y502776D01*
X207771Y502774D01*
X207842Y502763D01*
X207913Y502771D01*
G37*
G36*
X317031Y89070D02*
X317031Y89070D01*
X317103Y89070D01*
X317171Y89090D01*
X317242Y89100D01*
X317307Y89129D01*
X317376Y89149D01*
X317436Y89187D01*
X317501Y89216D01*
X317556Y89262D01*
X317616Y89300D01*
X317664Y89354D01*
X317718Y89400D01*
X317758Y89459D01*
X317805Y89513D01*
X317836Y89577D01*
X317876Y89636D01*
X317897Y89705D01*
X317928Y89769D01*
X317940Y89839D01*
X317961Y89907D01*
X317963Y89979D01*
X317975Y90050D01*
X317967Y90120D01*
X317969Y90191D01*
X317950Y90261D01*
X317942Y90332D01*
X317917Y90387D01*
X317897Y90466D01*
X317836Y90569D01*
X317805Y90638D01*
X315805Y93638D01*
X315728Y93725D01*
X315655Y93815D01*
X315633Y93830D01*
X315615Y93850D01*
X315518Y93912D01*
X315423Y93979D01*
X315397Y93987D01*
X315375Y94002D01*
X315264Y94034D01*
X315154Y94072D01*
X315127Y94073D01*
X315102Y94080D01*
X314986Y94080D01*
X314870Y94086D01*
X314844Y94080D01*
X314817Y94080D01*
X314706Y94048D01*
X314593Y94022D01*
X314570Y94009D01*
X314544Y94001D01*
X314446Y93939D01*
X314345Y93883D01*
X314329Y93865D01*
X314304Y93850D01*
X314119Y93642D01*
X314115Y93638D01*
X312115Y90638D01*
X312084Y90574D01*
X312045Y90514D01*
X312023Y90446D01*
X311992Y90382D01*
X311980Y90311D01*
X311959Y90243D01*
X311957Y90172D01*
X311945Y90102D01*
X311953Y90030D01*
X311951Y89959D01*
X311969Y89890D01*
X311978Y89819D01*
X312005Y89753D01*
X312023Y89684D01*
X312060Y89623D01*
X312087Y89557D01*
X312132Y89501D01*
X312169Y89439D01*
X312220Y89390D01*
X312265Y89335D01*
X312324Y89294D01*
X312376Y89245D01*
X312439Y89212D01*
X312497Y89171D01*
X312565Y89148D01*
X312629Y89115D01*
X312688Y89105D01*
X312766Y89078D01*
X312885Y89072D01*
X312960Y89060D01*
X316960Y89060D01*
X317031Y89070D01*
G37*
D10*
X411458Y41656D02*
X415356Y41656D01*
X413407Y41656D02*
X413407Y53350D01*
X411458Y53350D02*
X415356Y53350D01*
X420189Y49452D02*
X420189Y41656D01*
X420189Y45554D02*
X424087Y49452D01*
X426036Y49452D01*
X431104Y49452D02*
X433053Y49452D01*
X433053Y41656D01*
X431104Y41656D02*
X435002Y41656D01*
X433053Y53350D02*
X433053Y55299D01*
X447631Y53350D02*
X447631Y41656D01*
X441784Y41656D01*
X439835Y43605D01*
X439835Y47503D01*
X441784Y49452D01*
X447631Y49452D01*
X452932Y49452D02*
X454881Y49452D01*
X454881Y41656D01*
X452932Y41656D02*
X456830Y41656D01*
X454881Y53350D02*
X454881Y55299D01*
X461664Y49452D02*
X461664Y43605D01*
X463613Y41656D01*
X469460Y41656D01*
X469460Y49452D01*
X474761Y49452D02*
X474761Y41656D01*
X474761Y49452D02*
X476710Y49452D01*
X478659Y47503D01*
X478659Y41656D01*
X478659Y47503D02*
X480608Y49452D01*
X482557Y47503D01*
X482557Y41656D01*
X500956Y43605D02*
X502905Y41656D01*
X506803Y41656D01*
X508752Y43605D01*
X508752Y51401D01*
X506803Y53350D01*
X502905Y53350D01*
X500956Y51401D01*
X500956Y49452D01*
X502905Y47503D01*
X508752Y47503D01*
X517951Y51401D02*
X521849Y53350D01*
X517951Y51401D02*
X514053Y47503D01*
X514053Y43605D01*
X516002Y41656D01*
X519900Y41656D01*
X521849Y43605D01*
X521849Y45554D01*
X519900Y47503D01*
X514053Y47503D01*
X527150Y43605D02*
X527150Y51401D01*
X529099Y53350D01*
X532997Y53350D01*
X534946Y51401D01*
X534946Y43605D01*
X532997Y41656D01*
X529099Y41656D01*
X527150Y43605D01*
X534946Y51401D01*
X540247Y51401D02*
X542196Y53350D01*
X546094Y53350D01*
X548043Y51401D01*
X548043Y49452D01*
X546094Y47503D01*
X544145Y47503D01*
X546094Y47503D02*
X548043Y45554D01*
X548043Y43605D01*
X546094Y41656D01*
X542196Y41656D01*
X540247Y43605D01*
X553345Y41656D02*
X553345Y53350D01*
X561141Y41656D01*
X561141Y53350D01*
X430012Y32014D02*
X430012Y20320D01*
X430012Y32014D02*
X435859Y32014D01*
X437808Y30065D01*
X437808Y28116D01*
X435859Y26167D01*
X437808Y24218D01*
X437808Y22269D01*
X435859Y20320D01*
X430012Y20320D01*
X430012Y26167D02*
X435859Y26167D01*
X445059Y20320D02*
X448957Y20320D01*
X445059Y20320D02*
X443110Y22269D01*
X443110Y26167D01*
X445059Y28116D01*
X448957Y28116D01*
X450906Y26167D01*
X450906Y24218D01*
X443110Y24218D01*
X458156Y28116D02*
X462054Y28116D01*
X464003Y26167D01*
X464003Y20320D01*
X458156Y20320D01*
X456207Y22269D01*
X458156Y24218D01*
X464003Y24218D01*
X471253Y28116D02*
X477100Y28116D01*
X471253Y28116D02*
X469304Y26167D01*
X469304Y22269D01*
X471253Y20320D01*
X477100Y20320D01*
X484350Y20320D02*
X488248Y20320D01*
X490197Y22269D01*
X490197Y26167D01*
X488248Y28116D01*
X484350Y28116D01*
X482401Y26167D01*
X482401Y22269D01*
X484350Y20320D01*
X495499Y20320D02*
X495499Y28116D01*
X501346Y28116D01*
X503295Y26167D01*
X503295Y20320D01*
X521693Y24218D02*
X521693Y32014D01*
X521693Y24218D02*
X525591Y20320D01*
X529489Y24218D01*
X529489Y32014D01*
X534790Y32014D02*
X542586Y32014D01*
X534790Y32014D02*
X534790Y26167D01*
X538688Y28116D01*
X540637Y28116D01*
X542586Y26167D01*
X542586Y22269D01*
X540637Y20320D01*
X536739Y20320D01*
X534790Y22269D01*
D11*
X31750Y489268D02*
X31752Y489380D01*
X31758Y489492D01*
X31768Y489604D01*
X31782Y489715D01*
X31799Y489825D01*
X31821Y489935D01*
X31846Y490045D01*
X31876Y490153D01*
X31909Y490260D01*
X31946Y490366D01*
X31986Y490470D01*
X32031Y490573D01*
X32078Y490674D01*
X32130Y490774D01*
X32185Y490872D01*
X32243Y490967D01*
X32305Y491061D01*
X32370Y491152D01*
X32438Y491241D01*
X32509Y491328D01*
X32583Y491412D01*
X32660Y491493D01*
X32740Y491572D01*
X32823Y491647D01*
X32908Y491720D01*
X32996Y491790D01*
X33086Y491856D01*
X33179Y491920D01*
X33273Y491980D01*
X33370Y492036D01*
X33469Y492089D01*
X33569Y492139D01*
X33671Y492185D01*
X33775Y492227D01*
X33880Y492266D01*
X33987Y492301D01*
X34094Y492332D01*
X34203Y492360D01*
X34312Y492383D01*
X34423Y492403D01*
X34534Y492419D01*
X34645Y492431D01*
X34757Y492439D01*
X34869Y492443D01*
X34981Y492443D01*
X35093Y492439D01*
X35205Y492431D01*
X35316Y492419D01*
X35427Y492403D01*
X35538Y492383D01*
X35647Y492360D01*
X35756Y492332D01*
X35863Y492301D01*
X35970Y492266D01*
X36075Y492227D01*
X36179Y492185D01*
X36281Y492139D01*
X36381Y492089D01*
X36480Y492036D01*
X36577Y491980D01*
X36671Y491920D01*
X36764Y491856D01*
X36854Y491790D01*
X36942Y491720D01*
X37027Y491647D01*
X37110Y491572D01*
X37190Y491493D01*
X37267Y491412D01*
X37341Y491328D01*
X37412Y491241D01*
X37480Y491152D01*
X37545Y491061D01*
X37607Y490967D01*
X37665Y490872D01*
X37720Y490774D01*
X37772Y490674D01*
X37819Y490573D01*
X37864Y490470D01*
X37904Y490366D01*
X37941Y490260D01*
X37974Y490153D01*
X38004Y490045D01*
X38029Y489935D01*
X38051Y489825D01*
X38068Y489715D01*
X38082Y489604D01*
X38092Y489492D01*
X38098Y489380D01*
X38100Y489268D01*
X38098Y489156D01*
X38092Y489044D01*
X38082Y488932D01*
X38068Y488821D01*
X38051Y488711D01*
X38029Y488601D01*
X38004Y488491D01*
X37974Y488383D01*
X37941Y488276D01*
X37904Y488170D01*
X37864Y488066D01*
X37819Y487963D01*
X37772Y487862D01*
X37720Y487762D01*
X37665Y487664D01*
X37607Y487569D01*
X37545Y487475D01*
X37480Y487384D01*
X37412Y487295D01*
X37341Y487208D01*
X37267Y487124D01*
X37190Y487043D01*
X37110Y486964D01*
X37027Y486889D01*
X36942Y486816D01*
X36854Y486746D01*
X36764Y486680D01*
X36671Y486616D01*
X36577Y486556D01*
X36480Y486500D01*
X36381Y486447D01*
X36281Y486397D01*
X36179Y486351D01*
X36075Y486309D01*
X35970Y486270D01*
X35863Y486235D01*
X35756Y486204D01*
X35647Y486176D01*
X35538Y486153D01*
X35427Y486133D01*
X35316Y486117D01*
X35205Y486105D01*
X35093Y486097D01*
X34981Y486093D01*
X34869Y486093D01*
X34757Y486097D01*
X34645Y486105D01*
X34534Y486117D01*
X34423Y486133D01*
X34312Y486153D01*
X34203Y486176D01*
X34094Y486204D01*
X33987Y486235D01*
X33880Y486270D01*
X33775Y486309D01*
X33671Y486351D01*
X33569Y486397D01*
X33469Y486447D01*
X33370Y486500D01*
X33273Y486556D01*
X33179Y486616D01*
X33086Y486680D01*
X32996Y486746D01*
X32908Y486816D01*
X32823Y486889D01*
X32740Y486964D01*
X32660Y487043D01*
X32583Y487124D01*
X32509Y487208D01*
X32438Y487295D01*
X32370Y487384D01*
X32305Y487475D01*
X32243Y487569D01*
X32185Y487664D01*
X32130Y487762D01*
X32078Y487862D01*
X32031Y487963D01*
X31986Y488066D01*
X31946Y488170D01*
X31909Y488276D01*
X31876Y488383D01*
X31846Y488491D01*
X31821Y488601D01*
X31799Y488711D01*
X31782Y488821D01*
X31768Y488932D01*
X31758Y489044D01*
X31752Y489156D01*
X31750Y489268D01*
D12*
X18225Y502583D02*
X18225Y509785D01*
X18225Y502583D02*
X19665Y501142D01*
X22546Y501142D01*
X23987Y502583D01*
X23987Y509785D01*
X30461Y508345D02*
X33342Y509785D01*
X30461Y508345D02*
X27580Y505464D01*
X27580Y502583D01*
X29020Y501142D01*
X31901Y501142D01*
X33342Y502583D01*
X33342Y504023D01*
X31901Y505464D01*
X27580Y505464D01*
D13*
X461635Y537598D02*
X467228Y537598D01*
X461635Y537598D02*
X461635Y533404D01*
X464431Y534802D01*
X465830Y534802D01*
X467228Y533404D01*
X467228Y530607D01*
X465830Y529209D01*
X463033Y529209D01*
X461635Y530607D01*
X470990Y530607D02*
X470990Y529209D01*
X470990Y530607D02*
X472388Y530607D01*
X472388Y529209D01*
X470990Y529209D01*
X475668Y536200D02*
X477066Y537598D01*
X479862Y537598D01*
X481261Y536200D01*
X481261Y534802D01*
X479862Y533404D01*
X478464Y533404D01*
X479862Y533404D02*
X481261Y532005D01*
X481261Y530607D01*
X479862Y529209D01*
X477066Y529209D01*
X475668Y530607D01*
X468651Y522358D02*
X468651Y516765D01*
X471448Y513969D01*
X474244Y516765D01*
X474244Y522358D01*
X540527Y522224D02*
X540527Y530613D01*
X536332Y526419D01*
X541925Y526419D01*
X545688Y523622D02*
X545688Y522224D01*
X545688Y523622D02*
X547086Y523622D01*
X547086Y522224D01*
X545688Y522224D01*
X550365Y529215D02*
X551763Y530613D01*
X554560Y530613D01*
X555958Y529215D01*
X555958Y527817D01*
X554560Y526419D01*
X555958Y525020D01*
X555958Y523622D01*
X554560Y522224D01*
X551763Y522224D01*
X550365Y523622D01*
X550365Y525020D01*
X551763Y526419D01*
X550365Y527817D01*
X550365Y529215D01*
X551763Y526419D02*
X554560Y526419D01*
X559720Y525020D02*
X559720Y530613D01*
X559720Y525020D02*
X562517Y522224D01*
X565313Y525020D01*
X565313Y530613D01*
X463643Y497719D02*
X463643Y493764D01*
X463643Y497719D02*
X469575Y491787D01*
X471552Y493764D02*
X467597Y489810D01*
X468280Y502357D02*
X472235Y506311D01*
X468280Y502357D02*
X471246Y499391D01*
X472235Y502357D01*
X473224Y503345D01*
X475201Y503345D01*
X477178Y501368D01*
X477178Y499391D01*
X475201Y497413D01*
X473224Y497413D01*
X479839Y504028D02*
X475884Y507983D01*
X475884Y509960D01*
X477861Y511938D01*
X479839Y511938D01*
X483793Y507983D01*
X483793Y506006D01*
X481816Y504028D01*
X479839Y504028D01*
X479839Y511938D01*
X538695Y495242D02*
X541491Y496641D01*
X538695Y495242D02*
X535899Y492446D01*
X535899Y489650D01*
X537297Y488252D01*
X540093Y488252D01*
X541491Y489650D01*
X541491Y491048D01*
X540093Y492446D01*
X535899Y492446D01*
X545254Y489650D02*
X545254Y495242D01*
X546652Y496641D01*
X549448Y496641D01*
X550847Y495242D01*
X550847Y489650D01*
X549448Y488252D01*
X546652Y488252D01*
X545254Y489650D01*
X550847Y495242D01*
X554609Y493844D02*
X554609Y488252D01*
X554609Y493844D02*
X556007Y493844D01*
X557405Y492446D01*
X557405Y488252D01*
X557405Y492446D02*
X558804Y493844D01*
X560202Y492446D01*
X560202Y488252D01*
X563964Y488252D02*
X563964Y493844D01*
X566761Y496641D01*
X569557Y493844D01*
X569557Y488252D01*
X569557Y492446D02*
X563964Y492446D01*
D14*
X305068Y490226D02*
X295408Y490226D01*
X300238Y495056D02*
X300238Y485396D01*
X397325Y489591D02*
X406985Y489591D01*
X402155Y494421D02*
X402155Y484761D01*
D15*
X370205Y415925D02*
X370207Y416004D01*
X370213Y416083D01*
X370223Y416162D01*
X370236Y416240D01*
X370254Y416317D01*
X370276Y416393D01*
X370301Y416468D01*
X370330Y416542D01*
X370362Y416614D01*
X370398Y416684D01*
X370438Y416753D01*
X370481Y416820D01*
X370527Y416884D01*
X370577Y416946D01*
X370629Y417005D01*
X370684Y417062D01*
X370742Y417116D01*
X370803Y417167D01*
X370866Y417214D01*
X370931Y417259D01*
X370999Y417300D01*
X371069Y417338D01*
X371140Y417372D01*
X371213Y417403D01*
X371287Y417430D01*
X371363Y417454D01*
X371440Y417473D01*
X371517Y417489D01*
X371596Y417501D01*
X371674Y417509D01*
X371753Y417513D01*
X371833Y417513D01*
X371912Y417509D01*
X371990Y417501D01*
X372069Y417489D01*
X372146Y417473D01*
X372223Y417454D01*
X372299Y417430D01*
X372373Y417403D01*
X372446Y417372D01*
X372517Y417338D01*
X372587Y417300D01*
X372655Y417259D01*
X372720Y417214D01*
X372783Y417167D01*
X372844Y417116D01*
X372902Y417062D01*
X372957Y417005D01*
X373009Y416946D01*
X373059Y416884D01*
X373105Y416820D01*
X373148Y416753D01*
X373188Y416684D01*
X373224Y416614D01*
X373256Y416542D01*
X373285Y416468D01*
X373310Y416393D01*
X373332Y416317D01*
X373350Y416240D01*
X373363Y416162D01*
X373373Y416083D01*
X373379Y416004D01*
X373381Y415925D01*
X373379Y415846D01*
X373373Y415767D01*
X373363Y415688D01*
X373350Y415610D01*
X373332Y415533D01*
X373310Y415457D01*
X373285Y415382D01*
X373256Y415308D01*
X373224Y415236D01*
X373188Y415166D01*
X373148Y415097D01*
X373105Y415030D01*
X373059Y414966D01*
X373009Y414904D01*
X372957Y414845D01*
X372902Y414788D01*
X372844Y414734D01*
X372783Y414683D01*
X372720Y414636D01*
X372655Y414591D01*
X372587Y414550D01*
X372517Y414512D01*
X372446Y414478D01*
X372373Y414447D01*
X372299Y414420D01*
X372223Y414396D01*
X372146Y414377D01*
X372069Y414361D01*
X371990Y414349D01*
X371912Y414341D01*
X371833Y414337D01*
X371753Y414337D01*
X371674Y414341D01*
X371596Y414349D01*
X371517Y414361D01*
X371440Y414377D01*
X371363Y414396D01*
X371287Y414420D01*
X371213Y414447D01*
X371140Y414478D01*
X371069Y414512D01*
X370999Y414550D01*
X370931Y414591D01*
X370866Y414636D01*
X370803Y414683D01*
X370742Y414734D01*
X370684Y414788D01*
X370629Y414845D01*
X370577Y414904D01*
X370527Y414966D01*
X370481Y415030D01*
X370438Y415097D01*
X370398Y415166D01*
X370362Y415236D01*
X370330Y415308D01*
X370301Y415382D01*
X370276Y415457D01*
X370254Y415533D01*
X370236Y415610D01*
X370223Y415688D01*
X370213Y415767D01*
X370207Y415846D01*
X370205Y415925D01*
X335597Y76835D02*
X335599Y76914D01*
X335605Y76993D01*
X335615Y77072D01*
X335628Y77150D01*
X335646Y77227D01*
X335668Y77303D01*
X335693Y77378D01*
X335722Y77452D01*
X335754Y77524D01*
X335790Y77594D01*
X335830Y77663D01*
X335873Y77730D01*
X335919Y77794D01*
X335969Y77856D01*
X336021Y77915D01*
X336076Y77972D01*
X336134Y78026D01*
X336195Y78077D01*
X336258Y78124D01*
X336323Y78169D01*
X336391Y78210D01*
X336461Y78248D01*
X336532Y78282D01*
X336605Y78313D01*
X336679Y78340D01*
X336755Y78364D01*
X336832Y78383D01*
X336909Y78399D01*
X336988Y78411D01*
X337066Y78419D01*
X337145Y78423D01*
X337225Y78423D01*
X337304Y78419D01*
X337382Y78411D01*
X337461Y78399D01*
X337538Y78383D01*
X337615Y78364D01*
X337691Y78340D01*
X337765Y78313D01*
X337838Y78282D01*
X337909Y78248D01*
X337979Y78210D01*
X338047Y78169D01*
X338112Y78124D01*
X338175Y78077D01*
X338236Y78026D01*
X338294Y77972D01*
X338349Y77915D01*
X338401Y77856D01*
X338451Y77794D01*
X338497Y77730D01*
X338540Y77663D01*
X338580Y77594D01*
X338616Y77524D01*
X338648Y77452D01*
X338677Y77378D01*
X338702Y77303D01*
X338724Y77227D01*
X338742Y77150D01*
X338755Y77072D01*
X338765Y76993D01*
X338771Y76914D01*
X338773Y76835D01*
X338771Y76756D01*
X338765Y76677D01*
X338755Y76598D01*
X338742Y76520D01*
X338724Y76443D01*
X338702Y76367D01*
X338677Y76292D01*
X338648Y76218D01*
X338616Y76146D01*
X338580Y76076D01*
X338540Y76007D01*
X338497Y75940D01*
X338451Y75876D01*
X338401Y75814D01*
X338349Y75755D01*
X338294Y75698D01*
X338236Y75644D01*
X338175Y75593D01*
X338112Y75546D01*
X338047Y75501D01*
X337979Y75460D01*
X337909Y75422D01*
X337838Y75388D01*
X337765Y75357D01*
X337691Y75330D01*
X337615Y75306D01*
X337538Y75287D01*
X337461Y75271D01*
X337382Y75259D01*
X337304Y75251D01*
X337225Y75247D01*
X337145Y75247D01*
X337066Y75251D01*
X336988Y75259D01*
X336909Y75271D01*
X336832Y75287D01*
X336755Y75306D01*
X336679Y75330D01*
X336605Y75357D01*
X336532Y75388D01*
X336461Y75422D01*
X336391Y75460D01*
X336323Y75501D01*
X336258Y75546D01*
X336195Y75593D01*
X336134Y75644D01*
X336076Y75698D01*
X336021Y75755D01*
X335969Y75814D01*
X335919Y75876D01*
X335873Y75940D01*
X335830Y76007D01*
X335790Y76076D01*
X335754Y76146D01*
X335722Y76218D01*
X335693Y76292D01*
X335668Y76367D01*
X335646Y76443D01*
X335628Y76520D01*
X335615Y76598D01*
X335605Y76677D01*
X335599Y76756D01*
X335597Y76835D01*
X279400Y55563D02*
X272098Y55563D01*
X279400Y55563D02*
X294323Y70485D01*
X140017Y312103D02*
X140019Y312182D01*
X140025Y312261D01*
X140035Y312340D01*
X140048Y312418D01*
X140066Y312495D01*
X140088Y312571D01*
X140113Y312646D01*
X140142Y312720D01*
X140174Y312792D01*
X140210Y312862D01*
X140250Y312931D01*
X140293Y312998D01*
X140339Y313062D01*
X140389Y313124D01*
X140441Y313183D01*
X140496Y313240D01*
X140554Y313294D01*
X140615Y313345D01*
X140678Y313392D01*
X140743Y313437D01*
X140811Y313478D01*
X140881Y313516D01*
X140952Y313550D01*
X141025Y313581D01*
X141099Y313608D01*
X141175Y313632D01*
X141252Y313651D01*
X141329Y313667D01*
X141408Y313679D01*
X141486Y313687D01*
X141565Y313691D01*
X141645Y313691D01*
X141724Y313687D01*
X141802Y313679D01*
X141881Y313667D01*
X141958Y313651D01*
X142035Y313632D01*
X142111Y313608D01*
X142185Y313581D01*
X142258Y313550D01*
X142329Y313516D01*
X142399Y313478D01*
X142467Y313437D01*
X142532Y313392D01*
X142595Y313345D01*
X142656Y313294D01*
X142714Y313240D01*
X142769Y313183D01*
X142821Y313124D01*
X142871Y313062D01*
X142917Y312998D01*
X142960Y312931D01*
X143000Y312862D01*
X143036Y312792D01*
X143068Y312720D01*
X143097Y312646D01*
X143122Y312571D01*
X143144Y312495D01*
X143162Y312418D01*
X143175Y312340D01*
X143185Y312261D01*
X143191Y312182D01*
X143193Y312103D01*
X143191Y312024D01*
X143185Y311945D01*
X143175Y311866D01*
X143162Y311788D01*
X143144Y311711D01*
X143122Y311635D01*
X143097Y311560D01*
X143068Y311486D01*
X143036Y311414D01*
X143000Y311344D01*
X142960Y311275D01*
X142917Y311208D01*
X142871Y311144D01*
X142821Y311082D01*
X142769Y311023D01*
X142714Y310966D01*
X142656Y310912D01*
X142595Y310861D01*
X142532Y310814D01*
X142467Y310769D01*
X142399Y310728D01*
X142329Y310690D01*
X142258Y310656D01*
X142185Y310625D01*
X142111Y310598D01*
X142035Y310574D01*
X141958Y310555D01*
X141881Y310539D01*
X141802Y310527D01*
X141724Y310519D01*
X141645Y310515D01*
X141565Y310515D01*
X141486Y310519D01*
X141408Y310527D01*
X141329Y310539D01*
X141252Y310555D01*
X141175Y310574D01*
X141099Y310598D01*
X141025Y310625D01*
X140952Y310656D01*
X140881Y310690D01*
X140811Y310728D01*
X140743Y310769D01*
X140678Y310814D01*
X140615Y310861D01*
X140554Y310912D01*
X140496Y310966D01*
X140441Y311023D01*
X140389Y311082D01*
X140339Y311144D01*
X140293Y311208D01*
X140250Y311275D01*
X140210Y311344D01*
X140174Y311414D01*
X140142Y311486D01*
X140113Y311560D01*
X140088Y311635D01*
X140066Y311711D01*
X140048Y311788D01*
X140035Y311866D01*
X140025Y311945D01*
X140019Y312024D01*
X140017Y312103D01*
D13*
X467585Y482149D02*
X471540Y478195D01*
X467585Y482149D02*
X468574Y483138D01*
X470551Y483138D01*
X473517Y480172D01*
X470551Y483138D02*
X470551Y485115D01*
X472529Y485115D01*
X475495Y482149D01*
X478155Y484810D02*
X474200Y488764D01*
X474200Y492719D01*
X478155Y492719D01*
X482110Y488764D01*
X479144Y491730D02*
X475189Y487776D01*
D15*
X352425Y220980D02*
X361950Y211455D01*
D10*
X116269Y349568D02*
X116271Y349695D01*
X116277Y349822D01*
X116287Y349949D01*
X116301Y350075D01*
X116319Y350201D01*
X116340Y350326D01*
X116366Y350450D01*
X116395Y350574D01*
X116429Y350696D01*
X116466Y350818D01*
X116507Y350938D01*
X116552Y351057D01*
X116600Y351174D01*
X116652Y351290D01*
X116708Y351405D01*
X116767Y351517D01*
X116829Y351627D01*
X116896Y351736D01*
X116965Y351842D01*
X117038Y351946D01*
X117114Y352048D01*
X117193Y352148D01*
X117275Y352245D01*
X117360Y352339D01*
X117448Y352430D01*
X117539Y352519D01*
X117633Y352605D01*
X117729Y352688D01*
X117828Y352768D01*
X117929Y352845D01*
X118032Y352918D01*
X118138Y352988D01*
X118246Y353055D01*
X118356Y353119D01*
X118468Y353179D01*
X118582Y353235D01*
X118697Y353288D01*
X118815Y353338D01*
X118933Y353383D01*
X119053Y353425D01*
X119174Y353463D01*
X119297Y353498D01*
X119420Y353528D01*
X119544Y353555D01*
X119669Y353577D01*
X119795Y353596D01*
X119921Y353611D01*
X120047Y353622D01*
X120174Y353629D01*
X120301Y353632D01*
X120428Y353631D01*
X120555Y353626D01*
X120682Y353617D01*
X120808Y353604D01*
X120934Y353587D01*
X121060Y353567D01*
X121184Y353542D01*
X121308Y353513D01*
X121431Y353481D01*
X121553Y353445D01*
X121673Y353405D01*
X121792Y353361D01*
X121910Y353313D01*
X122026Y353262D01*
X122141Y353208D01*
X122254Y353149D01*
X122365Y353088D01*
X122474Y353022D01*
X122581Y352954D01*
X122686Y352882D01*
X122788Y352807D01*
X122888Y352728D01*
X122986Y352647D01*
X123081Y352563D01*
X123173Y352475D01*
X123262Y352385D01*
X123349Y352292D01*
X123433Y352196D01*
X123513Y352098D01*
X123591Y351998D01*
X123665Y351895D01*
X123736Y351789D01*
X123804Y351682D01*
X123868Y351572D01*
X123929Y351461D01*
X123987Y351348D01*
X124040Y351233D01*
X124091Y351116D01*
X124137Y350998D01*
X124180Y350878D01*
X124219Y350757D01*
X124254Y350635D01*
X124286Y350512D01*
X124313Y350388D01*
X124337Y350263D01*
X124357Y350138D01*
X124373Y350012D01*
X124385Y349885D01*
X124393Y349758D01*
X124397Y349632D01*
X124397Y349504D01*
X124393Y349378D01*
X124385Y349251D01*
X124373Y349124D01*
X124357Y348998D01*
X124337Y348873D01*
X124313Y348748D01*
X124286Y348624D01*
X124254Y348501D01*
X124219Y348379D01*
X124180Y348258D01*
X124137Y348138D01*
X124091Y348020D01*
X124040Y347903D01*
X123987Y347788D01*
X123929Y347675D01*
X123868Y347564D01*
X123804Y347454D01*
X123736Y347347D01*
X123665Y347241D01*
X123591Y347138D01*
X123513Y347038D01*
X123433Y346940D01*
X123349Y346844D01*
X123262Y346751D01*
X123173Y346661D01*
X123081Y346573D01*
X122986Y346489D01*
X122888Y346408D01*
X122788Y346329D01*
X122686Y346254D01*
X122581Y346182D01*
X122474Y346114D01*
X122365Y346048D01*
X122254Y345987D01*
X122141Y345928D01*
X122026Y345874D01*
X121910Y345823D01*
X121792Y345775D01*
X121673Y345731D01*
X121553Y345691D01*
X121431Y345655D01*
X121308Y345623D01*
X121184Y345594D01*
X121060Y345569D01*
X120934Y345549D01*
X120808Y345532D01*
X120682Y345519D01*
X120555Y345510D01*
X120428Y345505D01*
X120301Y345504D01*
X120174Y345507D01*
X120047Y345514D01*
X119921Y345525D01*
X119795Y345540D01*
X119669Y345559D01*
X119544Y345581D01*
X119420Y345608D01*
X119297Y345638D01*
X119174Y345673D01*
X119053Y345711D01*
X118933Y345753D01*
X118815Y345798D01*
X118697Y345848D01*
X118582Y345901D01*
X118468Y345957D01*
X118356Y346017D01*
X118246Y346081D01*
X118138Y346148D01*
X118032Y346218D01*
X117929Y346291D01*
X117828Y346368D01*
X117729Y346448D01*
X117633Y346531D01*
X117539Y346617D01*
X117448Y346706D01*
X117360Y346797D01*
X117275Y346891D01*
X117193Y346988D01*
X117114Y347088D01*
X117038Y347190D01*
X116965Y347294D01*
X116896Y347400D01*
X116829Y347509D01*
X116767Y347619D01*
X116708Y347731D01*
X116652Y347846D01*
X116600Y347962D01*
X116552Y348079D01*
X116507Y348198D01*
X116466Y348318D01*
X116429Y348440D01*
X116395Y348562D01*
X116366Y348686D01*
X116340Y348810D01*
X116319Y348935D01*
X116301Y349061D01*
X116287Y349187D01*
X116277Y349314D01*
X116271Y349441D01*
X116269Y349568D01*
D12*
X541775Y383861D02*
X543215Y385302D01*
X541775Y383861D02*
X541775Y380980D01*
X543215Y379540D01*
X548977Y379540D01*
X550418Y380980D01*
X550418Y383861D01*
X548977Y385302D01*
X546096Y385302D01*
X546096Y382421D01*
X541775Y388895D02*
X550418Y388895D01*
X550418Y394657D02*
X541775Y388895D01*
X541775Y394657D02*
X550418Y394657D01*
X550418Y398250D02*
X541775Y398250D01*
X550418Y398250D02*
X550418Y402572D01*
X548977Y404012D01*
X543215Y404012D01*
X541775Y402572D01*
X541775Y398250D01*
X34898Y382762D02*
X33457Y381321D01*
X33457Y378440D01*
X34898Y377000D01*
X40660Y377000D01*
X42101Y378440D01*
X42101Y381321D01*
X40660Y382762D01*
X37779Y382762D01*
X37779Y379881D01*
X42101Y386355D02*
X33457Y386355D01*
X42101Y392117D01*
X33457Y392117D01*
X33457Y395710D02*
X42101Y395710D01*
X42101Y400032D01*
X40660Y401472D01*
X34898Y401472D01*
X33457Y400032D01*
X33457Y395710D01*
D15*
X181610Y278130D02*
X181610Y267970D01*
D12*
X181063Y287893D02*
X179962Y288994D01*
X177759Y288994D01*
X176657Y287893D01*
X176657Y283486D01*
X177759Y282385D01*
X179962Y282385D01*
X181063Y283486D01*
X186344Y287893D02*
X188548Y288994D01*
X186344Y287893D02*
X184141Y285689D01*
X184141Y283486D01*
X185243Y282385D01*
X187446Y282385D01*
X188548Y283486D01*
X188548Y284588D01*
X187446Y285689D01*
X184141Y285689D01*
X246184Y238971D02*
X247285Y240073D01*
X246184Y238971D02*
X246184Y236768D01*
X247285Y235666D01*
X251692Y235666D01*
X252794Y236768D01*
X252794Y238971D01*
X251692Y240073D01*
X246184Y243150D02*
X246184Y247557D01*
X247285Y247557D01*
X251692Y243150D01*
X252794Y243150D01*
D15*
X220980Y241618D02*
X210820Y241618D01*
D12*
X200613Y239438D02*
X199511Y238336D01*
X199511Y236133D01*
X200613Y235031D01*
X205019Y235031D01*
X206121Y236133D01*
X206121Y238336D01*
X205019Y239438D01*
X200613Y242515D02*
X199511Y243617D01*
X199511Y245820D01*
X200613Y246922D01*
X201715Y246922D01*
X202816Y245820D01*
X203918Y246922D01*
X205019Y246922D01*
X206121Y245820D01*
X206121Y243617D01*
X205019Y242515D01*
X203918Y242515D01*
X202816Y243617D01*
X201715Y242515D01*
X200613Y242515D01*
X202816Y243617D02*
X202816Y245820D01*
X381257Y306139D02*
X382358Y305038D01*
X381257Y306139D02*
X379054Y306139D01*
X377952Y305038D01*
X377952Y300631D01*
X379054Y299530D01*
X381257Y299530D01*
X382358Y300631D01*
X385436Y303936D02*
X387639Y306139D01*
X387639Y299530D01*
X385436Y299530D02*
X389843Y299530D01*
X396225Y299530D02*
X396225Y306139D01*
X392920Y302834D01*
X397327Y302834D01*
D16*
X185800Y258118D02*
X169800Y258118D01*
X169800Y225118D02*
X185800Y225118D01*
X188300Y237618D02*
X188300Y245618D01*
D12*
X184064Y207631D02*
X178556Y207631D01*
X184064Y207631D02*
X185166Y208733D01*
X185166Y210936D01*
X184064Y212038D01*
X178556Y212038D01*
X185166Y215115D02*
X185166Y219522D01*
X180760Y219522D02*
X185166Y215115D01*
X180760Y219522D02*
X179658Y219522D01*
X178556Y218420D01*
X178556Y216217D01*
X179658Y215115D01*
D16*
X201138Y498778D02*
X218598Y498778D01*
X218598Y512778D02*
X201138Y512778D01*
X206868Y501778D02*
X212868Y505778D01*
X206868Y501778D02*
X206868Y509778D01*
X212868Y505778D01*
D17*
X213868Y505778D03*
D12*
X204280Y494734D02*
X204280Y488125D01*
X207584Y488125D01*
X208686Y489226D01*
X208686Y493633D01*
X207584Y494734D01*
X204280Y494734D01*
X211764Y492531D02*
X213967Y494734D01*
X213967Y488125D01*
X211764Y488125D02*
X216170Y488125D01*
D18*
X342850Y263798D02*
X342852Y263869D01*
X342858Y263940D01*
X342868Y264011D01*
X342882Y264081D01*
X342900Y264150D01*
X342921Y264217D01*
X342947Y264284D01*
X342976Y264349D01*
X343008Y264412D01*
X343045Y264474D01*
X343084Y264533D01*
X343127Y264590D01*
X343173Y264644D01*
X343222Y264696D01*
X343274Y264745D01*
X343328Y264791D01*
X343385Y264834D01*
X343444Y264873D01*
X343506Y264910D01*
X343569Y264942D01*
X343634Y264971D01*
X343701Y264997D01*
X343768Y265018D01*
X343837Y265036D01*
X343907Y265050D01*
X343978Y265060D01*
X344049Y265066D01*
X344120Y265068D01*
X344191Y265066D01*
X344262Y265060D01*
X344333Y265050D01*
X344403Y265036D01*
X344472Y265018D01*
X344539Y264997D01*
X344606Y264971D01*
X344671Y264942D01*
X344734Y264910D01*
X344796Y264873D01*
X344855Y264834D01*
X344912Y264791D01*
X344966Y264745D01*
X345018Y264696D01*
X345067Y264644D01*
X345113Y264590D01*
X345156Y264533D01*
X345195Y264474D01*
X345232Y264412D01*
X345264Y264349D01*
X345293Y264284D01*
X345319Y264217D01*
X345340Y264150D01*
X345358Y264081D01*
X345372Y264011D01*
X345382Y263940D01*
X345388Y263869D01*
X345390Y263798D01*
X345388Y263727D01*
X345382Y263656D01*
X345372Y263585D01*
X345358Y263515D01*
X345340Y263446D01*
X345319Y263379D01*
X345293Y263312D01*
X345264Y263247D01*
X345232Y263184D01*
X345195Y263122D01*
X345156Y263063D01*
X345113Y263006D01*
X345067Y262952D01*
X345018Y262900D01*
X344966Y262851D01*
X344912Y262805D01*
X344855Y262762D01*
X344796Y262723D01*
X344734Y262686D01*
X344671Y262654D01*
X344606Y262625D01*
X344539Y262599D01*
X344472Y262578D01*
X344403Y262560D01*
X344333Y262546D01*
X344262Y262536D01*
X344191Y262530D01*
X344120Y262528D01*
X344049Y262530D01*
X343978Y262536D01*
X343907Y262546D01*
X343837Y262560D01*
X343768Y262578D01*
X343701Y262599D01*
X343634Y262625D01*
X343569Y262654D01*
X343506Y262686D01*
X343444Y262723D01*
X343385Y262762D01*
X343328Y262805D01*
X343274Y262851D01*
X343222Y262900D01*
X343173Y262952D01*
X343127Y263006D01*
X343084Y263063D01*
X343045Y263122D01*
X343008Y263184D01*
X342976Y263247D01*
X342947Y263312D01*
X342921Y263379D01*
X342900Y263446D01*
X342882Y263515D01*
X342868Y263585D01*
X342858Y263656D01*
X342852Y263727D01*
X342850Y263798D01*
D19*
X268800Y266578D02*
X268800Y272078D01*
X268800Y266578D02*
X274300Y266578D01*
X268800Y333078D02*
X268800Y338578D01*
X274300Y338578D01*
X335300Y266578D02*
X340800Y266578D01*
X340800Y272078D01*
X340800Y338578D02*
X335300Y338578D01*
X340800Y338578D02*
X340800Y333078D01*
D12*
X337399Y259271D02*
X337399Y253763D01*
X338500Y252662D01*
X340704Y252662D01*
X341805Y253763D01*
X341805Y259271D01*
X344883Y259271D02*
X349289Y259271D01*
X344883Y259271D02*
X344883Y255966D01*
X347086Y257068D01*
X348188Y257068D01*
X349289Y255966D01*
X349289Y253763D01*
X348188Y252662D01*
X345984Y252662D01*
X344883Y253763D01*
X304208Y253730D02*
X303106Y254831D01*
X300903Y254831D01*
X299801Y253730D01*
X299801Y249323D01*
X300903Y248222D01*
X303106Y248222D01*
X304208Y249323D01*
X307285Y252628D02*
X309489Y254831D01*
X309489Y248222D01*
X311692Y248222D02*
X307285Y248222D01*
X407292Y254069D02*
X408393Y252968D01*
X407292Y254069D02*
X405089Y254069D01*
X403987Y252968D01*
X403987Y248561D01*
X405089Y247460D01*
X407292Y247460D01*
X408393Y248561D01*
X411471Y247460D02*
X415878Y247460D01*
X415878Y251866D02*
X411471Y247460D01*
X415878Y251866D02*
X415878Y252968D01*
X414776Y254069D01*
X412573Y254069D01*
X411471Y252968D01*
X408393Y305038D02*
X407292Y306139D01*
X405089Y306139D01*
X403987Y305038D01*
X403987Y300631D01*
X405089Y299530D01*
X407292Y299530D01*
X408393Y300631D01*
X414776Y299530D02*
X414776Y306139D01*
X411471Y302834D01*
X415878Y302834D01*
D13*
X364468Y282779D02*
X356079Y277186D01*
X356079Y282779D02*
X364468Y277186D01*
X361672Y273423D02*
X364468Y270627D01*
X356079Y270627D01*
X356079Y273423D02*
X356079Y267831D01*
D15*
X361950Y373698D02*
X361950Y383858D01*
D12*
X363749Y368496D02*
X364850Y367395D01*
X363749Y368496D02*
X361545Y368496D01*
X360444Y367395D01*
X360444Y362988D01*
X361545Y361887D01*
X363749Y361887D01*
X364850Y362988D01*
X367928Y368496D02*
X372334Y368496D01*
X367928Y368496D02*
X367928Y365191D01*
X370131Y366293D01*
X371233Y366293D01*
X372334Y365191D01*
X372334Y362988D01*
X371233Y361887D01*
X369029Y361887D01*
X367928Y362988D01*
D15*
X152400Y376238D02*
X152400Y386398D01*
D12*
X123596Y383143D02*
X122494Y384244D01*
X120291Y384244D01*
X119190Y383143D01*
X119190Y378736D01*
X120291Y377635D01*
X122494Y377635D01*
X123596Y378736D01*
X126674Y378736D02*
X127775Y377635D01*
X129978Y377635D01*
X131080Y378736D01*
X131080Y383143D01*
X129978Y384244D01*
X127775Y384244D01*
X126674Y383143D01*
X126674Y382041D01*
X127775Y380939D01*
X131080Y380939D01*
D15*
X190500Y439738D02*
X190500Y449898D01*
D12*
X186143Y460613D02*
X185042Y461714D01*
X182839Y461714D01*
X181737Y460613D01*
X181737Y456206D01*
X182839Y455105D01*
X185042Y455105D01*
X186143Y456206D01*
X189221Y459511D02*
X191424Y461714D01*
X191424Y455105D01*
X189221Y455105D02*
X193628Y455105D01*
X196705Y456206D02*
X196705Y460613D01*
X197807Y461714D01*
X200010Y461714D01*
X201112Y460613D01*
X201112Y456206D01*
X200010Y455105D01*
X197807Y455105D01*
X196705Y456206D01*
X201112Y460613D01*
D16*
X162099Y393804D02*
X148971Y393804D01*
X148971Y403392D01*
X148971Y427252D02*
X162099Y427252D01*
X148971Y427252D02*
X148971Y417664D01*
X162179Y412752D02*
X162179Y408164D01*
D12*
X162005Y430340D02*
X166411Y430340D01*
X162005Y430340D02*
X160903Y431441D01*
X160903Y433644D01*
X162005Y434746D01*
X166411Y434746D01*
X167513Y433644D01*
X167513Y431441D01*
X166411Y430340D01*
X165310Y432543D02*
X167513Y434746D01*
X163107Y437824D02*
X160903Y440027D01*
X167513Y440027D01*
X167513Y437824D02*
X167513Y442230D01*
D15*
X188595Y409258D02*
X198755Y409258D01*
D12*
X181356Y402671D02*
X174746Y402671D01*
X174746Y405976D01*
X175848Y407078D01*
X178051Y407078D01*
X179153Y405976D01*
X179153Y402671D01*
X179153Y404874D02*
X181356Y407078D01*
X176950Y410155D02*
X174746Y412359D01*
X181356Y412359D01*
X181356Y414562D02*
X181356Y410155D01*
D16*
X135333Y361868D02*
X105333Y361868D01*
X105333Y311868D02*
X135333Y311868D01*
X135333Y322868D02*
X135333Y325868D01*
X135333Y312868D02*
X135333Y311868D01*
X105333Y311868D02*
X105333Y312868D01*
X105333Y322868D02*
X105333Y325868D01*
X135333Y335868D02*
X135333Y337868D01*
X135333Y347868D02*
X135333Y350868D01*
X135333Y360868D02*
X135333Y361868D01*
X105333Y337868D02*
X105333Y335868D01*
X105333Y347868D02*
X105333Y350868D01*
X105333Y360868D02*
X105333Y361868D01*
D19*
X139301Y312484D02*
X139303Y312564D01*
X139309Y312644D01*
X139319Y312723D01*
X139333Y312802D01*
X139351Y312880D01*
X139372Y312957D01*
X139398Y313033D01*
X139427Y313108D01*
X139460Y313181D01*
X139497Y313252D01*
X139537Y313321D01*
X139580Y313389D01*
X139627Y313454D01*
X139677Y313516D01*
X139730Y313576D01*
X139786Y313634D01*
X139844Y313688D01*
X139906Y313740D01*
X139970Y313788D01*
X140036Y313833D01*
X140104Y313875D01*
X140174Y313913D01*
X140246Y313948D01*
X140320Y313979D01*
X140396Y314006D01*
X140472Y314030D01*
X140550Y314050D01*
X140628Y314066D01*
X140707Y314078D01*
X140787Y314086D01*
X140867Y314090D01*
X140947Y314090D01*
X141027Y314086D01*
X141107Y314078D01*
X141186Y314066D01*
X141264Y314050D01*
X141342Y314030D01*
X141418Y314006D01*
X141494Y313979D01*
X141568Y313948D01*
X141640Y313913D01*
X141710Y313875D01*
X141778Y313833D01*
X141844Y313788D01*
X141908Y313740D01*
X141970Y313688D01*
X142028Y313634D01*
X142084Y313576D01*
X142137Y313516D01*
X142187Y313454D01*
X142234Y313389D01*
X142277Y313321D01*
X142317Y313252D01*
X142354Y313181D01*
X142387Y313108D01*
X142416Y313033D01*
X142442Y312957D01*
X142463Y312880D01*
X142481Y312802D01*
X142495Y312723D01*
X142505Y312644D01*
X142511Y312564D01*
X142513Y312484D01*
X142511Y312404D01*
X142505Y312324D01*
X142495Y312245D01*
X142481Y312166D01*
X142463Y312088D01*
X142442Y312011D01*
X142416Y311935D01*
X142387Y311860D01*
X142354Y311787D01*
X142317Y311716D01*
X142277Y311647D01*
X142234Y311579D01*
X142187Y311514D01*
X142137Y311452D01*
X142084Y311392D01*
X142028Y311334D01*
X141970Y311280D01*
X141908Y311228D01*
X141844Y311180D01*
X141778Y311135D01*
X141710Y311093D01*
X141640Y311055D01*
X141568Y311020D01*
X141494Y310989D01*
X141418Y310962D01*
X141342Y310938D01*
X141264Y310918D01*
X141186Y310902D01*
X141107Y310890D01*
X141027Y310882D01*
X140947Y310878D01*
X140867Y310878D01*
X140787Y310882D01*
X140707Y310890D01*
X140628Y310902D01*
X140550Y310918D01*
X140472Y310938D01*
X140396Y310962D01*
X140320Y310989D01*
X140246Y311020D01*
X140174Y311055D01*
X140104Y311093D01*
X140036Y311135D01*
X139970Y311180D01*
X139906Y311228D01*
X139844Y311280D01*
X139786Y311334D01*
X139730Y311392D01*
X139677Y311452D01*
X139627Y311514D01*
X139580Y311579D01*
X139537Y311647D01*
X139497Y311716D01*
X139460Y311787D01*
X139427Y311860D01*
X139398Y311935D01*
X139372Y312011D01*
X139351Y312088D01*
X139333Y312166D01*
X139319Y312245D01*
X139309Y312324D01*
X139303Y312404D01*
X139301Y312484D01*
X114254Y366078D02*
X114254Y371798D01*
X114254Y366078D02*
X115398Y364935D01*
X117686Y364935D01*
X118830Y366078D01*
X118830Y371798D01*
X125170Y371798D02*
X125170Y364935D01*
X121738Y368366D02*
X125170Y371798D01*
X126314Y368366D02*
X121738Y368366D01*
D20*
X224112Y451518D02*
X293012Y451518D01*
X293012Y435518D01*
X293014Y435442D01*
X293020Y435366D01*
X293029Y435291D01*
X293043Y435216D01*
X293060Y435142D01*
X293081Y435069D01*
X293105Y434997D01*
X293134Y434926D01*
X293165Y434857D01*
X293200Y434790D01*
X293239Y434725D01*
X293281Y434661D01*
X293326Y434600D01*
X293374Y434541D01*
X293425Y434485D01*
X293479Y434431D01*
X293535Y434380D01*
X293594Y434332D01*
X293655Y434287D01*
X293719Y434245D01*
X293784Y434206D01*
X293851Y434171D01*
X293920Y434140D01*
X293991Y434111D01*
X294063Y434087D01*
X294136Y434066D01*
X294210Y434049D01*
X294285Y434035D01*
X294360Y434026D01*
X294436Y434020D01*
X294512Y434018D01*
X297012Y434018D01*
X297072Y434016D01*
X297133Y434011D01*
X297192Y434002D01*
X297251Y433989D01*
X297310Y433973D01*
X297367Y433953D01*
X297422Y433930D01*
X297477Y433903D01*
X297529Y433874D01*
X297580Y433841D01*
X297629Y433805D01*
X297675Y433767D01*
X297719Y433725D01*
X297761Y433681D01*
X297799Y433635D01*
X297835Y433586D01*
X297868Y433535D01*
X297897Y433483D01*
X297924Y433428D01*
X297947Y433373D01*
X297967Y433316D01*
X297983Y433257D01*
X297996Y433198D01*
X298005Y433139D01*
X298010Y433078D01*
X298012Y433018D01*
X298012Y430518D01*
X298014Y430442D01*
X298020Y430366D01*
X298029Y430291D01*
X298043Y430216D01*
X298060Y430142D01*
X298081Y430069D01*
X298105Y429997D01*
X298134Y429926D01*
X298165Y429857D01*
X298200Y429790D01*
X298239Y429725D01*
X298281Y429661D01*
X298326Y429600D01*
X298374Y429541D01*
X298425Y429485D01*
X298479Y429431D01*
X298535Y429380D01*
X298594Y429332D01*
X298655Y429287D01*
X298719Y429245D01*
X298784Y429206D01*
X298851Y429171D01*
X298920Y429140D01*
X298991Y429111D01*
X299063Y429087D01*
X299136Y429066D01*
X299210Y429049D01*
X299285Y429035D01*
X299360Y429026D01*
X299436Y429020D01*
X299512Y429018D01*
X303512Y429018D01*
X303599Y429016D01*
X303686Y429010D01*
X303773Y429001D01*
X303859Y428988D01*
X303945Y428971D01*
X304030Y428950D01*
X304113Y428925D01*
X304196Y428897D01*
X304277Y428866D01*
X304357Y428831D01*
X304435Y428792D01*
X304512Y428750D01*
X304587Y428705D01*
X304659Y428656D01*
X304730Y428605D01*
X304798Y428550D01*
X304863Y428493D01*
X304926Y428432D01*
X304987Y428369D01*
X305044Y428304D01*
X305099Y428236D01*
X305150Y428165D01*
X305199Y428093D01*
X305244Y428018D01*
X305286Y427941D01*
X305325Y427863D01*
X305360Y427783D01*
X305391Y427702D01*
X305419Y427619D01*
X305444Y427536D01*
X305465Y427451D01*
X305482Y427365D01*
X305495Y427279D01*
X305504Y427192D01*
X305510Y427105D01*
X305512Y427018D01*
X305512Y415018D01*
X305510Y414931D01*
X305504Y414844D01*
X305495Y414757D01*
X305482Y414671D01*
X305465Y414585D01*
X305444Y414500D01*
X305419Y414417D01*
X305391Y414334D01*
X305360Y414253D01*
X305325Y414173D01*
X305286Y414095D01*
X305244Y414018D01*
X305199Y413943D01*
X305150Y413871D01*
X305099Y413800D01*
X305044Y413732D01*
X304987Y413667D01*
X304926Y413604D01*
X304863Y413543D01*
X304798Y413486D01*
X304730Y413431D01*
X304659Y413380D01*
X304587Y413331D01*
X304512Y413286D01*
X304435Y413244D01*
X304357Y413205D01*
X304277Y413170D01*
X304196Y413139D01*
X304113Y413111D01*
X304030Y413086D01*
X303945Y413065D01*
X303859Y413048D01*
X303773Y413035D01*
X303686Y413026D01*
X303599Y413020D01*
X303512Y413018D01*
X299012Y413018D01*
X298952Y413016D01*
X298891Y413011D01*
X298832Y413002D01*
X298773Y412989D01*
X298714Y412973D01*
X298657Y412953D01*
X298602Y412930D01*
X298547Y412903D01*
X298495Y412874D01*
X298444Y412841D01*
X298395Y412805D01*
X298349Y412767D01*
X298305Y412725D01*
X298263Y412681D01*
X298225Y412635D01*
X298189Y412586D01*
X298156Y412535D01*
X298127Y412483D01*
X298100Y412428D01*
X298077Y412373D01*
X298057Y412316D01*
X298041Y412257D01*
X298028Y412198D01*
X298019Y412139D01*
X298014Y412078D01*
X298012Y412018D01*
X298012Y409018D01*
X298010Y408958D01*
X298005Y408897D01*
X297996Y408838D01*
X297983Y408779D01*
X297967Y408720D01*
X297947Y408663D01*
X297924Y408608D01*
X297897Y408553D01*
X297868Y408501D01*
X297835Y408450D01*
X297799Y408401D01*
X297761Y408355D01*
X297719Y408311D01*
X297675Y408269D01*
X297629Y408231D01*
X297580Y408195D01*
X297529Y408162D01*
X297477Y408133D01*
X297422Y408106D01*
X297367Y408083D01*
X297310Y408063D01*
X297251Y408047D01*
X297192Y408034D01*
X297133Y408025D01*
X297072Y408020D01*
X297012Y408018D01*
X294512Y408018D01*
X294436Y408016D01*
X294360Y408010D01*
X294285Y408001D01*
X294210Y407987D01*
X294136Y407970D01*
X294063Y407949D01*
X293991Y407925D01*
X293920Y407896D01*
X293851Y407865D01*
X293784Y407830D01*
X293719Y407791D01*
X293655Y407749D01*
X293594Y407704D01*
X293535Y407656D01*
X293479Y407605D01*
X293425Y407551D01*
X293374Y407495D01*
X293326Y407436D01*
X293281Y407375D01*
X293239Y407311D01*
X293200Y407246D01*
X293165Y407179D01*
X293134Y407110D01*
X293105Y407039D01*
X293081Y406967D01*
X293060Y406894D01*
X293043Y406820D01*
X293029Y406745D01*
X293020Y406670D01*
X293014Y406594D01*
X293012Y406518D01*
X293012Y390518D01*
X224112Y390518D01*
X224112Y418018D01*
X225712Y418018D01*
X225712Y424018D01*
X224112Y424018D01*
X224112Y451518D01*
D21*
X280966Y458603D02*
X283132Y460769D01*
X283132Y454272D01*
X280966Y454272D02*
X285298Y454272D01*
X285298Y381272D02*
X280966Y381272D01*
X285298Y385603D01*
X285298Y386686D01*
X284215Y387769D01*
X282049Y387769D01*
X280966Y386686D01*
D22*
X209939Y416108D02*
X208753Y417295D01*
X209939Y416108D02*
X211125Y416108D01*
X212312Y417295D01*
X212312Y423226D01*
X213498Y423226D02*
X211125Y423226D01*
X216237Y420854D02*
X218610Y423226D01*
X218610Y416108D01*
X220982Y416108D02*
X216237Y416108D01*
D12*
X50800Y367030D02*
X50800Y354330D01*
X50800Y367030D02*
X57150Y373380D01*
X69850Y373380D01*
X76200Y367030D01*
X69850Y347980D02*
X57150Y347980D01*
X50800Y354330D01*
X69850Y347980D02*
X76200Y354330D01*
X76200Y367030D01*
D19*
X60235Y376428D02*
X58921Y377741D01*
X58921Y380368D01*
X60235Y381682D01*
X61548Y381682D01*
X62862Y380368D01*
X62862Y379055D01*
X62862Y380368D02*
X64175Y381682D01*
X65489Y381682D01*
X66802Y380368D01*
X66802Y377741D01*
X65489Y376428D01*
X64175Y384848D02*
X58921Y384848D01*
X64175Y384848D02*
X66802Y387475D01*
X64175Y390101D01*
X58921Y390101D01*
X60235Y393267D02*
X58921Y394581D01*
X58921Y397208D01*
X60235Y398521D01*
X61548Y398521D01*
X62862Y397208D01*
X62862Y395894D01*
X62862Y397208D02*
X64175Y398521D01*
X65489Y398521D01*
X66802Y397208D01*
X66802Y394581D01*
X65489Y393267D01*
X58921Y405627D02*
X60235Y406941D01*
X58921Y405627D02*
X58921Y403000D01*
X60235Y401687D01*
X61548Y401687D01*
X62862Y403000D01*
X62862Y405627D01*
X64175Y406941D01*
X65489Y406941D01*
X66802Y405627D01*
X66802Y403000D01*
X65489Y401687D01*
X66802Y410107D02*
X58921Y410107D01*
X64175Y412734D02*
X66802Y410107D01*
X64175Y412734D02*
X66802Y415360D01*
X58921Y415360D01*
D12*
X25400Y367030D02*
X25400Y354330D01*
X25400Y367030D02*
X31750Y373380D01*
X44450Y373380D01*
X50800Y367030D01*
X44450Y347980D02*
X31750Y347980D01*
X25400Y354330D01*
X44450Y347980D02*
X50800Y354330D01*
X50800Y367030D01*
X50800Y341630D02*
X50800Y328930D01*
X44450Y322580D01*
X31750Y322580D01*
X25400Y328930D01*
X31750Y347980D02*
X44450Y347980D01*
X50800Y341630D01*
X31750Y347980D02*
X25400Y341630D01*
X25400Y328930D01*
X36358Y298626D02*
X34918Y297185D01*
X34918Y294304D01*
X36358Y292863D01*
X37799Y292863D01*
X39239Y294304D01*
X39239Y297185D01*
X40680Y298626D01*
X42120Y298626D01*
X43561Y297185D01*
X43561Y294304D01*
X42120Y292863D01*
X34918Y306540D02*
X36358Y307981D01*
X34918Y306540D02*
X34918Y303659D01*
X36358Y302219D01*
X42120Y302219D01*
X43561Y303659D01*
X43561Y306540D01*
X42120Y307981D01*
X43561Y311574D02*
X34918Y311574D01*
X43561Y311574D02*
X43561Y317336D01*
X76200Y328930D02*
X76200Y341630D01*
X76200Y328930D02*
X69850Y322580D01*
X57150Y322580D01*
X50800Y328930D01*
X57150Y347980D02*
X69850Y347980D01*
X76200Y341630D01*
X57150Y347980D02*
X50800Y341630D01*
X50800Y328930D01*
X61758Y298626D02*
X60318Y297185D01*
X60318Y294304D01*
X61758Y292863D01*
X63199Y292863D01*
X64639Y294304D01*
X64639Y297185D01*
X66080Y298626D01*
X67520Y298626D01*
X68961Y297185D01*
X68961Y294304D01*
X67520Y292863D01*
X68961Y302219D02*
X60318Y302219D01*
X68961Y302219D02*
X68961Y306540D01*
X67520Y307981D01*
X61758Y307981D01*
X60318Y306540D01*
X60318Y302219D01*
X63199Y311574D02*
X68961Y311574D01*
X63199Y311574D02*
X60318Y314455D01*
X63199Y317336D01*
X68961Y317336D01*
X64639Y317336D02*
X64639Y311574D01*
D15*
X157480Y352108D02*
X167640Y352108D01*
D12*
X174746Y349461D02*
X175848Y350563D01*
X174746Y349461D02*
X174746Y347258D01*
X175848Y346156D01*
X180254Y346156D01*
X181356Y347258D01*
X181356Y349461D01*
X180254Y350563D01*
X175848Y353640D02*
X174746Y354742D01*
X174746Y356945D01*
X175848Y358047D01*
X176950Y358047D01*
X178051Y356945D01*
X178051Y355844D01*
X178051Y356945D02*
X179153Y358047D01*
X180254Y358047D01*
X181356Y356945D01*
X181356Y354742D01*
X180254Y353640D01*
X482600Y193358D02*
X482600Y180658D01*
X482600Y193358D02*
X488950Y199708D01*
X501650Y199708D01*
X508000Y193358D01*
X501650Y174308D02*
X488950Y174308D01*
X482600Y180658D01*
X501650Y174308D02*
X508000Y180658D01*
X508000Y193358D01*
X491272Y208010D02*
X489832Y206569D01*
X489832Y203688D01*
X491272Y202248D01*
X492713Y202248D01*
X494153Y203688D01*
X494153Y206569D01*
X495594Y208010D01*
X497034Y208010D01*
X498475Y206569D01*
X498475Y203688D01*
X497034Y202248D01*
X498475Y211603D02*
X489832Y211603D01*
X495594Y214484D02*
X498475Y211603D01*
X495594Y214484D02*
X498475Y217365D01*
X489832Y217365D01*
X489832Y225280D02*
X491272Y226720D01*
X489832Y225280D02*
X489832Y222398D01*
X491272Y220958D01*
X497034Y220958D01*
X498475Y222398D01*
X498475Y225280D01*
X497034Y226720D01*
X498475Y230313D02*
X489832Y230313D01*
X498475Y230313D02*
X498475Y236075D01*
X498475Y239668D02*
X489832Y239668D01*
X495594Y239668D02*
X489832Y245431D01*
X494153Y241109D02*
X498475Y245431D01*
X508000Y193358D02*
X508000Y180658D01*
X508000Y193358D02*
X514350Y199708D01*
X527050Y199708D01*
X533400Y193358D01*
X527050Y174308D02*
X514350Y174308D01*
X508000Y180658D01*
X527050Y174308D02*
X533400Y180658D01*
X533400Y193358D01*
X518407Y207204D02*
X519847Y208645D01*
X518407Y207204D02*
X518407Y204323D01*
X519847Y202883D01*
X521288Y202883D01*
X522728Y204323D01*
X522728Y207204D01*
X524169Y208645D01*
X525609Y208645D01*
X527050Y207204D01*
X527050Y204323D01*
X525609Y202883D01*
X527050Y212238D02*
X518407Y212238D01*
X524169Y215119D02*
X527050Y212238D01*
X524169Y215119D02*
X527050Y218000D01*
X518407Y218000D01*
X518407Y221593D02*
X527050Y221593D01*
X527050Y225915D01*
X525609Y227355D01*
X519847Y227355D01*
X518407Y225915D01*
X518407Y221593D01*
X527050Y230948D02*
X527050Y233829D01*
X527050Y232389D02*
X518407Y232389D01*
X518407Y233829D02*
X518407Y230948D01*
X518407Y238625D02*
X518407Y241507D01*
X518407Y238625D02*
X519847Y237185D01*
X525609Y237185D01*
X527050Y238625D01*
X527050Y241507D01*
X525609Y242947D01*
X519847Y242947D01*
X518407Y241507D01*
D16*
X342900Y495618D02*
X330200Y495618D01*
X274955Y508318D02*
X274968Y509362D01*
X275006Y510406D01*
X275070Y511448D01*
X275160Y512488D01*
X275275Y513526D01*
X275415Y514561D01*
X275581Y515592D01*
X275772Y516618D01*
X275989Y517640D01*
X276230Y518656D01*
X276496Y519665D01*
X276787Y520668D01*
X277102Y521664D01*
X277442Y522651D01*
X277806Y523630D01*
X278194Y524599D01*
X278605Y525559D01*
X279040Y526508D01*
X279498Y527447D01*
X279979Y528374D01*
X280482Y529288D01*
X281008Y530191D01*
X281556Y531079D01*
X282125Y531955D01*
X282716Y532816D01*
X283328Y533662D01*
X283960Y534493D01*
X284612Y535308D01*
X285285Y536107D01*
X285976Y536889D01*
X286687Y537655D01*
X287416Y538402D01*
X288163Y539131D01*
X288929Y539842D01*
X289711Y540533D01*
X290510Y541206D01*
X291325Y541858D01*
X292156Y542490D01*
X293002Y543102D01*
X293863Y543693D01*
X294739Y544262D01*
X295627Y544810D01*
X296530Y545336D01*
X297444Y545839D01*
X298371Y546320D01*
X299310Y546778D01*
X300259Y547213D01*
X301219Y547624D01*
X302188Y548012D01*
X303167Y548376D01*
X304154Y548716D01*
X305150Y549031D01*
X306153Y549322D01*
X307162Y549588D01*
X308178Y549829D01*
X309200Y550046D01*
X310226Y550237D01*
X311257Y550403D01*
X312292Y550543D01*
X313330Y550658D01*
X314370Y550748D01*
X315412Y550812D01*
X316456Y550850D01*
X317500Y550863D01*
X318544Y550850D01*
X319588Y550812D01*
X320630Y550748D01*
X321670Y550658D01*
X322708Y550543D01*
X323743Y550403D01*
X324774Y550237D01*
X325800Y550046D01*
X326822Y549829D01*
X327838Y549588D01*
X328847Y549322D01*
X329850Y549031D01*
X330846Y548716D01*
X331833Y548376D01*
X332812Y548012D01*
X333781Y547624D01*
X334741Y547213D01*
X335690Y546778D01*
X336629Y546320D01*
X337556Y545839D01*
X338470Y545336D01*
X339373Y544810D01*
X340261Y544262D01*
X341137Y543693D01*
X341998Y543102D01*
X342844Y542490D01*
X343675Y541858D01*
X344490Y541206D01*
X345289Y540533D01*
X346071Y539842D01*
X346837Y539131D01*
X347584Y538402D01*
X348313Y537655D01*
X349024Y536889D01*
X349715Y536107D01*
X350388Y535308D01*
X351040Y534493D01*
X351672Y533662D01*
X352284Y532816D01*
X352875Y531955D01*
X353444Y531079D01*
X353992Y530191D01*
X354518Y529288D01*
X355021Y528374D01*
X355502Y527447D01*
X355960Y526508D01*
X356395Y525559D01*
X356806Y524599D01*
X357194Y523630D01*
X357558Y522651D01*
X357898Y521664D01*
X358213Y520668D01*
X358504Y519665D01*
X358770Y518656D01*
X359011Y517640D01*
X359228Y516618D01*
X359419Y515592D01*
X359585Y514561D01*
X359725Y513526D01*
X359840Y512488D01*
X359930Y511448D01*
X359994Y510406D01*
X360032Y509362D01*
X360045Y508318D01*
X360032Y507274D01*
X359994Y506230D01*
X359930Y505188D01*
X359840Y504148D01*
X359725Y503110D01*
X359585Y502075D01*
X359419Y501044D01*
X359228Y500018D01*
X359011Y498996D01*
X358770Y497980D01*
X358504Y496971D01*
X358213Y495968D01*
X357898Y494972D01*
X357558Y493985D01*
X357194Y493006D01*
X356806Y492037D01*
X356395Y491077D01*
X355960Y490128D01*
X355502Y489189D01*
X355021Y488262D01*
X354518Y487348D01*
X353992Y486445D01*
X353444Y485557D01*
X352875Y484681D01*
X352284Y483820D01*
X351672Y482974D01*
X351040Y482143D01*
X350388Y481328D01*
X349715Y480529D01*
X349024Y479747D01*
X348313Y478981D01*
X347584Y478234D01*
X346837Y477505D01*
X346071Y476794D01*
X345289Y476103D01*
X344490Y475430D01*
X343675Y474778D01*
X342844Y474146D01*
X341998Y473534D01*
X341137Y472943D01*
X340261Y472374D01*
X339373Y471826D01*
X338470Y471300D01*
X337556Y470797D01*
X336629Y470316D01*
X335690Y469858D01*
X334741Y469423D01*
X333781Y469012D01*
X332812Y468624D01*
X331833Y468260D01*
X330846Y467920D01*
X329850Y467605D01*
X328847Y467314D01*
X327838Y467048D01*
X326822Y466807D01*
X325800Y466590D01*
X324774Y466399D01*
X323743Y466233D01*
X322708Y466093D01*
X321670Y465978D01*
X320630Y465888D01*
X319588Y465824D01*
X318544Y465786D01*
X317500Y465773D01*
X316456Y465786D01*
X315412Y465824D01*
X314370Y465888D01*
X313330Y465978D01*
X312292Y466093D01*
X311257Y466233D01*
X310226Y466399D01*
X309200Y466590D01*
X308178Y466807D01*
X307162Y467048D01*
X306153Y467314D01*
X305150Y467605D01*
X304154Y467920D01*
X303167Y468260D01*
X302188Y468624D01*
X301219Y469012D01*
X300259Y469423D01*
X299310Y469858D01*
X298371Y470316D01*
X297444Y470797D01*
X296530Y471300D01*
X295627Y471826D01*
X294739Y472374D01*
X293863Y472943D01*
X293002Y473534D01*
X292156Y474146D01*
X291325Y474778D01*
X290510Y475430D01*
X289711Y476103D01*
X288929Y476794D01*
X288163Y477505D01*
X287416Y478234D01*
X286687Y478981D01*
X285976Y479747D01*
X285285Y480529D01*
X284612Y481328D01*
X283960Y482143D01*
X283328Y482974D01*
X282716Y483820D01*
X282125Y484681D01*
X281556Y485557D01*
X281008Y486445D01*
X280482Y487348D01*
X279979Y488262D01*
X279498Y489189D01*
X279040Y490128D01*
X278605Y491077D01*
X278194Y492037D01*
X277806Y493006D01*
X277442Y493985D01*
X277102Y494972D01*
X276787Y495968D01*
X276496Y496971D01*
X276230Y497980D01*
X275989Y498996D01*
X275772Y500018D01*
X275581Y501044D01*
X275415Y502075D01*
X275275Y503110D01*
X275160Y504148D01*
X275070Y505188D01*
X275006Y506230D01*
X274968Y507274D01*
X274955Y508318D01*
D19*
X312298Y485783D02*
X313781Y484300D01*
X312298Y485783D02*
X309332Y485783D01*
X307849Y484300D01*
X307849Y478368D01*
X309332Y476885D01*
X312298Y476885D01*
X313781Y478368D01*
X317205Y482817D02*
X320170Y485783D01*
X320170Y476885D01*
X317205Y476885D02*
X323136Y476885D01*
X326560Y482817D02*
X329526Y485783D01*
X329526Y476885D01*
X326560Y476885D02*
X332492Y476885D01*
D16*
X431800Y495618D02*
X444500Y495618D01*
X376555Y508318D02*
X376568Y509362D01*
X376606Y510406D01*
X376670Y511448D01*
X376760Y512488D01*
X376875Y513526D01*
X377015Y514561D01*
X377181Y515592D01*
X377372Y516618D01*
X377589Y517640D01*
X377830Y518656D01*
X378096Y519665D01*
X378387Y520668D01*
X378702Y521664D01*
X379042Y522651D01*
X379406Y523630D01*
X379794Y524599D01*
X380205Y525559D01*
X380640Y526508D01*
X381098Y527447D01*
X381579Y528374D01*
X382082Y529288D01*
X382608Y530191D01*
X383156Y531079D01*
X383725Y531955D01*
X384316Y532816D01*
X384928Y533662D01*
X385560Y534493D01*
X386212Y535308D01*
X386885Y536107D01*
X387576Y536889D01*
X388287Y537655D01*
X389016Y538402D01*
X389763Y539131D01*
X390529Y539842D01*
X391311Y540533D01*
X392110Y541206D01*
X392925Y541858D01*
X393756Y542490D01*
X394602Y543102D01*
X395463Y543693D01*
X396339Y544262D01*
X397227Y544810D01*
X398130Y545336D01*
X399044Y545839D01*
X399971Y546320D01*
X400910Y546778D01*
X401859Y547213D01*
X402819Y547624D01*
X403788Y548012D01*
X404767Y548376D01*
X405754Y548716D01*
X406750Y549031D01*
X407753Y549322D01*
X408762Y549588D01*
X409778Y549829D01*
X410800Y550046D01*
X411826Y550237D01*
X412857Y550403D01*
X413892Y550543D01*
X414930Y550658D01*
X415970Y550748D01*
X417012Y550812D01*
X418056Y550850D01*
X419100Y550863D01*
X420144Y550850D01*
X421188Y550812D01*
X422230Y550748D01*
X423270Y550658D01*
X424308Y550543D01*
X425343Y550403D01*
X426374Y550237D01*
X427400Y550046D01*
X428422Y549829D01*
X429438Y549588D01*
X430447Y549322D01*
X431450Y549031D01*
X432446Y548716D01*
X433433Y548376D01*
X434412Y548012D01*
X435381Y547624D01*
X436341Y547213D01*
X437290Y546778D01*
X438229Y546320D01*
X439156Y545839D01*
X440070Y545336D01*
X440973Y544810D01*
X441861Y544262D01*
X442737Y543693D01*
X443598Y543102D01*
X444444Y542490D01*
X445275Y541858D01*
X446090Y541206D01*
X446889Y540533D01*
X447671Y539842D01*
X448437Y539131D01*
X449184Y538402D01*
X449913Y537655D01*
X450624Y536889D01*
X451315Y536107D01*
X451988Y535308D01*
X452640Y534493D01*
X453272Y533662D01*
X453884Y532816D01*
X454475Y531955D01*
X455044Y531079D01*
X455592Y530191D01*
X456118Y529288D01*
X456621Y528374D01*
X457102Y527447D01*
X457560Y526508D01*
X457995Y525559D01*
X458406Y524599D01*
X458794Y523630D01*
X459158Y522651D01*
X459498Y521664D01*
X459813Y520668D01*
X460104Y519665D01*
X460370Y518656D01*
X460611Y517640D01*
X460828Y516618D01*
X461019Y515592D01*
X461185Y514561D01*
X461325Y513526D01*
X461440Y512488D01*
X461530Y511448D01*
X461594Y510406D01*
X461632Y509362D01*
X461645Y508318D01*
X461632Y507274D01*
X461594Y506230D01*
X461530Y505188D01*
X461440Y504148D01*
X461325Y503110D01*
X461185Y502075D01*
X461019Y501044D01*
X460828Y500018D01*
X460611Y498996D01*
X460370Y497980D01*
X460104Y496971D01*
X459813Y495968D01*
X459498Y494972D01*
X459158Y493985D01*
X458794Y493006D01*
X458406Y492037D01*
X457995Y491077D01*
X457560Y490128D01*
X457102Y489189D01*
X456621Y488262D01*
X456118Y487348D01*
X455592Y486445D01*
X455044Y485557D01*
X454475Y484681D01*
X453884Y483820D01*
X453272Y482974D01*
X452640Y482143D01*
X451988Y481328D01*
X451315Y480529D01*
X450624Y479747D01*
X449913Y478981D01*
X449184Y478234D01*
X448437Y477505D01*
X447671Y476794D01*
X446889Y476103D01*
X446090Y475430D01*
X445275Y474778D01*
X444444Y474146D01*
X443598Y473534D01*
X442737Y472943D01*
X441861Y472374D01*
X440973Y471826D01*
X440070Y471300D01*
X439156Y470797D01*
X438229Y470316D01*
X437290Y469858D01*
X436341Y469423D01*
X435381Y469012D01*
X434412Y468624D01*
X433433Y468260D01*
X432446Y467920D01*
X431450Y467605D01*
X430447Y467314D01*
X429438Y467048D01*
X428422Y466807D01*
X427400Y466590D01*
X426374Y466399D01*
X425343Y466233D01*
X424308Y466093D01*
X423270Y465978D01*
X422230Y465888D01*
X421188Y465824D01*
X420144Y465786D01*
X419100Y465773D01*
X418056Y465786D01*
X417012Y465824D01*
X415970Y465888D01*
X414930Y465978D01*
X413892Y466093D01*
X412857Y466233D01*
X411826Y466399D01*
X410800Y466590D01*
X409778Y466807D01*
X408762Y467048D01*
X407753Y467314D01*
X406750Y467605D01*
X405754Y467920D01*
X404767Y468260D01*
X403788Y468624D01*
X402819Y469012D01*
X401859Y469423D01*
X400910Y469858D01*
X399971Y470316D01*
X399044Y470797D01*
X398130Y471300D01*
X397227Y471826D01*
X396339Y472374D01*
X395463Y472943D01*
X394602Y473534D01*
X393756Y474146D01*
X392925Y474778D01*
X392110Y475430D01*
X391311Y476103D01*
X390529Y476794D01*
X389763Y477505D01*
X389016Y478234D01*
X388287Y478981D01*
X387576Y479747D01*
X386885Y480529D01*
X386212Y481328D01*
X385560Y482143D01*
X384928Y482974D01*
X384316Y483820D01*
X383725Y484681D01*
X383156Y485557D01*
X382608Y486445D01*
X382082Y487348D01*
X381579Y488262D01*
X381098Y489189D01*
X380640Y490128D01*
X380205Y491077D01*
X379794Y492037D01*
X379406Y493006D01*
X379042Y493985D01*
X378702Y494972D01*
X378387Y495968D01*
X378096Y496971D01*
X377830Y497980D01*
X377589Y498996D01*
X377372Y500018D01*
X377181Y501044D01*
X377015Y502075D01*
X376875Y503110D01*
X376760Y504148D01*
X376670Y505188D01*
X376606Y506230D01*
X376568Y507274D01*
X376555Y508318D01*
D19*
X417391Y487370D02*
X418874Y485887D01*
X417391Y487370D02*
X414425Y487370D01*
X412942Y485887D01*
X412942Y479955D01*
X414425Y478473D01*
X417391Y478473D01*
X418874Y479955D01*
X422297Y484404D02*
X425263Y487370D01*
X425263Y478473D01*
X422297Y478473D02*
X428229Y478473D01*
X431652Y478473D02*
X437584Y478473D01*
X437584Y484404D02*
X431652Y478473D01*
X437584Y484404D02*
X437584Y485887D01*
X436101Y487370D01*
X433135Y487370D01*
X431652Y485887D01*
D12*
X558800Y367348D02*
X558800Y354648D01*
X552450Y348298D01*
X539750Y348298D01*
X533400Y354648D01*
X539750Y373698D02*
X552450Y373698D01*
X558800Y367348D01*
X539750Y373698D02*
X533400Y367348D01*
X533400Y354648D01*
X533400Y367348D01*
X533400Y354648D02*
X527050Y348298D01*
X514350Y348298D01*
X508000Y354648D01*
X514350Y373698D02*
X527050Y373698D01*
X533400Y367348D01*
X514350Y373698D02*
X508000Y367348D01*
X508000Y354648D01*
X518958Y379541D02*
X517518Y380982D01*
X517518Y383863D01*
X518958Y385303D01*
X520399Y385303D01*
X521839Y383863D01*
X521839Y382422D01*
X521839Y383863D02*
X523280Y385303D01*
X524720Y385303D01*
X526161Y383863D01*
X526161Y380982D01*
X524720Y379541D01*
X523280Y388896D02*
X517518Y388896D01*
X523280Y388896D02*
X526161Y391777D01*
X523280Y394658D01*
X517518Y394658D01*
X518958Y398251D02*
X517518Y399692D01*
X517518Y402573D01*
X518958Y404014D01*
X520399Y404014D01*
X521839Y402573D01*
X521839Y401132D01*
X521839Y402573D02*
X523280Y404014D01*
X524720Y404014D01*
X526161Y402573D01*
X526161Y399692D01*
X524720Y398251D01*
X482600Y341948D02*
X482600Y329248D01*
X482600Y341948D02*
X488950Y348298D01*
X501650Y348298D01*
X508000Y341948D01*
X501650Y322898D02*
X488950Y322898D01*
X482600Y329248D01*
X501650Y322898D02*
X508000Y329248D01*
X508000Y341948D01*
X492542Y300085D02*
X491102Y298644D01*
X491102Y295763D01*
X492542Y294323D01*
X493983Y294323D01*
X495423Y295763D01*
X495423Y298644D01*
X496864Y300085D01*
X498304Y300085D01*
X499745Y298644D01*
X499745Y295763D01*
X498304Y294323D01*
X491102Y307999D02*
X492542Y309440D01*
X491102Y307999D02*
X491102Y305118D01*
X492542Y303678D01*
X498304Y303678D01*
X499745Y305118D01*
X499745Y307999D01*
X498304Y309440D01*
X499745Y313033D02*
X491102Y313033D01*
X496864Y313033D02*
X491102Y318795D01*
X495423Y314473D02*
X499745Y318795D01*
X508000Y354648D02*
X508000Y367348D01*
X508000Y354648D02*
X501650Y348298D01*
X488950Y348298D01*
X482600Y354648D01*
X488950Y373698D02*
X501650Y373698D01*
X508000Y367348D01*
X488950Y373698D02*
X482600Y367348D01*
X482600Y354648D01*
X490530Y379337D02*
X499174Y379337D01*
X493411Y382218D02*
X490530Y379337D01*
X493411Y382218D02*
X490530Y385099D01*
X499174Y385099D01*
X499174Y388692D02*
X499174Y391573D01*
X499174Y390132D02*
X490530Y390132D01*
X490530Y388692D02*
X490530Y391573D01*
X490530Y399250D02*
X491971Y400691D01*
X490530Y399250D02*
X490530Y396369D01*
X491971Y394929D01*
X493411Y394929D01*
X494852Y396369D01*
X494852Y399250D01*
X496292Y400691D01*
X497733Y400691D01*
X499174Y399250D01*
X499174Y396369D01*
X497733Y394929D01*
X490530Y405724D02*
X490530Y408605D01*
X490530Y405724D02*
X491971Y404284D01*
X497733Y404284D01*
X499174Y405724D01*
X499174Y408605D01*
X497733Y410046D01*
X491971Y410046D01*
X490530Y408605D01*
X508000Y341948D02*
X508000Y329248D01*
X508000Y341948D02*
X514350Y348298D01*
X527050Y348298D01*
X533400Y341948D01*
X527050Y322898D02*
X514350Y322898D01*
X508000Y329248D01*
X527050Y322898D02*
X533400Y329248D01*
X533400Y341948D01*
X524828Y287655D02*
X516184Y287655D01*
X519065Y290536D01*
X516184Y293417D01*
X524828Y293417D01*
X516184Y298451D02*
X516184Y301332D01*
X516184Y298451D02*
X517625Y297010D01*
X523387Y297010D01*
X524828Y298451D01*
X524828Y301332D01*
X523387Y302772D01*
X517625Y302772D01*
X516184Y301332D01*
X516184Y310687D02*
X517625Y312128D01*
X516184Y310687D02*
X516184Y307806D01*
X517625Y306365D01*
X519065Y306365D01*
X520506Y307806D01*
X520506Y310687D01*
X521946Y312128D01*
X523387Y312128D01*
X524828Y310687D01*
X524828Y307806D01*
X523387Y306365D01*
X524828Y315721D02*
X524828Y318602D01*
X524828Y317161D02*
X516184Y317161D01*
X516184Y315721D02*
X516184Y318602D01*
X533400Y329248D02*
X533400Y341948D01*
X539750Y348298D01*
X552450Y348298D01*
X558800Y341948D01*
X552450Y322898D02*
X539750Y322898D01*
X533400Y329248D01*
X552450Y322898D02*
X558800Y329248D01*
X558800Y341948D01*
X543025Y308657D02*
X541584Y307217D01*
X541584Y304336D01*
X543025Y302895D01*
X548787Y302895D01*
X550228Y304336D01*
X550228Y307217D01*
X548787Y308657D01*
X541584Y316572D02*
X543025Y318012D01*
X541584Y316572D02*
X541584Y313691D01*
X543025Y312250D01*
X544465Y312250D01*
X545906Y313691D01*
X545906Y316572D01*
X547346Y318012D01*
X548787Y318012D01*
X550228Y316572D01*
X550228Y313691D01*
X548787Y312250D01*
X405511Y434785D02*
X405511Y440119D01*
X405511Y425641D02*
X405511Y420307D01*
X375539Y434785D02*
X375539Y440119D01*
X375539Y425641D02*
X375539Y420307D01*
D22*
X354775Y426531D02*
X354775Y434157D01*
X354775Y426531D02*
X356300Y425006D01*
X359350Y425006D01*
X360876Y426531D01*
X360876Y434157D01*
X364130Y432632D02*
X365655Y434157D01*
X368706Y434157D01*
X370231Y432632D01*
X370231Y431107D01*
X368706Y429581D01*
X367180Y429581D01*
X368706Y429581D02*
X370231Y428056D01*
X370231Y426531D01*
X368706Y425006D01*
X365655Y425006D01*
X364130Y426531D01*
D12*
X382617Y393579D02*
X383718Y392477D01*
X382617Y393579D02*
X380414Y393579D01*
X379312Y392477D01*
X379312Y388071D01*
X380414Y386969D01*
X382617Y386969D01*
X383718Y388071D01*
X386796Y391375D02*
X388999Y393579D01*
X388999Y386969D01*
X386796Y386969D02*
X391203Y386969D01*
X394280Y393579D02*
X398687Y393579D01*
X394280Y393579D02*
X394280Y390274D01*
X396484Y391375D01*
X397585Y391375D01*
X398687Y390274D01*
X398687Y388071D01*
X397585Y386969D01*
X395382Y386969D01*
X394280Y388071D01*
D15*
X483235Y463550D02*
X483235Y473710D01*
D12*
X476966Y457079D02*
X476966Y450469D01*
X476966Y457079D02*
X480271Y457079D01*
X481373Y455977D01*
X481373Y453774D01*
X480271Y452672D01*
X476966Y452672D01*
X479169Y452672D02*
X481373Y450469D01*
X484450Y450469D02*
X488857Y450469D01*
X488857Y454875D02*
X484450Y450469D01*
X488857Y454875D02*
X488857Y455977D01*
X487755Y457079D01*
X485552Y457079D01*
X484450Y455977D01*
X362356Y482520D02*
X361254Y483622D01*
X359051Y483622D01*
X357950Y482520D01*
X357950Y478114D01*
X359051Y477012D01*
X361254Y477012D01*
X362356Y478114D01*
X365434Y481418D02*
X367637Y483622D01*
X367637Y477012D01*
X365434Y477012D02*
X369840Y477012D01*
X375121Y482520D02*
X377324Y483622D01*
X375121Y482520D02*
X372918Y480317D01*
X372918Y478114D01*
X374019Y477012D01*
X376223Y477012D01*
X377324Y478114D01*
X377324Y479215D01*
X376223Y480317D01*
X372918Y480317D01*
D15*
X421323Y393065D02*
X421323Y382905D01*
D12*
X415417Y377894D02*
X415417Y371285D01*
X415417Y377894D02*
X418722Y377894D01*
X419823Y376793D01*
X419823Y374589D01*
X418722Y373488D01*
X415417Y373488D01*
X417620Y373488D02*
X419823Y371285D01*
X426206Y371285D02*
X426206Y377894D01*
X422901Y374589D01*
X427308Y374589D01*
D15*
X367983Y539433D02*
X367983Y549593D01*
D12*
X362842Y532834D02*
X363943Y531733D01*
X362842Y532834D02*
X360639Y532834D01*
X359537Y531733D01*
X359537Y527326D01*
X360639Y526225D01*
X362842Y526225D01*
X363943Y527326D01*
X367021Y530631D02*
X369224Y532834D01*
X369224Y526225D01*
X367021Y526225D02*
X371428Y526225D01*
X374505Y532834D02*
X378912Y532834D01*
X378912Y531733D01*
X374505Y527326D01*
X374505Y526225D01*
D19*
X233250Y31750D02*
X233252Y31948D01*
X233260Y32145D01*
X233272Y32342D01*
X233289Y32539D01*
X233311Y32735D01*
X233337Y32931D01*
X233369Y33126D01*
X233405Y33320D01*
X233446Y33514D01*
X233491Y33706D01*
X233542Y33897D01*
X233597Y34087D01*
X233656Y34275D01*
X233721Y34462D01*
X233789Y34647D01*
X233863Y34831D01*
X233941Y35012D01*
X234023Y35192D01*
X234110Y35369D01*
X234201Y35545D01*
X234296Y35718D01*
X234395Y35889D01*
X234499Y36057D01*
X234607Y36222D01*
X234718Y36385D01*
X234834Y36545D01*
X234954Y36703D01*
X235077Y36857D01*
X235204Y37008D01*
X235335Y37156D01*
X235470Y37301D01*
X235608Y37442D01*
X235749Y37580D01*
X235894Y37715D01*
X236042Y37846D01*
X236193Y37973D01*
X236347Y38096D01*
X236505Y38216D01*
X236665Y38332D01*
X236828Y38443D01*
X236993Y38551D01*
X237161Y38655D01*
X237332Y38754D01*
X237505Y38849D01*
X237681Y38940D01*
X237858Y39027D01*
X238038Y39109D01*
X238219Y39187D01*
X238403Y39261D01*
X238588Y39329D01*
X238775Y39394D01*
X238963Y39453D01*
X239153Y39508D01*
X239344Y39559D01*
X239536Y39604D01*
X239730Y39645D01*
X239924Y39681D01*
X240119Y39713D01*
X240315Y39739D01*
X240511Y39761D01*
X240708Y39778D01*
X240905Y39790D01*
X241102Y39798D01*
X241300Y39800D01*
X241498Y39798D01*
X241695Y39790D01*
X241892Y39778D01*
X242089Y39761D01*
X242285Y39739D01*
X242481Y39713D01*
X242676Y39681D01*
X242870Y39645D01*
X243064Y39604D01*
X243256Y39559D01*
X243447Y39508D01*
X243637Y39453D01*
X243825Y39394D01*
X244012Y39329D01*
X244197Y39261D01*
X244381Y39187D01*
X244562Y39109D01*
X244742Y39027D01*
X244919Y38940D01*
X245095Y38849D01*
X245268Y38754D01*
X245439Y38655D01*
X245607Y38551D01*
X245772Y38443D01*
X245935Y38332D01*
X246095Y38216D01*
X246253Y38096D01*
X246407Y37973D01*
X246558Y37846D01*
X246706Y37715D01*
X246851Y37580D01*
X246992Y37442D01*
X247130Y37301D01*
X247265Y37156D01*
X247396Y37008D01*
X247523Y36857D01*
X247646Y36703D01*
X247766Y36545D01*
X247882Y36385D01*
X247993Y36222D01*
X248101Y36057D01*
X248205Y35889D01*
X248304Y35718D01*
X248399Y35545D01*
X248490Y35369D01*
X248577Y35192D01*
X248659Y35012D01*
X248737Y34831D01*
X248811Y34647D01*
X248879Y34462D01*
X248944Y34275D01*
X249003Y34087D01*
X249058Y33897D01*
X249109Y33706D01*
X249154Y33514D01*
X249195Y33320D01*
X249231Y33126D01*
X249263Y32931D01*
X249289Y32735D01*
X249311Y32539D01*
X249328Y32342D01*
X249340Y32145D01*
X249348Y31948D01*
X249350Y31750D01*
X249348Y31552D01*
X249340Y31355D01*
X249328Y31158D01*
X249311Y30961D01*
X249289Y30765D01*
X249263Y30569D01*
X249231Y30374D01*
X249195Y30180D01*
X249154Y29986D01*
X249109Y29794D01*
X249058Y29603D01*
X249003Y29413D01*
X248944Y29225D01*
X248879Y29038D01*
X248811Y28853D01*
X248737Y28669D01*
X248659Y28488D01*
X248577Y28308D01*
X248490Y28131D01*
X248399Y27955D01*
X248304Y27782D01*
X248205Y27611D01*
X248101Y27443D01*
X247993Y27278D01*
X247882Y27115D01*
X247766Y26955D01*
X247646Y26797D01*
X247523Y26643D01*
X247396Y26492D01*
X247265Y26344D01*
X247130Y26199D01*
X246992Y26058D01*
X246851Y25920D01*
X246706Y25785D01*
X246558Y25654D01*
X246407Y25527D01*
X246253Y25404D01*
X246095Y25284D01*
X245935Y25168D01*
X245772Y25057D01*
X245607Y24949D01*
X245439Y24845D01*
X245268Y24746D01*
X245095Y24651D01*
X244919Y24560D01*
X244742Y24473D01*
X244562Y24391D01*
X244381Y24313D01*
X244197Y24239D01*
X244012Y24171D01*
X243825Y24106D01*
X243637Y24047D01*
X243447Y23992D01*
X243256Y23941D01*
X243064Y23896D01*
X242870Y23855D01*
X242676Y23819D01*
X242481Y23787D01*
X242285Y23761D01*
X242089Y23739D01*
X241892Y23722D01*
X241695Y23710D01*
X241498Y23702D01*
X241300Y23700D01*
X241102Y23702D01*
X240905Y23710D01*
X240708Y23722D01*
X240511Y23739D01*
X240315Y23761D01*
X240119Y23787D01*
X239924Y23819D01*
X239730Y23855D01*
X239536Y23896D01*
X239344Y23941D01*
X239153Y23992D01*
X238963Y24047D01*
X238775Y24106D01*
X238588Y24171D01*
X238403Y24239D01*
X238219Y24313D01*
X238038Y24391D01*
X237858Y24473D01*
X237681Y24560D01*
X237505Y24651D01*
X237332Y24746D01*
X237161Y24845D01*
X236993Y24949D01*
X236828Y25057D01*
X236665Y25168D01*
X236505Y25284D01*
X236347Y25404D01*
X236193Y25527D01*
X236042Y25654D01*
X235894Y25785D01*
X235749Y25920D01*
X235608Y26058D01*
X235470Y26199D01*
X235335Y26344D01*
X235204Y26492D01*
X235077Y26643D01*
X234954Y26797D01*
X234834Y26955D01*
X234718Y27115D01*
X234607Y27278D01*
X234499Y27443D01*
X234395Y27611D01*
X234296Y27782D01*
X234201Y27955D01*
X234110Y28131D01*
X234023Y28308D01*
X233941Y28488D01*
X233863Y28669D01*
X233789Y28853D01*
X233721Y29038D01*
X233656Y29225D01*
X233597Y29413D01*
X233542Y29603D01*
X233491Y29794D01*
X233446Y29986D01*
X233405Y30180D01*
X233369Y30374D01*
X233337Y30569D01*
X233311Y30765D01*
X233289Y30961D01*
X233272Y31158D01*
X233260Y31355D01*
X233252Y31552D01*
X233250Y31750D01*
D16*
X227920Y45750D02*
X254680Y45750D01*
X254680Y17750D02*
X227920Y17750D01*
X262300Y30450D02*
X262300Y33050D01*
X220300Y33050D02*
X220300Y30450D01*
D19*
X268599Y23524D02*
X269743Y24668D01*
X268599Y23524D02*
X268599Y21237D01*
X269743Y20093D01*
X270887Y20093D01*
X272031Y21237D01*
X272031Y23524D01*
X273175Y24668D01*
X274319Y24668D01*
X275463Y23524D01*
X275463Y21237D01*
X274319Y20093D01*
X275463Y27577D02*
X268599Y27577D01*
X273175Y29865D02*
X275463Y27577D01*
X273175Y29865D02*
X275463Y32153D01*
X268599Y32153D01*
X270887Y35061D02*
X268599Y37349D01*
X275463Y37349D01*
X275463Y35061D02*
X275463Y39637D01*
X290722Y56466D02*
X298722Y56466D01*
X357868Y56466D02*
X365868Y56466D01*
X290795Y12700D02*
X290795Y0D01*
X365795Y0D01*
X365795Y12700D01*
D12*
X319018Y62749D02*
X317917Y63850D01*
X315714Y63850D01*
X314612Y62749D01*
X314612Y58342D01*
X315714Y57241D01*
X317917Y57241D01*
X319018Y58342D01*
X323198Y63850D02*
X325401Y63850D01*
X323198Y63850D02*
X322096Y62749D01*
X322096Y58342D01*
X323198Y57241D01*
X325401Y57241D01*
X326503Y58342D01*
X326503Y62749D01*
X325401Y63850D01*
X329580Y63850D02*
X329580Y57241D01*
X333987Y57241D02*
X329580Y63850D01*
X333987Y63850D02*
X333987Y57241D01*
X337064Y61647D02*
X339268Y63850D01*
X339268Y57241D01*
X341471Y57241D02*
X337064Y57241D01*
X122319Y284099D02*
X122319Y290709D01*
X125624Y290709D01*
X126725Y289607D01*
X126725Y287404D01*
X125624Y286302D01*
X122319Y286302D01*
X124522Y286302D02*
X126725Y284099D01*
X129803Y289607D02*
X130904Y290709D01*
X133108Y290709D01*
X134209Y289607D01*
X134209Y288505D01*
X133108Y287404D01*
X134209Y286302D01*
X134209Y285201D01*
X133108Y284099D01*
X130904Y284099D01*
X129803Y285201D01*
X129803Y286302D01*
X130904Y287404D01*
X129803Y288505D01*
X129803Y289607D01*
X130904Y287404D02*
X133108Y287404D01*
X162052Y290264D02*
X162052Y283655D01*
X162052Y290264D02*
X165357Y290264D01*
X166458Y289163D01*
X166458Y286959D01*
X165357Y285858D01*
X162052Y285858D01*
X164255Y285858D02*
X166458Y283655D01*
X169536Y290264D02*
X173943Y290264D01*
X169536Y290264D02*
X169536Y286959D01*
X171739Y288061D01*
X172841Y288061D01*
X173943Y286959D01*
X173943Y284756D01*
X172841Y283655D01*
X170638Y283655D01*
X169536Y284756D01*
X487045Y536258D02*
X530225Y536258D01*
X487045Y515938D02*
X486945Y515940D01*
X486846Y515946D01*
X486746Y515956D01*
X486648Y515969D01*
X486549Y515987D01*
X486452Y516008D01*
X486356Y516033D01*
X486260Y516062D01*
X486166Y516095D01*
X486073Y516131D01*
X485982Y516171D01*
X485892Y516215D01*
X485804Y516262D01*
X485718Y516312D01*
X485634Y516366D01*
X485552Y516423D01*
X485473Y516483D01*
X485395Y516547D01*
X485321Y516613D01*
X485249Y516682D01*
X485180Y516754D01*
X485114Y516828D01*
X485050Y516906D01*
X484990Y516985D01*
X484933Y517067D01*
X484879Y517151D01*
X484829Y517237D01*
X484782Y517325D01*
X484738Y517415D01*
X484698Y517506D01*
X484662Y517599D01*
X484629Y517693D01*
X484600Y517789D01*
X484575Y517885D01*
X484554Y517982D01*
X484536Y518081D01*
X484523Y518179D01*
X484513Y518279D01*
X484507Y518378D01*
X484505Y518478D01*
X530225Y515938D02*
X530325Y515940D01*
X530424Y515946D01*
X530524Y515956D01*
X530622Y515969D01*
X530721Y515987D01*
X530818Y516008D01*
X530914Y516033D01*
X531010Y516062D01*
X531104Y516095D01*
X531197Y516131D01*
X531288Y516171D01*
X531378Y516215D01*
X531466Y516262D01*
X531552Y516312D01*
X531636Y516366D01*
X531718Y516423D01*
X531797Y516483D01*
X531875Y516547D01*
X531949Y516613D01*
X532021Y516682D01*
X532090Y516754D01*
X532156Y516828D01*
X532220Y516906D01*
X532280Y516985D01*
X532337Y517067D01*
X532391Y517151D01*
X532441Y517237D01*
X532488Y517325D01*
X532532Y517415D01*
X532572Y517506D01*
X532608Y517599D01*
X532641Y517693D01*
X532670Y517789D01*
X532695Y517885D01*
X532716Y517982D01*
X532734Y518081D01*
X532747Y518179D01*
X532757Y518279D01*
X532763Y518378D01*
X532765Y518478D01*
X532765Y533718D02*
X532763Y533818D01*
X532757Y533917D01*
X532747Y534017D01*
X532734Y534115D01*
X532716Y534214D01*
X532695Y534311D01*
X532670Y534407D01*
X532641Y534503D01*
X532608Y534597D01*
X532572Y534690D01*
X532532Y534781D01*
X532488Y534871D01*
X532441Y534959D01*
X532391Y535045D01*
X532337Y535129D01*
X532280Y535211D01*
X532220Y535290D01*
X532156Y535368D01*
X532090Y535442D01*
X532021Y535514D01*
X531949Y535583D01*
X531875Y535649D01*
X531797Y535713D01*
X531718Y535773D01*
X531636Y535830D01*
X531552Y535884D01*
X531466Y535934D01*
X531378Y535981D01*
X531288Y536025D01*
X531197Y536065D01*
X531104Y536101D01*
X531010Y536134D01*
X530914Y536163D01*
X530818Y536188D01*
X530721Y536209D01*
X530622Y536227D01*
X530524Y536240D01*
X530424Y536250D01*
X530325Y536256D01*
X530225Y536258D01*
X487045Y536258D02*
X486945Y536256D01*
X486846Y536250D01*
X486746Y536240D01*
X486648Y536227D01*
X486549Y536209D01*
X486452Y536188D01*
X486356Y536163D01*
X486260Y536134D01*
X486166Y536101D01*
X486073Y536065D01*
X485982Y536025D01*
X485892Y535981D01*
X485804Y535934D01*
X485718Y535884D01*
X485634Y535830D01*
X485552Y535773D01*
X485473Y535713D01*
X485395Y535649D01*
X485321Y535583D01*
X485249Y535514D01*
X485180Y535442D01*
X485114Y535368D01*
X485050Y535290D01*
X484990Y535211D01*
X484933Y535129D01*
X484879Y535045D01*
X484829Y534959D01*
X484782Y534871D01*
X484738Y534781D01*
X484698Y534690D01*
X484662Y534597D01*
X484629Y534503D01*
X484600Y534407D01*
X484575Y534311D01*
X484554Y534214D01*
X484536Y534115D01*
X484523Y534017D01*
X484513Y533917D01*
X484507Y533818D01*
X484505Y533718D01*
X484505Y518478D01*
X532765Y518478D02*
X532765Y533718D01*
X530225Y515938D02*
X487045Y515938D01*
X290767Y209360D02*
X281623Y209360D01*
X293561Y195136D02*
X300165Y195136D01*
X312103Y199708D02*
X312103Y209360D01*
X302959Y209360D01*
X281623Y209360D02*
X281623Y199708D01*
D19*
X278638Y214186D02*
X278638Y219906D01*
X278638Y214186D02*
X279782Y213043D01*
X282070Y213043D01*
X283214Y214186D01*
X283214Y219906D01*
X286122Y217618D02*
X288410Y219906D01*
X288410Y213043D01*
X286122Y213043D02*
X290698Y213043D01*
D16*
X427945Y605138D02*
X441945Y605138D01*
X427945Y605138D02*
X427945Y579138D01*
X469945Y579138D02*
X469945Y605138D01*
X455945Y605138D01*
X441945Y579138D02*
X427945Y579138D01*
X455945Y579138D02*
X469945Y579138D01*
X441945Y606138D02*
X428945Y606138D01*
X455945Y606138D02*
X468945Y606138D01*
X441945Y607138D02*
X427945Y607138D01*
X455945Y607138D02*
X469945Y607138D01*
X427945Y607138D02*
X427945Y605138D01*
X441945Y605138D02*
X441945Y607138D01*
X455945Y607138D02*
X455945Y605138D01*
X469945Y605138D02*
X469945Y607138D01*
D12*
X416957Y586193D02*
X415856Y585092D01*
X415856Y582889D01*
X416957Y581787D01*
X421364Y581787D01*
X422466Y582889D01*
X422466Y585092D01*
X421364Y586193D01*
X415856Y590373D02*
X415856Y592576D01*
X415856Y590373D02*
X416957Y589271D01*
X421364Y589271D01*
X422466Y590373D01*
X422466Y592576D01*
X421364Y593678D01*
X416957Y593678D01*
X415856Y592576D01*
X415856Y596755D02*
X422466Y596755D01*
X422466Y601162D02*
X415856Y596755D01*
X415856Y601162D02*
X422466Y601162D01*
X422466Y607544D02*
X415856Y607544D01*
X419161Y604239D01*
X419161Y608646D01*
D23*
X45615Y574820D02*
X43115Y574820D01*
X43115Y477820D01*
X45615Y477820D01*
X144115Y477820D02*
X144115Y574820D01*
X144115Y477820D02*
X142615Y477820D01*
X142615Y574820D02*
X144115Y574820D01*
D19*
X64188Y499943D02*
X64188Y496511D01*
X65331Y495368D01*
X68763Y495368D01*
X68763Y499943D01*
X71672Y498799D02*
X76248Y498799D01*
X79156Y495368D02*
X79156Y502231D01*
X79156Y495368D02*
X82588Y495368D01*
X83732Y496511D01*
X83732Y498799D01*
X82588Y499943D01*
X79156Y499943D01*
X86640Y502231D02*
X87784Y502231D01*
X87784Y495368D01*
X86640Y495368D02*
X88928Y495368D01*
X92773Y495368D02*
X95061Y495368D01*
X96205Y496511D01*
X96205Y498799D01*
X95061Y499943D01*
X92773Y499943D01*
X91629Y498799D01*
X91629Y496511D01*
X92773Y495368D01*
X99114Y499943D02*
X103689Y495368D01*
X99114Y495368D02*
X103689Y499943D01*
X114082Y502231D02*
X114082Y495368D01*
X116370Y499943D02*
X114082Y502231D01*
X116370Y499943D02*
X118658Y502231D01*
X118658Y495368D01*
X121566Y495368D02*
X121566Y499943D01*
X123854Y502231D01*
X126142Y499943D01*
X126142Y495368D01*
X126142Y498799D02*
X121566Y498799D01*
X129050Y502231D02*
X133626Y495368D01*
X129050Y495368D02*
X133626Y502231D01*
D24*
X55115Y499820D03*
D15*
X80010Y594678D02*
X80010Y604838D01*
D12*
X49975Y602684D02*
X49975Y596075D01*
X49975Y602684D02*
X53279Y602684D01*
X54381Y601583D01*
X54381Y599379D01*
X53279Y598278D01*
X49975Y598278D01*
X52178Y598278D02*
X54381Y596075D01*
X57459Y597176D02*
X58560Y596075D01*
X60763Y596075D01*
X61865Y597176D01*
X61865Y601583D01*
X60763Y602684D01*
X58560Y602684D01*
X57459Y601583D01*
X57459Y600481D01*
X58560Y599379D01*
X61865Y599379D01*
D15*
X117793Y594678D02*
X117793Y604838D01*
D12*
X137605Y603637D02*
X137605Y597027D01*
X142011Y597027D01*
X145089Y601433D02*
X147292Y603637D01*
X147292Y597027D01*
X145089Y597027D02*
X149495Y597027D01*
D15*
X29528Y594360D02*
X29528Y604520D01*
D12*
X21302Y587571D02*
X22403Y586470D01*
X21302Y587571D02*
X19099Y587571D01*
X17997Y586470D01*
X17997Y582063D01*
X19099Y580962D01*
X21302Y580962D01*
X22403Y582063D01*
X25481Y585368D02*
X27684Y587571D01*
X27684Y580962D01*
X25481Y580962D02*
X29888Y580962D01*
X32965Y586470D02*
X34067Y587571D01*
X36270Y587571D01*
X37372Y586470D01*
X37372Y585368D01*
X36270Y584266D01*
X37372Y583165D01*
X37372Y582063D01*
X36270Y580962D01*
X34067Y580962D01*
X32965Y582063D01*
X32965Y583165D01*
X34067Y584266D01*
X32965Y585368D01*
X32965Y586470D01*
X34067Y584266D02*
X36270Y584266D01*
D16*
X80500Y675900D02*
X107000Y675900D01*
X107000Y697400D01*
X99500Y704900D01*
X99500Y742900D01*
X108000Y742900D01*
X108000Y754650D01*
X146000Y754650D01*
X146000Y742900D01*
X154500Y742900D01*
X154500Y704900D01*
X147000Y697400D01*
X147000Y675900D01*
X173500Y675900D01*
X165500Y661400D02*
X88500Y661400D01*
X173500Y661400D02*
X173500Y675900D01*
X80500Y675900D02*
X80500Y661400D01*
D25*
X22509Y639054D02*
X20009Y641553D01*
X15009Y641553D01*
X12510Y639054D01*
X12510Y629054D01*
X15009Y626555D01*
X20009Y626555D01*
X22509Y629054D01*
X22509Y634054D01*
X17509Y634054D01*
X28881Y626555D02*
X28881Y641553D01*
X38880Y626555D01*
X38880Y641553D01*
X52752Y641553D02*
X55252Y639054D01*
X52752Y641553D02*
X47752Y641553D01*
X45253Y639054D01*
X45253Y636554D01*
X47752Y634054D01*
X52752Y634054D01*
X55252Y631554D01*
X55252Y629054D01*
X52752Y626555D01*
X47752Y626555D01*
X45253Y629054D01*
X69124Y641553D02*
X71623Y639054D01*
X69124Y641553D02*
X64124Y641553D01*
X61624Y639054D01*
X61624Y636554D01*
X64124Y634054D01*
X69124Y634054D01*
X71623Y631554D01*
X71623Y629054D01*
X69124Y626555D01*
X64124Y626555D01*
X61624Y629054D01*
D16*
X225616Y114427D02*
X225616Y111887D01*
X225616Y114427D02*
X226124Y114427D01*
X226124Y114376D01*
X275628Y114376D01*
X275628Y112065D01*
X225412Y65075D02*
X225412Y62357D01*
X225920Y62357D01*
X225920Y62332D01*
X275603Y62332D01*
X275603Y64592D01*
X225108Y79375D02*
X225108Y96393D01*
X275908Y96901D02*
X275908Y88265D01*
X275908Y79629D01*
X275908Y88265D02*
X250508Y62865D01*
D12*
X210441Y72512D02*
X201797Y72512D01*
X210441Y72512D02*
X210441Y78274D01*
X201797Y81867D02*
X201797Y87629D01*
X201797Y81867D02*
X210441Y81867D01*
X210441Y87629D01*
X206119Y84748D02*
X206119Y81867D01*
X201797Y91222D02*
X210441Y91222D01*
X210441Y95544D01*
X209000Y96985D01*
X203238Y96985D01*
X201797Y95544D01*
X201797Y91222D01*
X204678Y100578D02*
X201797Y103459D01*
X210441Y103459D01*
X210441Y100578D02*
X210441Y106340D01*
D16*
X402064Y675900D02*
X428564Y675900D01*
X428564Y697400D01*
X421064Y704900D01*
X421064Y742900D01*
X429564Y742900D01*
X429564Y754650D01*
X467564Y754650D01*
X467564Y742900D01*
X476064Y742900D01*
X476064Y704900D01*
X468564Y697400D01*
X468564Y675900D01*
X495064Y675900D01*
X487064Y661400D02*
X410064Y661400D01*
X495064Y661400D02*
X495064Y675900D01*
X402064Y675900D02*
X402064Y661400D01*
D10*
X407988Y560007D02*
X412733Y560007D01*
X410360Y560007D02*
X410360Y574243D01*
X407988Y574243D02*
X412733Y574243D01*
X418278Y574243D02*
X418278Y560007D01*
X418278Y574243D02*
X425396Y574243D01*
X427769Y571870D01*
X427769Y567125D01*
X425396Y564752D01*
X418278Y564752D01*
X423024Y564752D02*
X427769Y560007D01*
X433714Y560007D02*
X438460Y560007D01*
X436087Y560007D02*
X436087Y574243D01*
X433714Y574243D02*
X438460Y574243D01*
X444005Y574243D02*
X444005Y560007D01*
X451123Y560007D01*
X453496Y562379D01*
X453496Y571870D01*
X451123Y574243D01*
X444005Y574243D01*
X459441Y560007D02*
X464186Y560007D01*
X461814Y560007D02*
X461814Y574243D01*
X464186Y574243D02*
X459441Y574243D01*
X469732Y574243D02*
X469732Y562379D01*
X472104Y560007D01*
X476850Y560007D01*
X479222Y562379D01*
X479222Y574243D01*
X485168Y574243D02*
X485168Y560007D01*
X489913Y569497D02*
X485168Y574243D01*
X489913Y569497D02*
X494659Y574243D01*
X494659Y560007D01*
D15*
X231458Y131763D02*
X231458Y121603D01*
D12*
X225921Y142922D02*
X224819Y144024D01*
X222616Y144024D01*
X221515Y142922D01*
X221515Y138516D01*
X222616Y137414D01*
X224819Y137414D01*
X225921Y138516D01*
X228999Y141820D02*
X231202Y144024D01*
X231202Y137414D01*
X228999Y137414D02*
X233405Y137414D01*
X236483Y138516D02*
X237584Y137414D01*
X239788Y137414D01*
X240889Y138516D01*
X240889Y142922D01*
X239788Y144024D01*
X237584Y144024D01*
X236483Y142922D01*
X236483Y141820D01*
X237584Y140719D01*
X240889Y140719D01*
D16*
X369648Y112473D02*
X369648Y82473D01*
X339648Y82473D02*
X339648Y112473D01*
D26*
X343148Y85973D03*
D12*
X373722Y90815D02*
X380925Y90815D01*
X382366Y92255D01*
X382366Y95136D01*
X380925Y96577D01*
X373722Y96577D01*
X373722Y100170D02*
X373722Y105932D01*
X375163Y105932D01*
X380925Y100170D01*
X382366Y100170D01*
X355092Y146495D02*
X355092Y153104D01*
X358397Y153104D01*
X359498Y152003D01*
X359498Y149799D01*
X358397Y148698D01*
X355092Y148698D01*
X357295Y148698D02*
X359498Y146495D01*
X362576Y153104D02*
X366983Y153104D01*
X366983Y152003D01*
X362576Y147596D01*
X362576Y146495D01*
X558800Y180658D02*
X558800Y193358D01*
X558800Y180658D02*
X552450Y174308D01*
X539750Y174308D01*
X533400Y180658D01*
X539750Y199708D02*
X552450Y199708D01*
X558800Y193358D01*
X539750Y199708D02*
X533400Y193358D01*
X533400Y180658D01*
X541902Y207204D02*
X543342Y208645D01*
X541902Y207204D02*
X541902Y204323D01*
X543342Y202883D01*
X549104Y202883D01*
X550545Y204323D01*
X550545Y207204D01*
X549104Y208645D01*
X546223Y208645D01*
X546223Y205764D01*
X541902Y212238D02*
X550545Y212238D01*
X550545Y218000D02*
X541902Y212238D01*
X541902Y218000D02*
X550545Y218000D01*
X550545Y221593D02*
X541902Y221593D01*
X550545Y221593D02*
X550545Y225915D01*
X549104Y227355D01*
X543342Y227355D01*
X541902Y225915D01*
X541902Y221593D01*
X482600Y167958D02*
X482600Y155258D01*
X482600Y167958D02*
X488950Y174308D01*
X501650Y174308D01*
X508000Y167958D01*
X501650Y148908D02*
X488950Y148908D01*
X482600Y155258D01*
X501650Y148908D02*
X508000Y155258D01*
X508000Y167958D01*
X496292Y109518D02*
X490530Y109518D01*
X496292Y109518D02*
X499174Y112399D01*
X496292Y115280D01*
X490530Y115280D01*
X490530Y118873D02*
X499174Y118873D01*
X490530Y118873D02*
X490530Y123195D01*
X491971Y124636D01*
X493411Y124636D01*
X494852Y123195D01*
X496292Y124636D01*
X497733Y124636D01*
X499174Y123195D01*
X499174Y118873D01*
X494852Y118873D02*
X494852Y123195D01*
X497733Y128229D02*
X490530Y128229D01*
X497733Y128229D02*
X499174Y129669D01*
X499174Y132550D01*
X497733Y133991D01*
X490530Y133991D01*
X490530Y141905D02*
X491971Y143346D01*
X490530Y141905D02*
X490530Y139024D01*
X491971Y137584D01*
X493411Y137584D01*
X494852Y139024D01*
X494852Y141905D01*
X496292Y143346D01*
X497733Y143346D01*
X499174Y141905D01*
X499174Y139024D01*
X497733Y137584D01*
D27*
X295910Y87813D03*
D12*
X240700Y58616D02*
X240700Y52007D01*
X245107Y52007D01*
X248185Y58616D02*
X252591Y58616D01*
X248185Y58616D02*
X248185Y52007D01*
X252591Y52007D01*
X250388Y55311D02*
X248185Y55311D01*
X255669Y52007D02*
X255669Y58616D01*
X255669Y52007D02*
X258974Y52007D01*
X260075Y53108D01*
X260075Y57515D01*
X258974Y58616D01*
X255669Y58616D01*
X263153Y52007D02*
X267559Y52007D01*
X263153Y52007D02*
X267559Y56413D01*
X267559Y57515D01*
X266458Y58616D01*
X264254Y58616D01*
X263153Y57515D01*
X279204Y115470D02*
X285814Y115470D01*
X279204Y115470D02*
X279204Y118774D01*
X280305Y119876D01*
X282509Y119876D01*
X283610Y118774D01*
X283610Y115470D01*
X283610Y117673D02*
X285814Y119876D01*
X281407Y122954D02*
X279204Y125157D01*
X285814Y125157D01*
X285814Y122954D02*
X285814Y127360D01*
X284712Y130438D02*
X280305Y130438D01*
X279204Y131539D01*
X279204Y133743D01*
X280305Y134844D01*
X284712Y134844D01*
X285814Y133743D01*
X285814Y131539D01*
X284712Y130438D01*
X280305Y134844D01*
D16*
X321960Y100805D02*
X321960Y83345D01*
X307960Y83345D02*
X307960Y100805D01*
X314960Y95075D02*
X318960Y89075D01*
X310960Y89075D01*
X314960Y95075D01*
D28*
X314960Y96075D03*
D12*
X325368Y86487D02*
X331978Y86487D01*
X331978Y89792D01*
X330876Y90893D01*
X326470Y90893D01*
X325368Y89792D01*
X325368Y86487D01*
X325368Y97276D02*
X331978Y97276D01*
X328673Y93971D02*
X325368Y97276D01*
X328673Y98378D02*
X328673Y93971D01*
X487045Y502603D02*
X530225Y502603D01*
X487045Y482283D02*
X486945Y482285D01*
X486846Y482291D01*
X486746Y482301D01*
X486648Y482314D01*
X486549Y482332D01*
X486452Y482353D01*
X486356Y482378D01*
X486260Y482407D01*
X486166Y482440D01*
X486073Y482476D01*
X485982Y482516D01*
X485892Y482560D01*
X485804Y482607D01*
X485718Y482657D01*
X485634Y482711D01*
X485552Y482768D01*
X485473Y482828D01*
X485395Y482892D01*
X485321Y482958D01*
X485249Y483027D01*
X485180Y483099D01*
X485114Y483173D01*
X485050Y483251D01*
X484990Y483330D01*
X484933Y483412D01*
X484879Y483496D01*
X484829Y483582D01*
X484782Y483670D01*
X484738Y483760D01*
X484698Y483851D01*
X484662Y483944D01*
X484629Y484038D01*
X484600Y484134D01*
X484575Y484230D01*
X484554Y484327D01*
X484536Y484426D01*
X484523Y484524D01*
X484513Y484624D01*
X484507Y484723D01*
X484505Y484823D01*
X530225Y482283D02*
X530325Y482285D01*
X530424Y482291D01*
X530524Y482301D01*
X530622Y482314D01*
X530721Y482332D01*
X530818Y482353D01*
X530914Y482378D01*
X531010Y482407D01*
X531104Y482440D01*
X531197Y482476D01*
X531288Y482516D01*
X531378Y482560D01*
X531466Y482607D01*
X531552Y482657D01*
X531636Y482711D01*
X531718Y482768D01*
X531797Y482828D01*
X531875Y482892D01*
X531949Y482958D01*
X532021Y483027D01*
X532090Y483099D01*
X532156Y483173D01*
X532220Y483251D01*
X532280Y483330D01*
X532337Y483412D01*
X532391Y483496D01*
X532441Y483582D01*
X532488Y483670D01*
X532532Y483760D01*
X532572Y483851D01*
X532608Y483944D01*
X532641Y484038D01*
X532670Y484134D01*
X532695Y484230D01*
X532716Y484327D01*
X532734Y484426D01*
X532747Y484524D01*
X532757Y484624D01*
X532763Y484723D01*
X532765Y484823D01*
X532765Y500063D02*
X532763Y500163D01*
X532757Y500262D01*
X532747Y500362D01*
X532734Y500460D01*
X532716Y500559D01*
X532695Y500656D01*
X532670Y500752D01*
X532641Y500848D01*
X532608Y500942D01*
X532572Y501035D01*
X532532Y501126D01*
X532488Y501216D01*
X532441Y501304D01*
X532391Y501390D01*
X532337Y501474D01*
X532280Y501556D01*
X532220Y501635D01*
X532156Y501713D01*
X532090Y501787D01*
X532021Y501859D01*
X531949Y501928D01*
X531875Y501994D01*
X531797Y502058D01*
X531718Y502118D01*
X531636Y502175D01*
X531552Y502229D01*
X531466Y502279D01*
X531378Y502326D01*
X531288Y502370D01*
X531197Y502410D01*
X531104Y502446D01*
X531010Y502479D01*
X530914Y502508D01*
X530818Y502533D01*
X530721Y502554D01*
X530622Y502572D01*
X530524Y502585D01*
X530424Y502595D01*
X530325Y502601D01*
X530225Y502603D01*
X487045Y502603D02*
X486945Y502601D01*
X486846Y502595D01*
X486746Y502585D01*
X486648Y502572D01*
X486549Y502554D01*
X486452Y502533D01*
X486356Y502508D01*
X486260Y502479D01*
X486166Y502446D01*
X486073Y502410D01*
X485982Y502370D01*
X485892Y502326D01*
X485804Y502279D01*
X485718Y502229D01*
X485634Y502175D01*
X485552Y502118D01*
X485473Y502058D01*
X485395Y501994D01*
X485321Y501928D01*
X485249Y501859D01*
X485180Y501787D01*
X485114Y501713D01*
X485050Y501635D01*
X484990Y501556D01*
X484933Y501474D01*
X484879Y501390D01*
X484829Y501304D01*
X484782Y501216D01*
X484738Y501126D01*
X484698Y501035D01*
X484662Y500942D01*
X484629Y500848D01*
X484600Y500752D01*
X484575Y500656D01*
X484554Y500559D01*
X484536Y500460D01*
X484523Y500362D01*
X484513Y500262D01*
X484507Y500163D01*
X484505Y500063D01*
X484505Y484823D01*
X532765Y484823D02*
X532765Y500063D01*
X530225Y482283D02*
X487045Y482283D01*
D15*
X534035Y473710D02*
X534035Y463550D01*
D12*
X542825Y457079D02*
X542825Y450469D01*
X542825Y457079D02*
X546129Y457079D01*
X547231Y455977D01*
X547231Y453774D01*
X546129Y452672D01*
X542825Y452672D01*
X545028Y452672D02*
X547231Y450469D01*
X550309Y454875D02*
X552512Y457079D01*
X552512Y450469D01*
X550309Y450469D02*
X554715Y450469D01*
X557793Y454875D02*
X559996Y457079D01*
X559996Y450469D01*
X557793Y450469D02*
X562199Y450469D01*
D15*
X168593Y325438D02*
X168593Y315278D01*
D12*
X192027Y323284D02*
X193128Y322183D01*
X192027Y323284D02*
X189824Y323284D01*
X188722Y322183D01*
X188722Y317776D01*
X189824Y316675D01*
X192027Y316675D01*
X193128Y317776D01*
X196206Y321081D02*
X198409Y323284D01*
X198409Y316675D01*
X196206Y316675D02*
X200613Y316675D01*
X203690Y322183D02*
X204792Y323284D01*
X206995Y323284D01*
X208097Y322183D01*
X208097Y321081D01*
X206995Y319979D01*
X205894Y319979D01*
X206995Y319979D02*
X208097Y318878D01*
X208097Y317776D01*
X206995Y316675D01*
X204792Y316675D01*
X203690Y317776D01*
D15*
X369570Y240983D02*
X369570Y230823D01*
D12*
X361079Y225304D02*
X361079Y218694D01*
X361079Y225304D02*
X364384Y225304D01*
X365485Y224202D01*
X365485Y221999D01*
X364384Y220897D01*
X361079Y220897D01*
X363282Y220897D02*
X365485Y218694D01*
X368563Y224202D02*
X369664Y225304D01*
X371868Y225304D01*
X372969Y224202D01*
X372969Y223100D01*
X371868Y221999D01*
X370766Y221999D01*
X371868Y221999D02*
X372969Y220897D01*
X372969Y219796D01*
X371868Y218694D01*
X369664Y218694D01*
X368563Y219796D01*
D15*
X409575Y230823D02*
X409575Y240983D01*
D12*
X402036Y224669D02*
X402036Y218059D01*
X402036Y224669D02*
X405341Y224669D01*
X406443Y223567D01*
X406443Y221364D01*
X405341Y220262D01*
X402036Y220262D01*
X404239Y220262D02*
X406443Y218059D01*
X411724Y223567D02*
X413927Y224669D01*
X411724Y223567D02*
X409520Y221364D01*
X409520Y219161D01*
X410622Y218059D01*
X412825Y218059D01*
X413927Y219161D01*
X413927Y220262D01*
X412825Y221364D01*
X409520Y221364D01*
D23*
X371498Y627050D02*
X223498Y627050D01*
X371498Y627050D02*
X371498Y554050D01*
X223498Y554050D01*
X223498Y627050D01*
D29*
X231498Y548550D02*
X231498Y548550D01*
X231500Y548612D01*
X231506Y548673D01*
X231515Y548734D01*
X231528Y548794D01*
X231545Y548853D01*
X231566Y548911D01*
X231590Y548968D01*
X231617Y549023D01*
X231648Y549076D01*
X231682Y549128D01*
X231719Y549177D01*
X231759Y549224D01*
X231802Y549268D01*
X231847Y549309D01*
X231895Y549348D01*
X231946Y549384D01*
X231998Y549416D01*
X232052Y549445D01*
X232108Y549471D01*
X232166Y549493D01*
X232224Y549512D01*
X232284Y549527D01*
X232345Y549538D01*
X232406Y549546D01*
X232467Y549550D01*
X232529Y549550D01*
X232590Y549546D01*
X232651Y549538D01*
X232712Y549527D01*
X232772Y549512D01*
X232830Y549493D01*
X232888Y549471D01*
X232944Y549445D01*
X232998Y549416D01*
X233050Y549384D01*
X233101Y549348D01*
X233149Y549309D01*
X233194Y549268D01*
X233237Y549224D01*
X233277Y549177D01*
X233314Y549128D01*
X233348Y549076D01*
X233379Y549023D01*
X233406Y548968D01*
X233430Y548911D01*
X233451Y548853D01*
X233468Y548794D01*
X233481Y548734D01*
X233490Y548673D01*
X233496Y548612D01*
X233498Y548550D01*
X233498Y548550D01*
X233496Y548488D01*
X233490Y548427D01*
X233481Y548366D01*
X233468Y548306D01*
X233451Y548247D01*
X233430Y548189D01*
X233406Y548132D01*
X233379Y548077D01*
X233348Y548024D01*
X233314Y547972D01*
X233277Y547923D01*
X233237Y547876D01*
X233194Y547832D01*
X233149Y547791D01*
X233101Y547752D01*
X233050Y547716D01*
X232998Y547684D01*
X232944Y547655D01*
X232888Y547629D01*
X232830Y547607D01*
X232772Y547588D01*
X232712Y547573D01*
X232651Y547562D01*
X232590Y547554D01*
X232529Y547550D01*
X232467Y547550D01*
X232406Y547554D01*
X232345Y547562D01*
X232284Y547573D01*
X232224Y547588D01*
X232166Y547607D01*
X232108Y547629D01*
X232052Y547655D01*
X231998Y547684D01*
X231946Y547716D01*
X231895Y547752D01*
X231847Y547791D01*
X231802Y547832D01*
X231759Y547876D01*
X231719Y547923D01*
X231682Y547972D01*
X231648Y548024D01*
X231617Y548077D01*
X231590Y548132D01*
X231566Y548189D01*
X231545Y548247D01*
X231528Y548306D01*
X231515Y548366D01*
X231506Y548427D01*
X231500Y548488D01*
X231498Y548550D01*
D16*
X263432Y581966D02*
X263432Y592643D01*
X268770Y592643D01*
X270550Y590864D01*
X270550Y587305D01*
X268770Y585525D01*
X263432Y585525D01*
X266991Y585525D02*
X270550Y581966D01*
X275126Y592643D02*
X282244Y592643D01*
X275126Y592643D02*
X275126Y581966D01*
X282244Y581966D01*
X278685Y587305D02*
X275126Y587305D01*
X286819Y592643D02*
X286819Y581966D01*
X293938Y581966D01*
X298513Y581966D02*
X298513Y589084D01*
X302072Y592643D01*
X305632Y589084D01*
X305632Y581966D01*
X305632Y587305D02*
X298513Y587305D01*
X310207Y590864D02*
X310207Y592643D01*
X310207Y590864D02*
X313766Y587305D01*
X317325Y590864D01*
X317325Y592643D01*
X313766Y587305D02*
X313766Y581966D01*
X321901Y589084D02*
X325460Y592643D01*
X325460Y581966D01*
X321901Y581966D02*
X329019Y581966D01*
X168061Y575247D02*
X168061Y562119D01*
X168061Y575247D02*
X177649Y575247D01*
X201509Y575247D02*
X201509Y562119D01*
X201509Y575247D02*
X191921Y575247D01*
X187009Y562039D02*
X182421Y562039D01*
D12*
X163594Y582698D02*
X163594Y587105D01*
X164695Y588206D01*
X166899Y588206D01*
X168000Y587105D01*
X168000Y582698D01*
X166899Y581597D01*
X164695Y581597D01*
X163594Y582698D01*
X165797Y583800D02*
X168000Y581597D01*
X171078Y581597D02*
X175484Y581597D01*
X171078Y581597D02*
X175484Y586003D01*
X175484Y587105D01*
X174383Y588206D01*
X172179Y588206D01*
X171078Y587105D01*
D15*
X184785Y545148D02*
X184785Y534988D01*
D12*
X174525Y529151D02*
X174525Y522542D01*
X174525Y529151D02*
X177829Y529151D01*
X178931Y528050D01*
X178931Y525846D01*
X177829Y524745D01*
X174525Y524745D01*
X176728Y524745D02*
X178931Y522542D01*
X182009Y526948D02*
X184212Y529151D01*
X184212Y522542D01*
X182009Y522542D02*
X186415Y522542D01*
X189493Y522542D02*
X193899Y522542D01*
X189493Y522542D02*
X193899Y526948D01*
X193899Y528050D01*
X192798Y529151D01*
X190594Y529151D01*
X189493Y528050D01*
D16*
X246206Y548854D02*
X259334Y548854D01*
X259334Y539266D01*
X259334Y515406D02*
X246206Y515406D01*
X259334Y515406D02*
X259334Y524994D01*
X246126Y529906D02*
X246126Y534494D01*
D12*
X264605Y542884D02*
X264605Y547290D01*
X265706Y548392D01*
X267909Y548392D01*
X269011Y547290D01*
X269011Y542884D01*
X267909Y541782D01*
X265706Y541782D01*
X264605Y542884D01*
X266808Y543985D02*
X269011Y541782D01*
X272089Y547290D02*
X273190Y548392D01*
X275393Y548392D01*
X276495Y547290D01*
X276495Y546188D01*
X275393Y545087D01*
X274292Y545087D01*
X275393Y545087D02*
X276495Y543985D01*
X276495Y542884D01*
X275393Y541782D01*
X273190Y541782D01*
X272089Y542884D01*
D15*
X223838Y532130D02*
X213678Y532130D01*
D12*
X209423Y522415D02*
X202813Y522415D01*
X202813Y525719D01*
X203915Y526821D01*
X206118Y526821D01*
X207220Y525719D01*
X207220Y522415D01*
X207220Y524618D02*
X209423Y526821D01*
X205017Y529899D02*
X202813Y532102D01*
X209423Y532102D01*
X209423Y529899D02*
X209423Y534305D01*
X203915Y537383D02*
X202813Y538484D01*
X202813Y540688D01*
X203915Y541789D01*
X205017Y541789D01*
X206118Y540688D01*
X206118Y539586D01*
X206118Y540688D02*
X207220Y541789D01*
X208321Y541789D01*
X209423Y540688D01*
X209423Y538484D01*
X208321Y537383D01*
X222250Y655320D02*
X234950Y655320D01*
X241300Y648970D01*
X241300Y636270D01*
X234950Y629920D01*
X215900Y636270D02*
X215900Y648970D01*
X222250Y655320D01*
X215900Y636270D02*
X222250Y629920D01*
X234950Y629920D01*
X247650Y655320D02*
X260350Y655320D01*
X266700Y648970D01*
X266700Y636270D01*
X260350Y629920D01*
X241300Y636270D02*
X241300Y648970D01*
X247650Y655320D01*
X241300Y636270D02*
X247650Y629920D01*
X260350Y629920D01*
X273050Y655320D02*
X285750Y655320D01*
X292100Y648970D01*
X292100Y636270D01*
X285750Y629920D01*
X266700Y636270D02*
X266700Y648970D01*
X273050Y655320D01*
X266700Y636270D02*
X273050Y629920D01*
X285750Y629920D01*
X349250Y655320D02*
X361950Y655320D01*
X368300Y648970D01*
X368300Y636270D01*
X361950Y629920D01*
X342900Y636270D02*
X342900Y648970D01*
X349250Y655320D01*
X342900Y636270D02*
X349250Y629920D01*
X361950Y629920D01*
X336550Y655320D02*
X323850Y655320D01*
X336550Y655320D02*
X342900Y648970D01*
X342900Y636270D01*
X336550Y629920D01*
X317500Y636270D02*
X317500Y648970D01*
X323850Y655320D01*
X317500Y636270D02*
X323850Y629920D01*
X336550Y629920D01*
X311150Y655320D02*
X298450Y655320D01*
X311150Y655320D02*
X317500Y648970D01*
X317500Y636270D01*
X311150Y629920D01*
X292100Y636270D02*
X292100Y648970D01*
X298450Y655320D01*
X292100Y636270D02*
X298450Y629920D01*
X311150Y629920D01*
D16*
X375270Y606583D02*
X375270Y589123D01*
X389270Y589123D02*
X389270Y606583D01*
X378270Y600853D02*
X382270Y594853D01*
X378270Y600853D02*
X386270Y600853D01*
X382270Y594853D01*
D28*
X382270Y593853D03*
D12*
X392043Y591947D02*
X398653Y591947D01*
X398653Y595252D01*
X397551Y596353D01*
X393145Y596353D01*
X392043Y595252D01*
X392043Y591947D01*
X393145Y599431D02*
X392043Y600533D01*
X392043Y602736D01*
X393145Y603838D01*
X394247Y603838D01*
X395348Y602736D01*
X395348Y601634D01*
X395348Y602736D02*
X396450Y603838D01*
X397551Y603838D01*
X398653Y602736D01*
X398653Y600533D01*
X397551Y599431D01*
D16*
X204773Y606265D02*
X204773Y588805D01*
X218773Y588805D02*
X218773Y606265D01*
X207773Y600535D02*
X211773Y594535D01*
X207773Y600535D02*
X215773Y600535D01*
X211773Y594535D01*
D28*
X211773Y593535D03*
D12*
X200851Y591312D02*
X194241Y591312D01*
X200851Y591312D02*
X200851Y594617D01*
X199749Y595718D01*
X195342Y595718D01*
X194241Y594617D01*
X194241Y591312D01*
X200851Y598796D02*
X200851Y603203D01*
X200851Y598796D02*
X196444Y603203D01*
X195342Y603203D01*
X194241Y602101D01*
X194241Y599898D01*
X195342Y598796D01*
X546100Y647700D02*
X558800Y647700D01*
X565150Y641350D01*
X565150Y628650D01*
X558800Y622300D01*
X539750Y628650D02*
X539750Y641350D01*
X546100Y647700D01*
X539750Y628650D02*
X546100Y622300D01*
X558800Y622300D01*
X533400Y647700D02*
X520700Y647700D01*
X533400Y647700D02*
X539750Y641350D01*
X539750Y628650D01*
X533400Y622300D01*
X514350Y628650D02*
X514350Y641350D01*
X520700Y647700D01*
X514350Y628650D02*
X520700Y622300D01*
X533400Y622300D01*
X546100Y622300D02*
X558800Y622300D01*
X565150Y615950D01*
X565150Y603250D01*
X558800Y596900D01*
X539750Y603250D02*
X539750Y615950D01*
X546100Y622300D01*
X539750Y603250D02*
X546100Y596900D01*
X558800Y596900D01*
X533400Y622300D02*
X520700Y622300D01*
X533400Y622300D02*
X539750Y615950D01*
X539750Y603250D01*
X533400Y596900D01*
X514350Y603250D02*
X514350Y615950D01*
X520700Y622300D01*
X514350Y603250D02*
X520700Y596900D01*
X533400Y596900D01*
D16*
X519733Y577373D02*
X519733Y559913D01*
X533733Y559913D02*
X533733Y577373D01*
X522733Y571643D02*
X526733Y565643D01*
X522733Y571643D02*
X530733Y571643D01*
X526733Y565643D01*
D28*
X526733Y564643D03*
D12*
X515811Y562737D02*
X509201Y562737D01*
X515811Y562737D02*
X515811Y566042D01*
X514709Y567143D01*
X510302Y567143D01*
X509201Y566042D01*
X509201Y562737D01*
X509201Y570221D02*
X509201Y574628D01*
X509201Y570221D02*
X512506Y570221D01*
X511404Y572424D01*
X511404Y573526D01*
X512506Y574628D01*
X514709Y574628D01*
X515811Y573526D01*
X515811Y571323D01*
X514709Y570221D01*
D16*
X545768Y577373D02*
X545768Y559913D01*
X559768Y559913D02*
X559768Y577373D01*
X548768Y571643D02*
X552768Y565643D01*
X548768Y571643D02*
X556768Y571643D01*
X552768Y565643D01*
D28*
X552768Y564643D03*
D12*
X542798Y562737D02*
X536188Y562737D01*
X542798Y562737D02*
X542798Y566042D01*
X541696Y567143D01*
X537290Y567143D01*
X536188Y566042D01*
X536188Y562737D01*
X537290Y572424D02*
X536188Y574628D01*
X537290Y572424D02*
X539493Y570221D01*
X541696Y570221D01*
X542798Y571323D01*
X542798Y573526D01*
X541696Y574628D01*
X540595Y574628D01*
X539493Y573526D01*
X539493Y570221D01*
D16*
X312206Y423482D02*
X312206Y410354D01*
X312206Y423482D02*
X321794Y423482D01*
X345654Y423482D02*
X345654Y410354D01*
X345654Y423482D02*
X336066Y423482D01*
X331154Y410274D02*
X326566Y410274D01*
D12*
X323025Y436839D02*
X323025Y441245D01*
X324126Y442347D01*
X326329Y442347D01*
X327431Y441245D01*
X327431Y436839D01*
X326329Y435737D01*
X324126Y435737D01*
X323025Y436839D01*
X325228Y437940D02*
X327431Y435737D01*
X333813Y435737D02*
X333813Y442347D01*
X330509Y439042D01*
X334915Y439042D01*
D19*
X340632Y179519D02*
X340632Y174943D01*
X340632Y179519D02*
X341776Y180663D01*
X344064Y180663D01*
X345208Y179519D01*
X345208Y174943D01*
X344064Y173800D01*
X341776Y173800D01*
X340632Y174943D01*
X342920Y176087D02*
X345208Y173800D01*
X348116Y180663D02*
X352692Y180663D01*
X348116Y180663D02*
X348116Y177231D01*
X350404Y178375D01*
X351548Y178375D01*
X352692Y177231D01*
X352692Y174943D01*
X351548Y173800D01*
X349260Y173800D01*
X348116Y174943D01*
D12*
X363976Y188177D02*
X370586Y188177D01*
X363976Y188177D02*
X363976Y191482D01*
X365078Y192583D01*
X367281Y192583D01*
X368383Y191482D01*
X368383Y188177D01*
X368383Y190380D02*
X370586Y192583D01*
X366180Y195661D02*
X363976Y197864D01*
X370586Y197864D01*
X370586Y195661D02*
X370586Y200068D01*
X370586Y206450D02*
X363976Y206450D01*
X367281Y203145D01*
X367281Y207552D01*
X318987Y375857D02*
X318987Y382466D01*
X322292Y382466D01*
X323393Y381365D01*
X323393Y379161D01*
X322292Y378060D01*
X318987Y378060D01*
X321190Y378060D02*
X323393Y375857D01*
X326471Y380263D02*
X328674Y382466D01*
X328674Y375857D01*
X326471Y375857D02*
X330878Y375857D01*
X333955Y382466D02*
X338362Y382466D01*
X333955Y382466D02*
X333955Y379161D01*
X336159Y380263D01*
X337260Y380263D01*
X338362Y379161D01*
X338362Y376958D01*
X337260Y375857D01*
X335057Y375857D01*
X333955Y376958D01*
X412560Y415417D02*
X412560Y422027D01*
X415864Y422027D01*
X416966Y420925D01*
X416966Y418722D01*
X415864Y417620D01*
X412560Y417620D01*
X414763Y417620D02*
X416966Y415417D01*
X420044Y419823D02*
X422247Y422027D01*
X422247Y415417D01*
X420044Y415417D02*
X424450Y415417D01*
X429731Y420925D02*
X431934Y422027D01*
X429731Y420925D02*
X427528Y418722D01*
X427528Y416519D01*
X428629Y415417D01*
X430833Y415417D01*
X431934Y416519D01*
X431934Y417620D01*
X430833Y418722D01*
X427528Y418722D01*
X319469Y211990D02*
X312859Y211990D01*
X312859Y215294D01*
X313960Y216396D01*
X316164Y216396D01*
X317265Y215294D01*
X317265Y211990D01*
X317265Y214193D02*
X319469Y216396D01*
X315062Y219474D02*
X312859Y221677D01*
X319469Y221677D01*
X319469Y219474D02*
X319469Y223880D01*
X312859Y226958D02*
X312859Y231364D01*
X313960Y231364D01*
X318367Y226958D01*
X319469Y226958D01*
X508000Y167958D02*
X508000Y155258D01*
X508000Y167958D02*
X514350Y174308D01*
X527050Y174308D01*
X533400Y167958D01*
X527050Y148908D02*
X514350Y148908D01*
X508000Y155258D01*
X527050Y148908D02*
X533400Y155258D01*
X533400Y167958D01*
X525209Y119191D02*
X516565Y119191D01*
X516565Y123513D01*
X518006Y124953D01*
X520887Y124953D01*
X522327Y123513D01*
X522327Y119191D01*
X522327Y122072D02*
X525209Y124953D01*
X516565Y132868D02*
X518006Y134308D01*
X516565Y132868D02*
X516565Y129987D01*
X518006Y128546D01*
X519446Y128546D01*
X520887Y129987D01*
X520887Y132868D01*
X522327Y134308D01*
X523768Y134308D01*
X525209Y132868D01*
X525209Y129987D01*
X523768Y128546D01*
X525209Y140782D02*
X516565Y140782D01*
X516565Y137901D02*
X516565Y143664D01*
X539750Y174308D02*
X552450Y174308D01*
X558800Y167958D01*
X558800Y155258D01*
X552450Y148908D01*
X533400Y155258D02*
X533400Y167958D01*
X539750Y174308D01*
X533400Y155258D02*
X539750Y148908D01*
X552450Y148908D01*
X550609Y109836D02*
X541965Y109836D01*
X541965Y114157D01*
X543406Y115598D01*
X544846Y115598D01*
X546287Y114157D01*
X547727Y115598D01*
X549168Y115598D01*
X550609Y114157D01*
X550609Y109836D01*
X546287Y109836D02*
X546287Y114157D01*
X544846Y119191D02*
X550609Y119191D01*
X544846Y119191D02*
X541965Y122072D01*
X544846Y124953D01*
X550609Y124953D01*
X546287Y124953D02*
X546287Y119191D01*
X550609Y131427D02*
X541965Y131427D01*
X541965Y128546D02*
X541965Y134308D01*
X546287Y137901D02*
X546287Y143664D01*
M02*
