G04 EAGLE Gerber X2 export*
%TF.Part,Single*%
%TF.FileFunction,Paste,Top*%
%TF.FilePolarity,Positive*%
%TF.GenerationSoftware,Autodesk,EAGLE,9.0.0*%
%TF.CreationDate,2018-05-19T07:41:30Z*%
G75*
%MOMM*%
%FSLAX34Y34*%
%LPD*%
%AMOC8*
5,1,8,0,0,1.08239X$1,22.5*%
G01*
%ADD10C,1.000762*%
%ADD11R,1.240000X1.500000*%
%ADD12R,1.000000X1.100000*%
%ADD13R,1.500000X1.240000*%
%ADD14R,1.100000X1.000000*%
%ADD15R,1.200000X0.550000*%
%ADD16R,1.400000X1.400000*%
%ADD17R,0.750000X0.250000*%
%ADD18R,0.250000X0.750000*%
%ADD19R,1.500000X1.000000*%
%ADD20R,1.900000X1.100000*%
%ADD21R,1.200000X1.000000*%
%ADD22R,1.200000X0.500000*%
%ADD23R,0.230000X0.930000*%
%ADD24R,0.200000X0.890000*%
%ADD25R,0.254000X0.711200*%
%ADD26R,2.387600X0.635000*%
%ADD27R,0.900000X1.000000*%
%ADD28R,1.424941X2.499994*%
%ADD29R,0.400000X1.750000*%
%ADD30R,1.968500X1.333500*%
%ADD31R,1.270000X2.794000*%
%ADD32R,1.778000X0.571500*%
%ADD33R,1.168400X1.600200*%
%ADD34R,0.558800X1.270000*%
%ADD35R,1.050000X2.200000*%
%ADD36R,1.000000X0.800000*%
%ADD37R,0.800000X1.800000*%
%ADD38R,0.700000X1.800000*%
%ADD39R,1.778000X4.191000*%
%ADD40R,2.667000X4.191000*%
%ADD41R,1.651000X1.000000*%
%ADD42R,0.400000X1.200000*%
%ADD43R,1.200000X1.200000*%
%ADD44R,1.000000X1.200000*%
%ADD45R,1.000000X1.400000*%


D10*
X50800Y50800D03*
X499364Y609600D03*
D11*
X172110Y273050D03*
X191110Y273050D03*
D12*
X238125Y250118D03*
X238125Y233118D03*
D13*
X215900Y251118D03*
X215900Y232118D03*
D14*
X380120Y315913D03*
X397120Y315913D03*
D15*
X164799Y251118D03*
X164799Y241618D03*
X164799Y232118D03*
X190801Y232118D03*
X190801Y251118D03*
D16*
X228368Y505778D03*
X191368Y505778D03*
D17*
X339550Y275078D03*
X339550Y280078D03*
X339550Y285078D03*
X339550Y290078D03*
X339550Y295078D03*
X339550Y300078D03*
X339550Y305078D03*
X339550Y310078D03*
X339550Y315078D03*
X339550Y320078D03*
X339550Y325078D03*
D18*
X332300Y337328D03*
X327300Y337328D03*
X322300Y337328D03*
X317300Y337328D03*
X312300Y337328D03*
X307300Y337328D03*
X302300Y337328D03*
X297300Y337328D03*
X292300Y337328D03*
X287300Y337328D03*
X282300Y337328D03*
D17*
X270050Y330078D03*
X270050Y325078D03*
X270050Y320078D03*
X270050Y315078D03*
X270050Y310078D03*
X270050Y305078D03*
X270050Y300078D03*
X270050Y295078D03*
X270050Y290078D03*
X270050Y285078D03*
X270050Y280078D03*
D18*
X277300Y267828D03*
X282300Y267828D03*
X287300Y267828D03*
X292300Y267828D03*
X297300Y267828D03*
X302300Y267828D03*
X307300Y267828D03*
X312300Y267828D03*
X317300Y267828D03*
X322300Y267828D03*
X327300Y267828D03*
D19*
X292300Y287578D03*
X292300Y302578D03*
X292300Y317578D03*
X317300Y317578D03*
X317300Y302578D03*
X317300Y287578D03*
D17*
X339550Y330078D03*
D18*
X277300Y337328D03*
D17*
X270050Y275078D03*
D18*
X332300Y267828D03*
D14*
X313300Y239078D03*
X296300Y239078D03*
X401075Y264478D03*
X418075Y264478D03*
X401075Y289243D03*
X418075Y289243D03*
D20*
X376555Y265178D03*
X376555Y289178D03*
D11*
X371450Y378778D03*
X352450Y378778D03*
X142900Y381318D03*
X161900Y381318D03*
X181000Y444818D03*
X200000Y444818D03*
D21*
X145575Y410528D03*
X165575Y420028D03*
X165575Y401028D03*
D13*
X193675Y418758D03*
X193675Y399758D03*
D22*
X132333Y318118D03*
X132333Y330618D03*
X132333Y343118D03*
X132333Y355618D03*
X108333Y318118D03*
X108333Y330618D03*
X108333Y343118D03*
X108333Y355618D03*
D23*
X280712Y444368D03*
X280712Y397668D03*
X276712Y444368D03*
X276712Y397668D03*
X272712Y444368D03*
X272712Y397668D03*
X268712Y444368D03*
X268712Y397668D03*
X264712Y444368D03*
X264712Y397668D03*
X260712Y444368D03*
X260712Y397668D03*
X256712Y444368D03*
X256712Y397668D03*
X252712Y444368D03*
X252712Y397668D03*
X248712Y444368D03*
X248712Y397668D03*
X244712Y444368D03*
X244712Y397668D03*
D24*
X280712Y397468D03*
X276712Y444568D03*
X276712Y397468D03*
X272712Y444568D03*
X272712Y397468D03*
X268712Y444568D03*
X268712Y397468D03*
X264712Y444568D03*
X264712Y397468D03*
X260712Y444568D03*
X260712Y397468D03*
X256712Y444568D03*
X256712Y397468D03*
X252712Y444568D03*
X252712Y397468D03*
X248712Y444568D03*
X248712Y397468D03*
X244712Y444568D03*
X244712Y397468D03*
D13*
X162560Y361608D03*
X162560Y342608D03*
D25*
X380619Y420815D03*
X385445Y420815D03*
X390525Y420815D03*
X395605Y420815D03*
X400431Y420815D03*
X400431Y439611D03*
X395605Y439611D03*
X390525Y439611D03*
X385445Y439611D03*
X380619Y439611D03*
D26*
X390525Y430213D03*
D14*
X367420Y401003D03*
X384420Y401003D03*
D11*
X473735Y468630D03*
X492735Y468630D03*
D14*
X359165Y467043D03*
X376165Y467043D03*
D11*
X411823Y387985D03*
X430823Y387985D03*
X358483Y544513D03*
X377483Y544513D03*
D27*
X220800Y23750D03*
X220800Y39750D03*
X261800Y39750D03*
X261800Y23750D03*
D28*
X337920Y14500D03*
X318670Y14500D03*
D29*
X328295Y45250D03*
X334795Y45250D03*
X321795Y45250D03*
X341295Y45250D03*
X315295Y45250D03*
D30*
X299403Y47308D03*
X357188Y47308D03*
D31*
X300990Y22860D03*
D32*
X298450Y33973D03*
X358140Y33973D03*
D31*
X355600Y22860D03*
D14*
X136135Y298450D03*
X119135Y298450D03*
X161045Y298450D03*
X178045Y298450D03*
D33*
X523875Y526098D03*
X508635Y526098D03*
X493395Y526098D03*
D34*
X287465Y191834D03*
X306261Y191834D03*
X296863Y212662D03*
D35*
X435195Y592138D03*
X462695Y592138D03*
D36*
X448945Y607388D03*
D37*
X127115Y573820D03*
X116115Y573820D03*
X105115Y573820D03*
X94115Y573820D03*
X83115Y573820D03*
X72115Y573820D03*
X61115Y573820D03*
D38*
X50615Y573820D03*
X137615Y573820D03*
D37*
X127115Y478820D03*
X116115Y478820D03*
X105115Y478820D03*
X94115Y478820D03*
X83115Y478820D03*
X72115Y478820D03*
X61115Y478820D03*
D38*
X50615Y478820D03*
X137615Y478820D03*
D11*
X89510Y599758D03*
X70510Y599758D03*
X108293Y599758D03*
X127293Y599758D03*
X39028Y599440D03*
X20028Y599440D03*
D39*
X127000Y639246D03*
D40*
X161946Y639246D03*
X92054Y639246D03*
D41*
X224738Y104265D03*
X276278Y104265D03*
X276278Y72265D03*
X224738Y72265D03*
D39*
X448564Y639246D03*
D40*
X483510Y639246D03*
X413618Y639246D03*
D11*
X240958Y126683D03*
X221958Y126683D03*
D42*
X344898Y76973D03*
X351398Y76973D03*
X357898Y76973D03*
X364398Y76973D03*
X364398Y117973D03*
X357898Y117973D03*
X351398Y117973D03*
X344898Y117973D03*
D14*
X345195Y137160D03*
X362195Y137160D03*
D43*
X295910Y79670D03*
X295910Y100670D03*
D12*
X295593Y132008D03*
X295593Y115008D03*
D16*
X314960Y110575D03*
X314960Y73575D03*
D33*
X523875Y492443D03*
X508635Y492443D03*
X493395Y492443D03*
D11*
X543535Y468630D03*
X524535Y468630D03*
X159093Y320358D03*
X178093Y320358D03*
X379070Y235903D03*
X360070Y235903D03*
X419075Y235903D03*
X400075Y235903D03*
D44*
X184785Y578643D03*
X194285Y558643D03*
X175285Y558643D03*
D11*
X175285Y540068D03*
X194285Y540068D03*
D21*
X262730Y532130D03*
X242730Y522630D03*
X242730Y541630D03*
D13*
X218758Y541630D03*
X218758Y522630D03*
D16*
X382270Y579353D03*
X382270Y616353D03*
X211773Y579035D03*
X211773Y616035D03*
X526733Y550143D03*
X526733Y587143D03*
X552768Y550143D03*
X552768Y587143D03*
D44*
X328930Y426878D03*
X338430Y406878D03*
X319430Y406878D03*
D45*
X330518Y180453D03*
X321018Y202453D03*
X340018Y202453D03*
D12*
X344170Y240275D03*
X344170Y223275D03*
D14*
X336795Y391795D03*
X319795Y391795D03*
X414093Y407988D03*
X431093Y407988D03*
D12*
X328295Y240275D03*
X328295Y223275D03*
M02*
